<svg xmlns="http://www.w3.org/2000/svg" xmlns:xlink="http://www.w3.org/1999/xlink" version="1.1" data-diagram-type="DESCRIPTION" style="width:822px;height:475px;background:#FFFFFF;" width="822px" height="475px" viewBox="0 0 822 475" zoomAndPan="magnify" preserveAspectRatio="none" contentStyleType="text/css"><?plantuml 1.2026.7beta8?><defs/><g font-family="sans-serif" lengthAdjust="spacing"><!--entity Shared--><g class="entity" data-qualified-name="Shared" id="ent0001" data-source-line="1"><path d="M327.45,419.48 L396.368,419.48 A3.75,3.75 0 0 1 398.868,421.98 L405.868,441.777 L420.368,441.777 A2.5,2.5 0 0 1 422.868,444.277 L422.868,456.277 A2.5,2.5 0 0 1 420.368,458.777 L327.45,458.777 A2.5,2.5 0 0 1 324.95,456.277 L324.95,421.98 A2.5,2.5 0 0 1 327.45,419.48" style="stroke:#181818;stroke-width:0.5;" fill="#F1F1F1"/><line x1="324.95" y1="441.777" x2="405.868" y2="441.777" style="stroke:#181818;stroke-width:0.5;"/><text x="334.95" y="435.475" fill="#000" font-size="14" textLength="55.918" font-weight="700">Shared</text></g><!--entity Auth--><g class="entity" data-qualified-name="Auth" id="ent0002" data-source-line="3"><path d="M53.03,204.59 L103.491,204.59 A3.75,3.75 0 0 1 105.991,207.09 L112.991,226.887 L180.801,226.887 A2.5,2.5 0 0 1 183.301,229.387 L183.301,257.684 A2.5,2.5 0 0 1 180.801,260.184 L53.03,260.184 A2.5,2.5 0 0 1 50.53,257.684 L50.53,207.09 A2.5,2.5 0 0 1 53.03,204.59" style="stroke:#181818;stroke-width:0.5;" fill="#F1F1F1"/><line x1="50.53" y1="226.887" x2="112.991" y2="226.887" style="stroke:#181818;stroke-width:0.5;"/><text x="60.53" y="220.585" fill="#000" font-size="14" textLength="37.461" font-weight="700">Auth</text><text x="60.53" y="246.882" fill="#000" font-size="14" textLength="102.771">Authentication</text></g><!--entity Investment--><g class="entity" data-qualified-name="Investment" id="ent0003" data-source-line="4"><path d="M207.63,105.3 L310.194,105.3 A3.75,3.75 0 0 1 312.694,107.8 L319.694,127.597 L334.194,127.597 A2.5,2.5 0 0 1 336.694,130.097 L336.694,142.097 A2.5,2.5 0 0 1 334.194,144.597 L207.63,144.597 A2.5,2.5 0 0 1 205.13,142.097 L205.13,107.8 A2.5,2.5 0 0 1 207.63,105.3" style="stroke:#181818;stroke-width:0.5;" fill="#F1F1F1"/><line x1="205.13" y1="127.597" x2="319.694" y2="127.597" style="stroke:#181818;stroke-width:0.5;"/><text x="215.13" y="121.295" fill="#000" font-size="14" textLength="89.564" font-weight="700">Investment</text></g><!--entity Booking--><g class="entity" data-qualified-name="Booking" id="ent0004" data-source-line="5"><path d="M516.41,105.3 L593.415,105.3 A3.75,3.75 0 0 1 595.915,107.8 L602.915,127.597 L617.415,127.597 A2.5,2.5 0 0 1 619.915,130.097 L619.915,142.097 A2.5,2.5 0 0 1 617.415,144.597 L516.41,144.597 A2.5,2.5 0 0 1 513.91,142.097 L513.91,107.8 A2.5,2.5 0 0 1 516.41,105.3" style="stroke:#181818;stroke-width:0.5;" fill="#F1F1F1"/><line x1="513.91" y1="127.597" x2="602.915" y2="127.597" style="stroke:#181818;stroke-width:0.5;"/><text x="523.91" y="121.295" fill="#000" font-size="14" textLength="64.005" font-weight="700">Booking</text></g><!--entity Facility--><g class="entity" data-qualified-name="Facility" id="ent0005" data-source-line="6"><path d="M362.65,212.74 L433.174,212.74 A3.75,3.75 0 0 1 435.674,215.24 L442.674,235.037 L457.174,235.037 A2.5,2.5 0 0 1 459.674,237.537 L459.674,249.537 A2.5,2.5 0 0 1 457.174,252.037 L362.65,252.037 A2.5,2.5 0 0 1 360.15,249.537 L360.15,215.24 A2.5,2.5 0 0 1 362.65,212.74" style="stroke:#181818;stroke-width:0.5;" fill="#F1F1F1"/><line x1="360.15" y1="235.037" x2="442.674" y2="235.037" style="stroke:#181818;stroke-width:0.5;"/><text x="370.15" y="228.735" fill="#000" font-size="14" textLength="57.524" font-weight="700">Facility</text></g><!--entity Payment--><g class="entity" data-qualified-name="Payment" id="ent0006" data-source-line="7"><path d="M639.63,212.74 L722.206,212.74 A3.75,3.75 0 0 1 724.706,215.24 L731.706,235.037 L746.206,235.037 A2.5,2.5 0 0 1 748.706,237.537 L748.706,249.537 A2.5,2.5 0 0 1 746.206,252.037 L639.63,252.037 A2.5,2.5 0 0 1 637.13,249.537 L637.13,215.24 A2.5,2.5 0 0 1 639.63,212.74" style="stroke:#181818;stroke-width:0.5;" fill="#F1F1F1"/><line x1="637.13" y1="235.037" x2="731.706" y2="235.037" style="stroke:#181818;stroke-width:0.5;"/><text x="647.13" y="228.735" fill="#000" font-size="14" textLength="69.576" font-weight="700">Payment</text></g><!--entity Notification--><g class="entity" data-qualified-name="Notification" id="ent0007" data-source-line="8"><path d="M154.14,320.19 L259.678,320.19 A3.75,3.75 0 0 1 262.178,322.69 L269.178,342.487 L283.678,342.487 A2.5,2.5 0 0 1 286.178,344.987 L286.178,356.987 A2.5,2.5 0 0 1 283.678,359.487 L154.14,359.487 A2.5,2.5 0 0 1 151.64,356.987 L151.64,322.69 A2.5,2.5 0 0 1 154.14,320.19" style="stroke:#181818;stroke-width:0.5;" fill="#F1F1F1"/><line x1="151.64" y1="342.487" x2="269.178" y2="342.487" style="stroke:#181818;stroke-width:0.5;"/><text x="161.64" y="336.185" fill="#000" font-size="14" textLength="92.538" font-weight="700">Notification</text></g><!--entity Reporting--><g class="entity" data-qualified-name="Reporting" id="ent0008" data-source-line="9"><path d="M509.26,6 L600.559,6 A3.75,3.75 0 0 1 603.059,8.5 L610.059,28.297 L624.559,28.297 A2.5,2.5 0 0 1 627.059,30.797 L627.059,42.797 A2.5,2.5 0 0 1 624.559,45.297 L509.26,45.297 A2.5,2.5 0 0 1 506.76,42.797 L506.76,8.5 A2.5,2.5 0 0 1 509.26,6" style="stroke:#181818;stroke-width:0.5;" fill="#F1F1F1"/><line x1="506.76" y1="28.297" x2="610.059" y2="28.297" style="stroke:#181818;stroke-width:0.5;"/><text x="516.76" y="21.995" fill="#000" font-size="14" textLength="78.299" font-weight="700">Reporting</text></g><!--entity Administration--><g class="entity" data-qualified-name="Administration" id="ent0009" data-source-line="10"><path d="M39.68,6 L170.142,6 A3.75,3.75 0 0 1 172.642,8.5 L179.642,28.297 L194.142,28.297 A2.5,2.5 0 0 1 196.642,30.797 L196.642,42.797 A2.5,2.5 0 0 1 194.142,45.297 L39.68,45.297 A2.5,2.5 0 0 1 37.18,42.797 L37.18,8.5 A2.5,2.5 0 0 1 39.68,6" style="stroke:#181818;stroke-width:0.5;" fill="#F1F1F1"/><line x1="37.18" y1="28.297" x2="179.642" y2="28.297" style="stroke:#181818;stroke-width:0.5;"/><text x="47.18" y="21.995" fill="#000" font-size="14" textLength="117.462" font-weight="700">Administration</text></g><!--link Auth to Shared--><g class="link" data-entity-1="ent0002" data-entity-2="ent0001" id="lnk10" data-source-line="12" data-link-type="dependency"><path d="M112.87,260.52 C110.29,288.52 110.95,331.89 133.91,359.48 C180.89,415.94 264.156,431.776 319.556,436.266" style="stroke:#181818;stroke-width:1;stroke-dasharray:7,7;" fill="none" id="Auth-to-Shared"/><polygon points="324.54,436.67,315.893,431.956,319.556,436.266,315.246,439.93,324.54,436.67" fill="#181818" style="stroke:#181818;stroke-width:1;stroke-linejoin:miter;stroke-miterlimit:10;"/></g><!--link Investment to Shared--><g class="link" data-entity-1="ent0003" data-entity-2="ent0001" id="lnk11" data-source-line="13" data-link-type="dependency"><path d="M277.2,145 C295.63,200.87 347.813,359.032 366.143,414.572" style="stroke:#181818;stroke-width:1;stroke-dasharray:7,7;" fill="none" id="Investment-to-Shared"/><polygon points="367.71,419.32,368.688,409.52,366.143,414.572,361.091,412.027,367.71,419.32" fill="#181818" style="stroke:#181818;stroke-width:1;stroke-linejoin:miter;stroke-miterlimit:10;"/></g><!--link Booking to Shared--><g class="link" data-entity-1="ent0004" data-entity-2="ent0001" id="lnk12" data-source-line="14" data-link-type="dependency"><path d="M563.9,144.7 C559.02,171.57 547.78,221.98 526.91,260.19 C491.08,325.8 431.68,396.455 398.82,426.865" style="stroke:#181818;stroke-width:1;stroke-dasharray:7,7;" fill="none" id="Booking-to-Shared"/><polygon points="395.15,430.262,404.472,427.084,398.82,426.865,399.039,421.213,395.15,430.262" fill="#181818" style="stroke:#181818;stroke-width:1;stroke-linejoin:miter;stroke-miterlimit:10;"/></g><!--link Facility to Shared--><g class="link" data-entity-1="ent0005" data-entity-2="ent0001" id="lnk13" data-source-line="15" data-link-type="dependency"><path d="M406.59,252.28 C399.75,291.19 385.026,374.946 378.146,414.056" style="stroke:#181818;stroke-width:1;stroke-dasharray:7,7;" fill="none" id="Facility-to-Shared"/><polygon points="377.28,418.98,382.779,410.809,378.146,414.056,374.9,409.423,377.28,418.98" fill="#181818" style="stroke:#181818;stroke-width:1;stroke-linejoin:miter;stroke-miterlimit:10;"/></g><!--link Payment to Shared--><g class="link" data-entity-1="ent0006" data-entity-2="ent0001" id="lnk14" data-source-line="16" data-link-type="dependency"><path d="M685.2,252.53 C673.16,280.08 647.32,330.74 609.91,359.48 C554.27,402.24 479.094,443.837 428.014,452.857" style="stroke:#181818;stroke-width:1;stroke-dasharray:7,7;" fill="none" id="Payment-to-Shared"/><polygon points="423.09,453.727,432.648,456.101,428.014,452.857,431.257,448.223,423.09,453.727" fill="#181818" style="stroke:#181818;stroke-width:1;stroke-linejoin:miter;stroke-miterlimit:10;"/></g><!--link Notification to Shared--><g class="link" data-entity-1="ent0007" data-entity-2="ent0001" id="lnk15" data-source-line="17" data-link-type="dependency"><path d="M249.17,359.83 C276.39,376.91 311.955,399.242 339.235,416.362" style="stroke:#181818;stroke-width:1;stroke-dasharray:7,7;" fill="none" id="Notification-to-Shared"/><polygon points="343.47,419.02,337.973,410.848,339.235,416.362,333.721,417.624,343.47,419.02" fill="#181818" style="stroke:#181818;stroke-width:1;stroke-linejoin:miter;stroke-miterlimit:10;"/></g><!--link Reporting to Shared--><g class="link" data-entity-1="ent0008" data-entity-2="ent0001" id="lnk16" data-source-line="18" data-link-type="dependency"><path d="M606.14,45.79 C675.3,82.41 807.82,167.04 765.91,260.19 C706.81,391.57 519.456,447.788 428.026,456.778" style="stroke:#181818;stroke-width:1;stroke-dasharray:7,7;" fill="none" id="Reporting-to-Shared"/><polygon points="423.05,457.267,432.398,460.367,428.026,456.778,431.615,452.405,423.05,457.267" fill="#181818" style="stroke:#181818;stroke-width:1;stroke-linejoin:miter;stroke-miterlimit:10;"/></g><!--link Administration to Shared--><g class="link" data-entity-1="ent0009" data-entity-2="ent0001" id="lnk17" data-source-line="19" data-link-type="dependency"><path d="M101.05,45.62 C69.9,85.27 6,179.91 32.91,260.19 C50.49,312.62 62.45,328 107.91,359.48 C174.33,405.48 262.969,424.263 319.599,432.233" style="stroke:#181818;stroke-width:1;stroke-dasharray:7,7;" fill="none" id="Administration-to-Shared"/><polygon points="324.55,432.93,316.195,427.715,319.599,432.233,315.08,435.637,324.55,432.93" fill="#181818" style="stroke:#181818;stroke-width:1;stroke-linejoin:miter;stroke-miterlimit:10;"/></g><!--link Investment to Auth--><g class="link" data-entity-1="ent0003" data-entity-2="ent0002" id="lnk18" data-source-line="21" data-link-type="dependency"><path d="M243.03,145.04 C218.93,161.54 187.946,205.053 160.886,223.573" style="stroke:#181818;stroke-width:1;stroke-dasharray:7,7;" fill="none" id="Investment-to-Auth"/><polygon points="156.76,226.397,166.446,224.615,160.886,223.573,161.928,218.013,156.76,226.397" fill="#181818" style="stroke:#181818;stroke-width:1;stroke-linejoin:miter;stroke-miterlimit:10;"/></g><!--link Booking to Auth--><g class="link" data-entity-1="ent0004" data-entity-2="ent0002" id="lnk19" data-source-line="22" data-link-type="dependency"><path d="M513.53,138.45 C431.23,157.74 278.378,215.856 188.618,236.886" style="stroke:#181818;stroke-width:1;stroke-dasharray:7,7;" fill="none" id="Booking-to-Auth"/><polygon points="183.75,238.027,193.425,239.868,188.618,236.886,191.6,232.079,183.75,238.027" fill="#181818" style="stroke:#181818;stroke-width:1;stroke-linejoin:miter;stroke-miterlimit:10;"/></g><!--link Administration to Auth--><g class="link" data-entity-1="ent0009" data-entity-2="ent0002" id="lnk20" data-source-line="23" data-link-type="dependency"><path d="M109.14,45.54 C102.94,81.97 101.896,170.291 107.286,212.451" style="stroke:#181818;stroke-width:1;stroke-dasharray:7,7;" fill="none" id="Administration-to-Auth"/><polygon points="107.92,217.411,110.746,207.976,107.286,212.451,102.811,208.991,107.92,217.411" fill="#181818" style="stroke:#181818;stroke-width:1;stroke-linejoin:miter;stroke-miterlimit:10;"/></g><!--link Administration to Auth--><g class="link" data-entity-1="ent0009" data-entity-2="ent0002" id="lnk34" data-source-line="42" data-link-type="dependency"><path d="M125.14,45.54 C131.71,81.97 132.811,179.382 127.101,221.542" style="stroke:#181818;stroke-width:1;stroke-dasharray:7,7;" fill="none" id="Administration-to-Auth-1"/><polygon points="126.43,226.497,131.602,218.115,127.101,221.542,123.674,217.041,126.43,226.497" fill="#181818" style="stroke:#181818;stroke-width:1;stroke-linejoin:miter;stroke-miterlimit:10;"/></g><!--link Investment to Payment--><g class="link" data-entity-1="ent0003" data-entity-2="ent0006" id="lnk21" data-source-line="25" data-link-type="dependency"><path d="M336.85,142.42 C419.38,163.04 554.429,196.788 632.029,216.178" style="stroke:#181818;stroke-width:1;stroke-dasharray:7,7;" fill="none" id="Investment-to-Payment"/><polygon points="636.88,217.39,629.118,211.328,632.029,216.178,627.179,219.089,636.88,217.39" fill="#181818" style="stroke:#181818;stroke-width:1;stroke-linejoin:miter;stroke-miterlimit:10;"/></g><!--link Booking to Payment--><g class="link" data-entity-1="ent0004" data-entity-2="ent0006" id="lnk22" data-source-line="26" data-link-type="dependency"><path d="M589.73,145.04 C612.57,164.15 643.655,190.171 666.435,209.231" style="stroke:#181818;stroke-width:1;stroke-dasharray:7,7;" fill="none" id="Booking-to-Payment"/><polygon points="670.27,212.44,665.934,203.597,666.435,209.231,660.801,209.732,670.27,212.44" fill="#181818" style="stroke:#181818;stroke-width:1;stroke-linejoin:miter;stroke-miterlimit:10;"/></g><!--link Investment to Notification--><g class="link" data-entity-1="ent0003" data-entity-2="ent0007" id="lnk23" data-source-line="28" data-link-type="dependency"><path d="M266.3,144.84 C256.43,185.24 234.567,274.763 224.707,315.123" style="stroke:#181818;stroke-width:1;stroke-dasharray:7,7;" fill="none" id="Investment-to-Notification"/><polygon points="223.52,319.98,229.542,312.186,224.707,315.123,221.77,310.288,223.52,319.98" fill="#181818" style="stroke:#181818;stroke-width:1;stroke-linejoin:miter;stroke-miterlimit:10;"/></g><!--link Booking to Notification--><g class="link" data-entity-1="ent0004" data-entity-2="ent0007" id="lnk24" data-source-line="29" data-link-type="dependency"><path d="M559.19,145.01 C546.43,174.15 518.16,229.6 476.91,260.19 C420.68,301.88 347.072,343.175 291.452,352.445" style="stroke:#181818;stroke-width:1;stroke-dasharray:7,7;" fill="none" id="Booking-to-Notification"/><polygon points="286.52,353.267,296.055,355.733,291.452,352.445,294.74,347.842,286.52,353.267" fill="#181818" style="stroke:#181818;stroke-width:1;stroke-linejoin:miter;stroke-miterlimit:10;"/></g><!--link Auth to Notification--><g class="link" data-entity-1="ent0002" data-entity-2="ent0007" id="lnk25" data-source-line="30" data-link-type="dependency"><path d="M143.18,260.54 C161.13,279.09 180.983,299.627 196.983,316.157" style="stroke:#181818;stroke-width:1;stroke-dasharray:7,7;" fill="none" id="Auth-to-Notification"/><polygon points="200.46,319.75,197.075,310.501,196.983,316.157,191.326,316.065,200.46,319.75" fill="#181818" style="stroke:#181818;stroke-width:1;stroke-linejoin:miter;stroke-miterlimit:10;"/></g><!--link Booking to Facility--><g class="link" data-entity-1="ent0004" data-entity-2="ent0005" id="lnk26" data-source-line="32" data-link-type="dependency"><path d="M538.48,145.04 C510.12,164.09 470.93,212.5 442.55,231.57" style="stroke:#181818;stroke-width:1;stroke-dasharray:7,7;" fill="none" id="Booking-to-Facility"/><polygon points="438.4,234.359,448.101,232.659,442.55,231.57,443.639,226.019,438.4,234.359" fill="#181818" style="stroke:#181818;stroke-width:1;stroke-linejoin:miter;stroke-miterlimit:10;"/></g><!--link Investment to Facility--><g class="link" data-entity-1="ent0003" data-entity-2="ent0005" id="lnk27" data-source-line="33" data-link-type="dependency"><path d="M296.09,145.04 C321.28,164.15 355.816,190.358 380.946,209.418" style="stroke:#181818;stroke-width:1;stroke-dasharray:7,7;" fill="none" id="Investment-to-Facility"/><polygon points="384.93,212.44,380.176,203.814,380.946,209.418,375.342,210.188,384.93,212.44" fill="#181818" style="stroke:#181818;stroke-width:1;stroke-linejoin:miter;stroke-miterlimit:10;"/></g><!--link Reporting to Investment--><g class="link" data-entity-1="ent0008" data-entity-2="ent0003" id="lnk28" data-source-line="35" data-link-type="dependency"><path d="M508.79,45.75 C456.85,62.83 385.89,108.445 333.91,125.535" style="stroke:#181818;stroke-width:1;stroke-dasharray:7,7;" fill="none" id="Reporting-to-Investment"/><polygon points="329.16,127.097,338.959,128.086,333.91,125.535,336.46,120.486,329.16,127.097" fill="#181818" style="stroke:#181818;stroke-width:1;stroke-linejoin:miter;stroke-miterlimit:10;"/></g><!--link Reporting to Booking--><g class="link" data-entity-1="ent0008" data-entity-2="ent0004" id="lnk29" data-source-line="36" data-link-type="dependency"><path d="M566.91,45.41 C566.91,62.53 566.91,82.71 566.91,99.91" style="stroke:#181818;stroke-width:1;stroke-dasharray:7,7;" fill="none" id="Reporting-to-Booking"/><polygon points="566.91,104.91,570.91,95.91,566.91,99.91,562.91,95.91,566.91,104.91" fill="#181818" style="stroke:#181818;stroke-width:1;stroke-linejoin:miter;stroke-miterlimit:10;"/></g><!--link Reporting to Facility--><g class="link" data-entity-1="ent0008" data-entity-2="ent0005" id="lnk30" data-source-line="37" data-link-type="dependency"><path d="M548.35,45.72 C533.56,61.26 512.63,84.04 495.91,105.3 C467.25,141.74 440.262,183.054 424.352,208.224" style="stroke:#181818;stroke-width:1;stroke-dasharray:7,7;" fill="none" id="Reporting-to-Facility"/><polygon points="421.68,212.45,429.87,206.98,424.352,208.224,423.108,202.705,421.68,212.45" fill="#181818" style="stroke:#181818;stroke-width:1;stroke-linejoin:miter;stroke-miterlimit:10;"/></g><!--link Reporting to Payment--><g class="link" data-entity-1="ent0008" data-entity-2="ent0006" id="lnk31" data-source-line="38" data-link-type="dependency"><path d="M587.23,45.54 C602.6,60.63 623.46,82.88 637.91,105.3 C660.7,140.62 676.54,182.236 685.22,207.756" style="stroke:#181818;stroke-width:1;stroke-dasharray:7,7;" fill="none" id="Reporting-to-Payment"/><polygon points="686.83,212.49,687.719,202.681,685.22,207.756,680.145,205.257,686.83,212.49" fill="#181818" style="stroke:#181818;stroke-width:1;stroke-linejoin:miter;stroke-miterlimit:10;"/></g><!--link Administration to Investment--><g class="link" data-entity-1="ent0009" data-entity-2="ent0003" id="lnk32" data-source-line="40" data-link-type="dependency"><path d="M146.97,45.64 C174.02,62.73 209.333,85.039 236.443,102.169" style="stroke:#181818;stroke-width:1;stroke-dasharray:7,7;" fill="none" id="Administration-to-Investment"/><polygon points="240.67,104.84,235.198,96.651,236.443,102.169,230.925,103.414,240.67,104.84" fill="#181818" style="stroke:#181818;stroke-width:1;stroke-linejoin:miter;stroke-miterlimit:10;"/></g><!--link Administration to Facility--><g class="link" data-entity-1="ent0009" data-entity-2="ent0005" id="lnk33" data-source-line="41" data-link-type="dependency"><path d="M196.93,36.45 C247.26,46.33 310.64,66.05 353.91,105.3 C385.85,134.26 399.507,179.942 405.427,207.422" style="stroke:#181818;stroke-width:1;stroke-dasharray:7,7;" fill="none" id="Administration-to-Facility"/><polygon points="406.48,212.31,408.495,202.669,405.427,207.422,400.674,204.354,406.48,212.31" fill="#181818" style="stroke:#181818;stroke-width:1;stroke-linejoin:miter;stroke-miterlimit:10;"/></g><?plantuml-src TP913i8W44Ntd89uW1x1H1ScRepH4v0MMr8BJOiclRqMOVX3wWxU7uR_1qPLzwhLSdVlrAIRdLIp_2s569DsUFbEMszgvOspeMP5kU1itthsmxScY7cRIuxEzSQsGO_hB9vKRPx6Bq5DconVrKAzupgB5-VD0wqXo6KtFRh99mUqWv3DOAoP_GGX6H9Y3IshQfycb7CYZUaGfKZ8OX14w1mvkKN8pQ5I-WflXQu2s3WVU7aw3HmR95RMij7Z0IRG61bbzVG7YWk85pE17yU5zDKufJOSKwoDsS0D6oer_3FL3m00?></g></svg>