<svg xmlns="http://www.w3.org/2000/svg" xmlns:xlink="http://www.w3.org/1999/xlink" version="1.1" data-diagram-type="STATE" style="width:738px;height:808px;background:#FFFFFF;" width="738px" height="808px" viewBox="0 0 738 808" zoomAndPan="magnify" preserveAspectRatio="none" contentStyleType="text/css"><?plantuml 1.2026.7beta8?><defs/><g font-family="sans-serif" lengthAdjust="spacing"><g class="start_entity" data-qualified-name=".start." id="ent0001" data-source-line="1"><ellipse cx="569.55" cy="16" rx="10" ry="10" fill="#222" style="stroke:#222;stroke-width:1;"/></g><g class="entity" data-qualified-name="Requested" id="ent0002" data-source-line="1"><rect x="522.05" y="87" width="94.997" height="50" fill="#F1F1F1" style="stroke:#181818;stroke-width:0.5;" rx="12.5" ry="12.5"/><line x1="522.05" y1="113.297" x2="617.047" y2="113.297" style="stroke:#181818;stroke-width:0.5;"/><text x="532.05" y="104.995" fill="#000" font-size="14" textLength="74.997">Requested</text></g><g class="entity" data-qualified-name="PendingApproval" id="ent0004" data-source-line="3"><rect x="500.1" y="214" width="138.891" height="50" fill="#F1F1F1" style="stroke:#181818;stroke-width:0.5;" rx="12.5" ry="12.5"/><line x1="500.1" y1="240.297" x2="638.991" y2="240.297" style="stroke:#181818;stroke-width:0.5;"/><text x="510.1" y="231.995" fill="#000" font-size="14" textLength="118.891">PendingApproval</text></g><g class="entity" data-qualified-name="Confirmed" id="ent0006" data-source-line="4"><rect x="264.09" y="341" width="92.926" height="50" fill="#F1F1F1" style="stroke:#181818;stroke-width:0.5;" rx="12.5" ry="12.5"/><line x1="264.09" y1="367.297" x2="357.016" y2="367.297" style="stroke:#181818;stroke-width:0.5;"/><text x="274.09" y="358.995" fill="#000" font-size="14" textLength="72.926">Confirmed</text></g><g class="entity" data-qualified-name="Rejected" id="ent0008" data-source-line="5"><rect x="641.78" y="421" width="81.53" height="50" fill="#F1F1F1" style="stroke:#181818;stroke-width:0.5;" rx="12.5" ry="12.5"/><line x1="641.78" y1="447.297" x2="723.31" y2="447.297" style="stroke:#181818;stroke-width:0.5;"/><text x="651.78" y="438.995" fill="#000" font-size="14" textLength="61.53">Rejected</text></g><g class="entity" data-qualified-name="Expired" id="ent0010" data-source-line="6"><rect x="346.97" y="501" width="73.163" height="50" fill="#F1F1F1" style="stroke:#181818;stroke-width:0.5;" rx="12.5" ry="12.5"/><line x1="346.97" y1="527.297" x2="420.133" y2="527.297" style="stroke:#181818;stroke-width:0.5;"/><text x="356.97" y="518.995" fill="#000" font-size="14" textLength="53.163">Expired</text></g><g class="entity" data-qualified-name="CheckedIn" id="ent0012" data-source-line="8"><rect x="191.76" y="501" width="93.568" height="50" fill="#F1F1F1" style="stroke:#181818;stroke-width:0.5;" rx="12.5" ry="12.5"/><line x1="191.76" y1="527.297" x2="285.328" y2="527.297" style="stroke:#181818;stroke-width:0.5;"/><text x="201.76" y="518.995" fill="#000" font-size="14" textLength="73.568">CheckedIn</text></g><g class="entity" data-qualified-name="Cancelled" id="ent0014" data-source-line="9"><rect x="50.14" y="581" width="88.817" height="50" fill="#F1F1F1" style="stroke:#181818;stroke-width:0.5;" rx="12.5" ry="12.5"/><line x1="50.14" y1="607.297" x2="138.957" y2="607.297" style="stroke:#181818;stroke-width:0.5;"/><text x="60.14" y="598.995" fill="#000" font-size="14" textLength="68.817">Cancelled</text></g><g class="entity" data-qualified-name="Completed" id="ent0017" data-source-line="12"><rect x="213.37" y="661" width="96.357" height="50" fill="#F1F1F1" style="stroke:#181818;stroke-width:0.5;" rx="12.5" ry="12.5"/><line x1="213.37" y1="687.297" x2="309.727" y2="687.297" style="stroke:#181818;stroke-width:0.5;"/><text x="223.37" y="678.995" fill="#000" font-size="14" textLength="76.357">Completed</text></g><g class="end_entity" data-qualified-name=".end." id="ent0019" data-source-line="14"><ellipse cx="345.55" cy="783" rx="11" ry="11" fill="none" style="stroke:#222;stroke-width:1;"/><ellipse cx="345.55" cy="783" rx="6" ry="6" fill="#222" style="stroke:#222;stroke-width:1;"/></g><!--link *start* to Requested--><g class="link" data-entity-1="ent0001" data-entity-2="ent0002" id="lnk3" data-source-line="1" data-link-type="dependency"><path d="M569.55,26.36 C569.55,40.29 569.55,61.95 569.55,81.65" style="stroke:#181818;stroke-width:1;" fill="none" id="*start*-to-Requested"/><polygon points="569.55,86.65,573.55,77.65,569.55,81.65,565.55,77.65,569.55,86.65" fill="#181818" style="stroke:#181818;stroke-width:1;stroke-linejoin:miter;stroke-miterlimit:10;"/></g><!--link Requested to PendingApproval--><g class="link" data-entity-1="ent0002" data-entity-2="ent0004" id="lnk5" data-source-line="3" data-link-type="dependency"><path d="M569.55,137.4 C569.55,159.42 569.55,186.66 569.55,208.66" style="stroke:#181818;stroke-width:1;" fill="none" id="Requested-to-PendingApproval"/><polygon points="569.55,213.66,573.55,204.66,569.55,208.66,565.55,204.66,569.55,213.66" fill="#181818" style="stroke:#181818;stroke-width:1;stroke-linejoin:miter;stroke-miterlimit:10;"/><text x="570.55" y="180.067" fill="#000" font-size="13" textLength="140.569">Submitted for Review</text></g><!--link PendingApproval to Confirmed--><g class="link" data-entity-1="ent0004" data-entity-2="ent0006" id="lnk7" data-source-line="4" data-link-type="dependency"><path d="M519,264.4 C472.18,286.99 407.613,318.157 361.993,340.177" style="stroke:#181818;stroke-width:1;" fill="none" id="PendingApproval-to-Confirmed"/><polygon points="357.49,342.35,367.334,342.04,361.993,340.177,363.856,334.835,357.49,342.35" fill="#181818" style="stroke:#181818;stroke-width:1;stroke-linejoin:miter;stroke-miterlimit:10;"/><text x="457.55" y="307.067" fill="#000" font-size="13" textLength="62.639">Approved</text></g><!--link PendingApproval to Rejected--><g class="link" data-entity-1="ent0004" data-entity-2="ent0008" id="lnk9" data-source-line="5" data-link-type="dependency"><path d="M612.79,264.37 C639.17,281.9 670.61,308.19 685.55,341 C697.07,366.32 694.671,393.915 690.111,415.785" style="stroke:#181818;stroke-width:1;" fill="none" id="PendingApproval-to-Rejected"/><polygon points="689.09,420.68,694.843,412.686,690.111,415.785,687.011,411.053,689.09,420.68" fill="#181818" style="stroke:#181818;stroke-width:1;stroke-linejoin:miter;stroke-miterlimit:10;"/><text x="665.55" y="307.067" fill="#000" font-size="13" textLength="46.109">Denied</text></g><!--link PendingApproval to Expired--><g class="link" data-entity-1="ent0004" data-entity-2="ent0010" id="lnk11" data-source-line="6" data-link-type="dependency"><path d="M569.18,264.22 C567.9,316.92 562.17,439.75 536.55,471 C508.15,505.64 460.971,517.456 425.531,521.916" style="stroke:#181818;stroke-width:1;" fill="none" id="PendingApproval-to-Expired"/><polygon points="420.57,522.54,429.999,525.385,425.531,521.916,429,517.448,420.57,522.54" fill="#181818" style="stroke:#181818;stroke-width:1;stroke-linejoin:miter;stroke-miterlimit:10;"/><text x="566.55" y="370.567" fill="#000" font-size="13" textLength="106.558">No Action Taken</text></g><!--link Confirmed to CheckedIn--><g class="link" data-entity-1="ent0006" data-entity-2="ent0012" id="lnk13" data-source-line="8" data-link-type="dependency"><path d="M263.96,389.23 C251.86,397.42 240.33,407.96 233.55,421 C220.62,445.86 223.949,473.894 229.559,495.974" style="stroke:#181818;stroke-width:1;" fill="none" id="Confirmed-to-CheckedIn"/><polygon points="230.79,500.82,232.451,491.112,229.559,495.974,224.697,493.082,230.79,500.82" fill="#181818" style="stroke:#181818;stroke-width:1;stroke-linejoin:miter;stroke-miterlimit:10;"/><text x="234.55" y="450.567" fill="#000" font-size="13" textLength="105.282">Guest Checks In</text></g><!--link Confirmed to Cancelled--><g class="link" data-entity-1="ent0006" data-entity-2="ent0014" id="lnk15" data-source-line="9" data-link-type="dependency"><path d="M263.81,369.59 C195.02,374.48 71.72,387.75 44.55,421 C6,468.16 45.806,538.502 72.866,576.632" style="stroke:#181818;stroke-width:1;" fill="none" id="Confirmed-to-Cancelled"/><polygon points="75.76,580.71,73.813,571.055,72.866,576.632,67.289,575.685,75.76,580.71" fill="#181818" style="stroke:#181818;stroke-width:1;stroke-linejoin:miter;stroke-miterlimit:10;"/><text x="45.55" y="450.567" fill="#000" font-size="13" textLength="171.71">Cancelled Before Check-In</text></g><!--link Confirmed to Expired--><g class="link" data-entity-1="ent0006" data-entity-2="ent0010" id="lnk16" data-source-line="10" data-link-type="dependency"><path d="M327.38,391.39 C333.24,400.46 339.58,410.98 344.55,421 C357.66,447.43 367.475,474.668 374.495,496.128" style="stroke:#181818;stroke-width:1;" fill="none" id="Confirmed-to-Expired"/><polygon points="376.05,500.88,377.054,491.082,374.495,496.128,369.45,493.57,376.05,500.88" fill="#181818" style="stroke:#181818;stroke-width:1;stroke-linejoin:miter;stroke-miterlimit:10;"/><text x="366.55" y="450.567" fill="#000" font-size="13" textLength="161.186">Check-In Window Missed</text></g><!--link CheckedIn to Completed--><g class="link" data-entity-1="ent0012" data-entity-2="ent0017" id="lnk18" data-source-line="12" data-link-type="dependency"><path d="M239.9,551.08 C241.32,572.24 243.99,603.81 248.55,631 C250.19,640.8 251.407,646.599 253.717,655.839" style="stroke:#181818;stroke-width:1;" fill="none" id="CheckedIn-to-Completed"/><polygon points="254.93,660.69,256.628,650.989,253.717,655.839,248.867,652.929,254.93,660.69" fill="#181818" style="stroke:#181818;stroke-width:1;stroke-linejoin:miter;stroke-miterlimit:10;"/><text x="249.55" y="610.567" fill="#000" font-size="13" textLength="104.044">Stay Completed</text></g><!--link Completed to *end*--><g class="link" data-entity-1="ent0017" data-entity-2="ent0019" id="lnk20" data-source-line="14" data-link-type="dependency"><path d="M283.18,711.46 C301.46,732.14 323.219,756.744 335.239,770.344" style="stroke:#181818;stroke-width:1;" fill="none" id="Completed-to-*end*"/><polygon points="338.55,774.09,335.587,764.697,335.239,770.344,329.593,769.995,338.55,774.09" fill="#181818" style="stroke:#181818;stroke-width:1;stroke-linejoin:miter;stroke-miterlimit:10;"/></g><!--link Rejected to *end*--><g class="link" data-entity-1="ent0008" data-entity-2="ent0019" id="lnk21" data-source-line="15" data-link-type="dependency"><path d="M658.04,471.36 C588.67,540.32 396.906,730.955 356.476,771.135" style="stroke:#181818;stroke-width:1;" fill="none" id="Rejected-to-*end*"/><polygon points="352.93,774.66,362.133,771.153,356.476,771.135,356.494,765.479,352.93,774.66" fill="#181818" style="stroke:#181818;stroke-width:1;stroke-linejoin:miter;stroke-miterlimit:10;"/></g><!--link Expired to *end*--><g class="link" data-entity-1="ent0010" data-entity-2="ent0019" id="lnk22" data-source-line="16" data-link-type="dependency"><path d="M379.91,551.45 C371.81,605.8 353.327,729.825 347.797,766.915" style="stroke:#181818;stroke-width:1;" fill="none" id="Expired-to-*end*"/><polygon points="347.06,771.86,352.343,763.548,347.797,766.915,344.431,762.369,347.06,771.86" fill="#181818" style="stroke:#181818;stroke-width:1;stroke-linejoin:miter;stroke-miterlimit:10;"/></g><!--link Cancelled to *end*--><g class="link" data-entity-1="ent0014" data-entity-2="ent0019" id="lnk23" data-source-line="17" data-link-type="dependency"><path d="M113.76,631.31 C132.71,654.1 163.41,688.01 195.55,711 C243.11,745.03 304.832,768.113 330.312,776.883" style="stroke:#181818;stroke-width:1;" fill="none" id="Cancelled-to-*end*"/><polygon points="335.04,778.51,327.832,771.799,330.312,776.883,325.228,779.363,335.04,778.51" fill="#181818" style="stroke:#181818;stroke-width:1;stroke-linejoin:miter;stroke-miterlimit:10;"/></g><?plantuml-src TP193i8m34NtEONNIBq02wGo2B40eOB40h4ehGkchLFQCDsU38H833l7__ryszlU3g9e00cUBzWfp8LubrPO8kV4XxXfMdbDA-Z3whAlIHczaAqsNWbluXCprf7aWjfQWtrmWlx-5vZW2JDbkJ4o_Q4czuPQ2oqan9aYoR1EIsGXGfBDFM9MOZvZZKxDAgxJmOm_oPGph2hxQQY7g1T3Pug-F64C3y26E9Stc5FNcGE6V7U5kgdGRRTIwICqpDnUC-IsjnFlK_Y6Z_FlCEQhymG0?></g></svg>