<svg xmlns="http://www.w3.org/2000/svg" xmlns:xlink="http://www.w3.org/1999/xlink" version="1.1" data-diagram-type="STATE" style="width:1141px;height:742px;background:#FFFFFF;" width="1141px" height="742px" viewBox="0 0 1141 742" zoomAndPan="magnify" preserveAspectRatio="none" contentStyleType="text/css"><?plantuml 1.2026.7beta8?><defs/><g font-family="sans-serif" lengthAdjust="spacing"><g class="start_entity" data-qualified-name=".start." id="ent0001" data-source-line="1"><ellipse cx="76.19" cy="16" rx="10" ry="10" fill="#222" style="stroke:#222;stroke-width:1;"/></g><g class="entity" data-qualified-name="Created" id="ent0002" data-source-line="1"><rect x="38.34" y="87" width="75.713" height="50" fill="#F1F1F1" style="stroke:#181818;stroke-width:0.5;" rx="12.5" ry="12.5"/><line x1="38.34" y1="113.297" x2="114.053" y2="113.297" style="stroke:#181818;stroke-width:0.5;"/><text x="48.34" y="104.995" fill="#000" font-size="14" textLength="55.713">Created</text></g><g class="entity" data-qualified-name="PendingPayment" id="ent0004" data-source-line="3"><rect x="7" y="214" width="138.385" height="50" fill="#F1F1F1" style="stroke:#181818;stroke-width:0.5;" rx="12.5" ry="12.5"/><line x1="7" y1="240.297" x2="145.385" y2="240.297" style="stroke:#181818;stroke-width:0.5;"/><text x="17" y="231.995" fill="#000" font-size="14" textLength="118.385">PendingPayment</text></g><g class="entity" data-qualified-name="Active" id="ent0006" data-source-line="4"><rect x="499.42" y="341" width="63.552" height="50" fill="#F1F1F1" style="stroke:#181818;stroke-width:0.5;" rx="12.5" ry="12.5"/><line x1="499.42" y1="367.297" x2="562.972" y2="367.297" style="stroke:#181818;stroke-width:0.5;"/><text x="509.42" y="358.995" fill="#000" font-size="14" textLength="43.552">Active</text></g><g class="entity" data-qualified-name="Cancelled" id="ent0008" data-source-line="5"><rect x="222.78" y="595" width="88.817" height="50" fill="#F1F1F1" style="stroke:#181818;stroke-width:0.5;" rx="12.5" ry="12.5"/><line x1="222.78" y1="621.297" x2="311.597" y2="621.297" style="stroke:#181818;stroke-width:0.5;"/><text x="232.78" y="612.995" fill="#000" font-size="14" textLength="68.817">Cancelled</text></g><g class="entity" data-qualified-name="MonthlyContribution" id="ent0010" data-source-line="7"><rect x="831.7" y="468" width="162.98" height="50" fill="#F1F1F1" style="stroke:#181818;stroke-width:0.5;" rx="12.5" ry="12.5"/><line x1="831.7" y1="494.297" x2="994.68" y2="494.297" style="stroke:#181818;stroke-width:0.5;"/><text x="841.7" y="485.995" fill="#000" font-size="14" textLength="142.98">MonthlyContribution</text></g><g class="entity" data-qualified-name="Paused" id="ent0013" data-source-line="10"><rect x="395.85" y="468" width="70.688" height="50" fill="#F1F1F1" style="stroke:#181818;stroke-width:0.5;" rx="12.5" ry="12.5"/><line x1="395.85" y1="494.297" x2="466.538" y2="494.297" style="stroke:#181818;stroke-width:0.5;"/><text x="405.85" y="485.995" fill="#000" font-size="14" textLength="50.688">Paused</text></g><g class="entity" data-qualified-name="Completed" id="ent0016" data-source-line="13"><rect x="1030.01" y="468" width="96.357" height="50" fill="#F1F1F1" style="stroke:#181818;stroke-width:0.5;" rx="12.5" ry="12.5"/><line x1="1030.01" y1="494.297" x2="1126.367" y2="494.297" style="stroke:#181818;stroke-width:0.5;"/><text x="1040.01" y="485.995" fill="#000" font-size="14" textLength="76.357">Completed</text></g><g class="entity" data-qualified-name="Redeemed" id="ent0018" data-source-line="14"><rect x="635.4" y="595" width="95.592" height="50" fill="#F1F1F1" style="stroke:#181818;stroke-width:0.5;" rx="12.5" ry="12.5"/><line x1="635.4" y1="621.297" x2="730.992" y2="621.297" style="stroke:#181818;stroke-width:0.5;"/><text x="645.4" y="612.995" fill="#000" font-size="14" textLength="75.592">Redeemed</text></g><g class="entity" data-qualified-name="Expired" id="ent0020" data-source-line="16"><rect x="483.61" y="595" width="73.163" height="50" fill="#F1F1F1" style="stroke:#181818;stroke-width:0.5;" rx="12.5" ry="12.5"/><line x1="483.61" y1="621.297" x2="556.773" y2="621.297" style="stroke:#181818;stroke-width:0.5;"/><text x="493.61" y="612.995" fill="#000" font-size="14" textLength="53.163">Expired</text></g><g class="end_entity" data-qualified-name=".end." id="ent0025" data-source-line="22"><ellipse cx="520.19" cy="717" rx="11" ry="11" fill="none" style="stroke:#222;stroke-width:1;"/><ellipse cx="520.19" cy="717" rx="6" ry="6" fill="#222" style="stroke:#222;stroke-width:1;"/></g><!--link *start* to Created--><g class="link" data-entity-1="ent0001" data-entity-2="ent0002" id="lnk3" data-source-line="1" data-link-type="dependency"><path d="M76.19,26.36 C76.19,40.29 76.19,61.95 76.19,81.65" style="stroke:#181818;stroke-width:1;" fill="none" id="*start*-to-Created"/><polygon points="76.19,86.65,80.19,77.65,76.19,81.65,72.19,77.65,76.19,86.65" fill="#181818" style="stroke:#181818;stroke-width:1;stroke-linejoin:miter;stroke-miterlimit:10;"/></g><!--link Created to PendingPayment--><g class="link" data-entity-1="ent0002" data-entity-2="ent0004" id="lnk5" data-source-line="3" data-link-type="dependency"><path d="M76.19,137.4 C76.19,159.42 76.19,186.66 76.19,208.66" style="stroke:#181818;stroke-width:1;" fill="none" id="Created-to-PendingPayment"/><polygon points="76.19,213.66,80.19,204.66,76.19,208.66,72.19,204.66,76.19,213.66" fill="#181818" style="stroke:#181818;stroke-width:1;stroke-linejoin:miter;stroke-miterlimit:10;"/><text x="77.19" y="180.067" fill="#000" font-size="13" textLength="115.337">Payment Initiated</text></g><!--link PendingPayment to Active--><g class="link" data-entity-1="ent0004" data-entity-2="ent0006" id="lnk7" data-source-line="4" data-link-type="dependency"><path d="M145.79,259.12 C245.74,286.58 421.109,334.755 494.229,354.845" style="stroke:#181818;stroke-width:1;" fill="none" id="PendingPayment-to-Active"/><polygon points="499.05,356.17,491.431,349.929,494.229,354.845,489.312,357.643,499.05,356.17" fill="#181818" style="stroke:#181818;stroke-width:1;stroke-linejoin:miter;stroke-miterlimit:10;"/><text x="332.19" y="307.067" fill="#000" font-size="13" textLength="129.346">Payment Confirmed</text></g><!--link PendingPayment to Cancelled--><g class="link" data-entity-1="ent0004" data-entity-2="ent0008" id="lnk9" data-source-line="5" data-link-type="dependency"><path d="M76.93,264.39 C78.94,303.02 86.43,379.89 114.19,438 C144.88,502.23 200.276,558.929 235.366,591.129" style="stroke:#181818;stroke-width:1;" fill="none" id="PendingPayment-to-Cancelled"/><polygon points="239.05,594.51,235.123,585.478,235.366,591.129,229.714,591.372,239.05,594.51" fill="#181818" style="stroke:#181818;stroke-width:1;stroke-linejoin:miter;stroke-miterlimit:10;"/><text x="115.19" y="434.067" fill="#000" font-size="13" textLength="166.696">Payment Failed / Timeout</text></g><!--link Active to MonthlyContribution--><g class="link" data-entity-1="ent0006" data-entity-2="ent0010" id="lnk11" data-source-line="7" data-link-type="dependency"><path d="M563.32,367.7 C619.26,370.02 737.1,379.84 826.19,421 C850.62,432.28 870.395,448.555 886.755,464.365" style="stroke:#181818;stroke-width:1;" fill="none" id="Active-to-MonthlyContribution"/><polygon points="890.35,467.84,886.658,458.709,886.755,464.365,881.099,464.462,890.35,467.84" fill="#181818" style="stroke:#181818;stroke-width:1;stroke-linejoin:miter;stroke-miterlimit:10;"/><text x="853.19" y="434.067" fill="#000" font-size="13" textLength="111.097">Contribution Due</text></g><!--link MonthlyContribution to Active--><g class="link" data-entity-1="ent0010" data-entity-2="ent0006" id="lnk12" data-source-line="8" data-link-type="dependency"><path d="M831.5,473.82 C762.37,458.41 674.15,438.7 672.19,438 C633.22,424.06 595.518,404.339 567.578,388.469" style="stroke:#181818;stroke-width:1;" fill="none" id="MonthlyContribution-to-Active"/><polygon points="563.23,386,569.08,393.923,567.578,388.469,573.031,386.967,563.23,386" fill="#181818" style="stroke:#181818;stroke-width:1;stroke-linejoin:miter;stroke-miterlimit:10;"/><text x="673.19" y="434.067" fill="#000" font-size="13" textLength="144.581">Contribution Received</text></g><!--link Active to Paused--><g class="link" data-entity-1="ent0006" data-entity-2="ent0013" id="lnk14" data-source-line="10" data-link-type="dependency"><path d="M499.08,388.7 C487.38,397.71 474.7,408.89 465.19,421 C454.13,435.08 447.352,448.7 441.542,463.18" style="stroke:#181818;stroke-width:1;" fill="none" id="Active-to-Paused"/><polygon points="439.68,467.82,446.744,460.957,441.542,463.18,439.319,457.978,439.68,467.82" fill="#181818" style="stroke:#181818;stroke-width:1;stroke-linejoin:miter;stroke-miterlimit:10;"/><text x="466.19" y="434.067" fill="#000" font-size="13" textLength="102.654">Investor Pauses</text></g><!--link Paused to Active--><g class="link" data-entity-1="ent0013" data-entity-2="ent0006" id="lnk15" data-source-line="11" data-link-type="dependency"><path d="M395.5,482.79 C357.94,471.34 307.12,449.75 329.19,421 C349.81,394.15 442.634,378.425 494.214,371.505" style="stroke:#181818;stroke-width:1;" fill="none" id="Paused-to-Active"/><polygon points="499.17,370.84,489.718,368.072,494.214,371.505,490.782,376.001,499.17,370.84" fill="#181818" style="stroke:#181818;stroke-width:1;stroke-linejoin:miter;stroke-miterlimit:10;"/><text x="330.19" y="434.067" fill="#000" font-size="13" textLength="116.543">Investor Resumes</text></g><!--link Active to Completed--><g class="link" data-entity-1="ent0006" data-entity-2="ent0016" id="lnk17" data-source-line="13" data-link-type="dependency"><path d="M563.4,368.97 C651.99,374.7 897.71,392.76 973.19,421 C1001.84,431.72 1026.426,448.606 1046.486,464.656" style="stroke:#181818;stroke-width:1;" fill="none" id="Active-to-Completed"/><polygon points="1050.39,467.78,1045.861,459.034,1046.486,464.656,1040.864,465.281,1050.39,467.78" fill="#181818" style="stroke:#181818;stroke-width:1;stroke-linejoin:miter;stroke-miterlimit:10;"/><text x="1008.19" y="434.067" fill="#000" font-size="13" textLength="94.713">Term Reached</text></g><!--link Completed to Redeemed--><g class="link" data-entity-1="ent0016" data-entity-2="ent0018" id="lnk19" data-source-line="14" data-link-type="dependency"><path d="M1029.63,511.98 C1023.77,514.05 1017.86,516.1 1012.19,518 C913.05,551.22 800.509,584.816 736.179,603.636" style="stroke:#181818;stroke-width:1;" fill="none" id="Completed-to-Redeemed"/><polygon points="731.38,605.04,741.141,606.352,736.179,603.636,738.895,598.674,731.38,605.04" fill="#181818" style="stroke:#181818;stroke-width:1;stroke-linejoin:miter;stroke-miterlimit:10;"/><text x="913.19" y="561.067" fill="#000" font-size="13" textLength="117.781">Investor Redeems</text></g><!--link Active to Expired--><g class="link" data-entity-1="ent0006" data-entity-2="ent0020" id="lnk21" data-source-line="16" data-link-type="dependency"><path d="M555.57,391.28 C562.66,399.93 569.49,410.22 573.19,421 C593.96,481.54 597.41,505.76 573.19,565 C568.62,576.19 564.061,582.81 555.521,591.18" style="stroke:#181818;stroke-width:1;" fill="none" id="Active-to-Expired"/><polygon points="551.95,594.68,561.177,591.237,555.521,591.18,555.578,585.524,551.95,594.68" fill="#181818" style="stroke:#181818;stroke-width:1;stroke-linejoin:miter;stroke-miterlimit:10;"/><text x="591.19" y="497.567" fill="#000" font-size="13" textLength="200.059">Term Expired without Renewal</text></g><!--link Paused to Expired--><g class="link" data-entity-1="ent0013" data-entity-2="ent0020" id="lnk22" data-source-line="17" data-link-type="dependency"><path d="M430.3,518.35 C430.84,532.88 433.52,551.15 442.19,565 C451.98,580.63 463.832,590.382 478.902,599.262" style="stroke:#181818;stroke-width:1;" fill="none" id="Paused-to-Expired"/><polygon points="483.21,601.8,477.487,593.785,478.902,599.262,473.425,600.677,483.21,601.8" fill="#181818" style="stroke:#181818;stroke-width:1;stroke-linejoin:miter;stroke-miterlimit:10;"/><text x="443.19" y="561.067" fill="#000" font-size="13" textLength="125.868">Extended Inactivity</text></g><!--link Active to Cancelled--><g class="link" data-entity-1="ent0006" data-entity-2="ent0008" id="lnk23" data-source-line="19" data-link-type="dependency"><path d="M498.96,369.7 C455.09,374.52 375.28,387.5 316.19,421 C290.49,435.57 280.68,440.78 269.19,468 C251.61,509.67 255.968,558.811 261.238,589.651" style="stroke:#181818;stroke-width:1;" fill="none" id="Active-to-Cancelled"/><polygon points="262.08,594.58,264.507,585.035,261.238,589.651,256.621,586.382,262.08,594.58" fill="#181818" style="stroke:#181818;stroke-width:1;stroke-linejoin:miter;stroke-miterlimit:10;"/><text x="270.19" y="497.567" fill="#000" font-size="13" textLength="107.878">Investor Cancels</text></g><!--link Paused to Cancelled--><g class="link" data-entity-1="ent0013" data-entity-2="ent0008" id="lnk24" data-source-line="20" data-link-type="dependency"><path d="M395.45,505.76 C371.79,514.76 341.04,528.88 318.19,548 C302.71,560.95 292.145,575.336 283.075,590.276" style="stroke:#181818;stroke-width:1;" fill="none" id="Paused-to-Cancelled"/><polygon points="280.48,594.55,288.57,588.933,283.075,590.276,281.731,584.781,280.48,594.55" fill="#181818" style="stroke:#181818;stroke-width:1;stroke-linejoin:miter;stroke-miterlimit:10;"/><text x="319.19" y="561.067" fill="#000" font-size="13" textLength="107.878">Investor Cancels</text></g><!--link Redeemed to *end*--><g class="link" data-entity-1="ent0018" data-entity-2="ent0025" id="lnk26" data-source-line="22" data-link-type="dependency"><path d="M641.22,645.46 C603.48,667.46 555.16,695.622 533.94,707.992" style="stroke:#181818;stroke-width:1;" fill="none" id="Redeemed-to-*end*"/><polygon points="529.62,710.51,539.41,709.433,533.94,707.992,535.381,702.522,529.62,710.51" fill="#181818" style="stroke:#181818;stroke-width:1;stroke-linejoin:miter;stroke-miterlimit:10;"/></g><!--link Expired to *end*--><g class="link" data-entity-1="ent0020" data-entity-2="ent0025" id="lnk27" data-source-line="23" data-link-type="dependency"><path d="M520.19,645.46 C520.19,665.04 520.19,686.49 520.19,700.8" style="stroke:#181818;stroke-width:1;" fill="none" id="Expired-to-*end*"/><polygon points="520.19,705.8,524.19,696.8,520.19,700.8,516.19,696.8,520.19,705.8" fill="#181818" style="stroke:#181818;stroke-width:1;stroke-linejoin:miter;stroke-miterlimit:10;"/></g><!--link Cancelled to *end*--><g class="link" data-entity-1="ent0008" data-entity-2="ent0025" id="lnk28" data-source-line="24" data-link-type="dependency"><path d="M311.84,637.77 C372.56,660.56 472.679,698.163 505.429,710.453" style="stroke:#181818;stroke-width:1;" fill="none" id="Cancelled-to-*end*"/><polygon points="510.11,712.21,503.089,705.303,505.429,710.453,500.278,712.793,510.11,712.21" fill="#181818" style="stroke:#181818;stroke-width:1;stroke-linejoin:miter;stroke-miterlimit:10;"/></g><?plantuml-src VL5DQyCm3BtxL-HSABllC2XP1paCGkYjzE0bsYAmvUB8RVFl9-VRe-mcFRttz6IVTvTilt_BSW-QeL5gAWQm16gGVahTMo3ENhEvAWWP1_uVIbGTQiORRDYves_qzZaxrrI3CR9n5NneZC1BTa8BBh1IasSKV3hYrlHYoXw_0gCZaIRjUm3rZ9QaIoOLr21masmgTUY6N0NTe6FdHwHJqo2nMpWLTC4AQUkKEtirm8FP2RmLagvRMRSE8gs21i2cAqSijJi-hkXNixcz8xVoMY8Xk6kpZRagZW-MJv2o81qTaViqwkO_bX0Zc1p-BqyjbqJgUNTHSu2vN-KJyWi0?></g></svg>