<svg xmlns="http://www.w3.org/2000/svg" xmlns:xlink="http://www.w3.org/1999/xlink" version="1.1" data-diagram-type="SEQUENCE" style="width:1053px;height:762px;background:#FFFFFF;" width="1053px" height="762px" viewBox="0 0 1053 762" zoomAndPan="magnify" preserveAspectRatio="none" contentStyleType="text/css"><?plantuml 1.2026.7beta8?><defs/><g font-family="sans-serif" lengthAdjust="spacing"><g><title>Investor</title><rect x="38.002" y="86.297" width="8" height="589.195" fill="#000" fill-opacity="0"/><line x1="41.502" y1="86.297" x2="41.502" y2="675.492" style="stroke:#181818;stroke-width:0.5;stroke-dasharray:5,5;"/></g><g><title>Web Application</title><rect x="285" y="86.297" width="8" height="589.195" fill="#000" fill-opacity="0"/><line x1="288.5" y1="86.297" x2="288.5" y2="675.492" style="stroke:#181818;stroke-width:0.5;stroke-dasharray:5,5;"/></g><g><title></title><rect x="283.5" y="115.43" width="10" height="550.063" fill="#FFF" style="stroke:#181818;stroke-width:1;"/></g><g><title>Investment Service</title><rect x="463.684" y="86.297" width="8" height="589.195" fill="#000" fill-opacity="0"/><line x1="467.184" y1="86.297" x2="467.184" y2="675.492" style="stroke:#181818;stroke-width:0.5;stroke-dasharray:5,5;"/></g><g><title></title><rect x="462.184" y="144.563" width="10" height="520.93" fill="#FFF" style="stroke:#181818;stroke-width:1;"/></g><g><title>Payment Gateway</title><rect x="641.302" y="86.297" width="8" height="589.195" fill="#000" fill-opacity="0"/><line x1="644.802" y1="86.297" x2="644.802" y2="675.492" style="stroke:#181818;stroke-width:0.5;stroke-dasharray:5,5;"/></g><g><title></title><rect x="639.802" y="231.961" width="10" height="60.266" fill="#FFF" style="stroke:#181818;stroke-width:1;"/></g><g><title>Investment Database</title><rect x="800.683" y="86.297" width="8" height="589.195" fill="#000" fill-opacity="0"/><line x1="804.183" y1="86.297" x2="804.183" y2="675.492" style="stroke:#181818;stroke-width:0.5;stroke-dasharray:5,5;"/></g><g><title></title><rect x="799.183" y="173.695" width="10" height="29.133" fill="#FFF" style="stroke:#181818;stroke-width:1;"/></g><g><title></title><rect x="799.183" y="321.359" width="10" height="29.133" fill="#FFF" style="stroke:#181818;stroke-width:1;"/></g><g><title></title><rect x="799.183" y="379.625" width="10" height="29.133" fill="#FFF" style="stroke:#181818;stroke-width:1;"/></g><g><title>Notification Service</title><rect x="964.217" y="86.297" width="8" height="589.195" fill="#000" fill-opacity="0"/><line x1="967.717" y1="86.297" x2="967.717" y2="675.492" style="stroke:#181818;stroke-width:0.5;stroke-dasharray:5,5;"/></g><g><title></title><rect x="962.717" y="437.891" width="10" height="29.133" fill="#FFF" style="stroke:#181818;stroke-width:1;"/></g><text x="10" y="82.995" fill="#000" font-size="14" textLength="57.005">Investor</text><ellipse cx="41.502" cy="18.5" rx="8" ry="8" fill="#E2E2F0" style="stroke:#181818;stroke-width:0.5;"/><path d="M41.502,26.5 L41.502,53.5 M28.502,34.5 L54.502,34.5 M41.502,53.5 L28.502,68.5 M41.502,53.5 L54.502,68.5" style="stroke:#181818;stroke-width:0.5;" fill="none"/><rect x="224.492" y="55" width="128.017" height="30.297" fill="#E2E2F0" style="stroke:#181818;stroke-width:0.5;" rx="2.5" ry="2.5"/><text x="231.492" y="74.995" fill="#000" font-size="14" textLength="114.017">Web Application</text><rect x="392.44" y="55" width="149.488" height="30.297" fill="#E2E2F0" style="stroke:#181818;stroke-width:0.5;" rx="2.5" ry="2.5"/><text x="399.44" y="74.995" fill="#000" font-size="14" textLength="135.488">Investment Service</text><rect x="573.694" y="55" width="142.215" height="30.297" fill="#E2E2F0" style="stroke:#181818;stroke-width:0.5;" rx="2.5" ry="2.5"/><text x="580.694" y="74.995" fill="#000" font-size="14" textLength="128.215">Payment Gateway</text><text x="725.909" y="82.995" fill="#000" font-size="14" textLength="150.548">Investment Database</text><path d="M786.183,34 C786.183,24 804.183,24 804.183,24 C804.183,24 822.183,24 822.183,34 L822.183,60 C822.183,70 804.183,70 804.183,70 C804.183,70 786.183,70 786.183,60 L786.183,34" style="stroke:#181818;stroke-width:0.5;" fill="#E2E2F0"/><path d="M786.183,34 C786.183,44 804.183,44 804.183,44 C804.183,44 822.183,44 822.183,34" style="stroke:#181818;stroke-width:0.5;" fill="none"/><rect x="892.457" y="55" width="150.521" height="30.297" fill="#E2E2F0" style="stroke:#181818;stroke-width:0.5;" rx="2.5" ry="2.5"/><text x="899.457" y="74.995" fill="#000" font-size="14" textLength="136.521">Notification Service</text><text x="10" y="688.487" fill="#000" font-size="14" textLength="57.005">Investor</text><ellipse cx="41.502" cy="700.289" rx="8" ry="8" fill="#E2E2F0" style="stroke:#181818;stroke-width:0.5;"/><path d="M41.502,708.289 L41.502,735.289 M28.502,716.289 L54.502,716.289 M41.502,735.289 L28.502,750.289 M41.502,735.289 L54.502,750.289" style="stroke:#181818;stroke-width:0.5;" fill="none"/><rect x="224.492" y="675.492" width="128.017" height="30.297" fill="#E2E2F0" style="stroke:#181818;stroke-width:0.5;" rx="2.5" ry="2.5"/><text x="231.492" y="695.487" fill="#000" font-size="14" textLength="114.017">Web Application</text><rect x="392.44" y="675.492" width="149.488" height="30.297" fill="#E2E2F0" style="stroke:#181818;stroke-width:0.5;" rx="2.5" ry="2.5"/><text x="399.44" y="695.487" fill="#000" font-size="14" textLength="135.488">Investment Service</text><rect x="573.694" y="675.492" width="142.215" height="30.297" fill="#E2E2F0" style="stroke:#181818;stroke-width:0.5;" rx="2.5" ry="2.5"/><text x="580.694" y="695.487" fill="#000" font-size="14" textLength="128.215">Payment Gateway</text><text x="725.909" y="688.487" fill="#000" font-size="14" textLength="150.548">Investment Database</text><path d="M786.183,701.789 C786.183,691.789 804.183,691.789 804.183,691.789 C804.183,691.789 822.183,691.789 822.183,701.789 L822.183,727.789 C822.183,737.789 804.183,737.789 804.183,737.789 C804.183,737.789 786.183,737.789 786.183,727.789 L786.183,701.789" style="stroke:#181818;stroke-width:0.5;" fill="#E2E2F0"/><path d="M786.183,701.789 C786.183,711.789 804.183,711.789 804.183,711.789 C804.183,711.789 822.183,711.789 822.183,701.789" style="stroke:#181818;stroke-width:0.5;" fill="none"/><rect x="892.457" y="675.492" width="150.521" height="30.297" fill="#E2E2F0" style="stroke:#181818;stroke-width:0.5;" rx="2.5" ry="2.5"/><text x="899.457" y="695.487" fill="#000" font-size="14" textLength="136.521">Notification Service</text><polygon points="271.5,111.43,281.5,115.43,271.5,119.43,275.5,115.43" fill="#181818" style="stroke:#181818;stroke-width:1;stroke-linejoin:miter;stroke-miterlimit:10;"/><line x1="41.502" y1="115.43" x2="277.5" y2="115.43" style="stroke:#181818;stroke-width:1;"/><text x="48.502" y="110.364" fill="#000" font-size="13" textLength="149.659">Select Investment Plan</text><polygon points="450.184,140.563,460.184,144.563,450.184,148.563,454.184,144.563" fill="#181818" style="stroke:#181818;stroke-width:1;stroke-linejoin:miter;stroke-miterlimit:10;"/><line x1="293.5" y1="144.563" x2="456.184" y2="144.563" style="stroke:#181818;stroke-width:1;"/><text x="300.5" y="139.497" fill="#000" font-size="13" textLength="149.684">Request plan purchase</text><polygon points="787.183,169.695,797.183,173.695,787.183,177.695,791.183,173.695" fill="#181818" style="stroke:#181818;stroke-width:1;stroke-linejoin:miter;stroke-miterlimit:10;"/><line x1="472.184" y1="173.695" x2="793.183" y2="173.695" style="stroke:#181818;stroke-width:1;"/><text x="479.184" y="168.629" fill="#000" font-size="13" textLength="173.335">Validate investor eligibility</text><polygon points="483.184,198.828,473.184,202.828,483.184,206.828,479.184,202.828" fill="#181818" style="stroke:#181818;stroke-width:1;stroke-linejoin:miter;stroke-miterlimit:10;"/><line x1="477.184" y1="202.828" x2="798.183" y2="202.828" style="stroke:#181818;stroke-width:1;stroke-dasharray:2,2;"/><text x="489.184" y="197.762" fill="#000" font-size="13" textLength="129.099">Eligibility confirmed</text><polygon points="627.802,227.961,637.802,231.961,627.802,235.961,631.802,231.961" fill="#181818" style="stroke:#181818;stroke-width:1;stroke-linejoin:miter;stroke-miterlimit:10;"/><line x1="472.184" y1="231.961" x2="633.802" y2="231.961" style="stroke:#181818;stroke-width:1;"/><text x="479.184" y="226.895" fill="#000" font-size="13" textLength="148.618">Send payment request</text><path d="M25.502,243.961 L89.945,243.961 L89.945,251.094 L79.945,261.094 L25.502,261.094 L25.502,243.961" style="stroke:#000;stroke-width:1.5;" fill="#EEE"/><rect x="25.502" y="243.961" width="963.215" height="407.531" fill="none" style="stroke:#000;stroke-width:1.5;"/><text x="40.502" y="257.028" fill="#000" font-size="13" textLength="19.443" font-weight="700">alt</text><text x="104.945" y="256.171" fill="#000" font-size="11" textLength="134.288" font-weight="700">[Payment Successful]</text><line x1="25.502" y1="544.289" x2="988.717" y2="544.289" style="stroke:#000;stroke-width:1;stroke-dasharray:2,2;"/><text x="30.502" y="556.5" fill="#000" font-size="11" textLength="106.364" font-weight="700">[Payment Failed]</text><polygon points="483.184,288.227,473.184,292.227,483.184,296.227,479.184,292.227" fill="#181818" style="stroke:#181818;stroke-width:1;stroke-linejoin:miter;stroke-miterlimit:10;"/><line x1="477.184" y1="292.227" x2="638.802" y2="292.227" style="stroke:#181818;stroke-width:1;stroke-dasharray:2,2;"/><text x="489.184" y="287.161" fill="#000" font-size="13" textLength="127.417">Payment confirmed</text><polygon points="787.183,317.359,797.183,321.359,787.183,325.359,791.183,321.359" fill="#181818" style="stroke:#181818;stroke-width:1;stroke-linejoin:miter;stroke-miterlimit:10;"/><line x1="472.184" y1="321.359" x2="793.183" y2="321.359" style="stroke:#181818;stroke-width:1;"/><text x="479.184" y="316.293" fill="#000" font-size="13" textLength="167.197">Create investment record</text><polygon points="483.184,346.492,473.184,350.492,483.184,354.492,479.184,350.492" fill="#181818" style="stroke:#181818;stroke-width:1;stroke-linejoin:miter;stroke-miterlimit:10;"/><line x1="477.184" y1="350.492" x2="798.183" y2="350.492" style="stroke:#181818;stroke-width:1;stroke-dasharray:2,2;"/><text x="489.184" y="345.426" fill="#000" font-size="13" textLength="127.569">Investment created</text><polygon points="787.183,375.625,797.183,379.625,787.183,383.625,791.183,379.625" fill="#181818" style="stroke:#181818;stroke-width:1;stroke-linejoin:miter;stroke-miterlimit:10;"/><line x1="472.184" y1="379.625" x2="793.183" y2="379.625" style="stroke:#181818;stroke-width:1;"/><text x="479.184" y="374.559" fill="#000" font-size="13" textLength="105.568">Update portfolio</text><polygon points="483.184,404.758,473.184,408.758,483.184,412.758,479.184,408.758" fill="#181818" style="stroke:#181818;stroke-width:1;stroke-linejoin:miter;stroke-miterlimit:10;"/><line x1="477.184" y1="408.758" x2="798.183" y2="408.758" style="stroke:#181818;stroke-width:1;stroke-dasharray:2,2;"/><text x="489.184" y="403.692" fill="#000" font-size="13" textLength="112.131">Portfolio updated</text><polygon points="950.717,433.891,960.717,437.891,950.717,441.891,954.717,437.891" fill="#181818" style="stroke:#181818;stroke-width:1;stroke-linejoin:miter;stroke-miterlimit:10;"/><line x1="472.184" y1="437.891" x2="956.717" y2="437.891" style="stroke:#181818;stroke-width:1;"/><text x="479.184" y="432.825" fill="#000" font-size="13" textLength="196.517">Send confirmation notification</text><polygon points="483.184,463.023,473.184,467.023,483.184,471.023,479.184,467.023" fill="#181818" style="stroke:#181818;stroke-width:1;stroke-linejoin:miter;stroke-miterlimit:10;"/><line x1="477.184" y1="467.023" x2="961.717" y2="467.023" style="stroke:#181818;stroke-width:1;stroke-dasharray:2,2;"/><text x="489.184" y="461.958" fill="#000" font-size="13" textLength="106.831">Notification sent</text><polygon points="304.5,492.156,294.5,496.156,304.5,500.156,300.5,496.156" fill="#181818" style="stroke:#181818;stroke-width:1;stroke-linejoin:miter;stroke-miterlimit:10;"/><line x1="298.5" y1="496.156" x2="461.184" y2="496.156" style="stroke:#181818;stroke-width:1;stroke-dasharray:2,2;"/><text x="310.5" y="491.09" fill="#000" font-size="13" textLength="130.958">Purchase successful</text><polygon points="52.502,521.289,42.502,525.289,52.502,529.289,48.502,525.289" fill="#181818" style="stroke:#181818;stroke-width:1;stroke-linejoin:miter;stroke-miterlimit:10;"/><line x1="46.502" y1="525.289" x2="282.5" y2="525.289" style="stroke:#181818;stroke-width:1;stroke-dasharray:2,2;"/><text x="58.502" y="520.223" fill="#000" font-size="13" textLength="134.456">Display confirmation</text><polygon points="483.184,581.227,473.184,585.227,483.184,589.227,479.184,585.227" fill="#181818" style="stroke:#181818;stroke-width:1;stroke-linejoin:miter;stroke-miterlimit:10;"/><line x1="477.184" y1="585.227" x2="643.802" y2="585.227" style="stroke:#181818;stroke-width:1;stroke-dasharray:2,2;"/><text x="489.184" y="580.161" fill="#000" font-size="13" textLength="116.74">Payment declined</text><polygon points="304.5,610.359,294.5,614.359,304.5,618.359,300.5,614.359" fill="#181818" style="stroke:#181818;stroke-width:1;stroke-linejoin:miter;stroke-miterlimit:10;"/><line x1="298.5" y1="614.359" x2="461.184" y2="614.359" style="stroke:#181818;stroke-width:1;stroke-dasharray:2,2;"/><text x="310.5" y="609.293" fill="#000" font-size="13" textLength="99.696">Purchase failed</text><polygon points="52.502,639.492,42.502,643.492,52.502,647.492,48.502,643.492" fill="#181818" style="stroke:#181818;stroke-width:1;stroke-linejoin:miter;stroke-miterlimit:10;"/><line x1="46.502" y1="643.492" x2="282.5" y2="643.492" style="stroke:#181818;stroke-width:1;stroke-dasharray:2,2;"/><text x="58.502" y="638.426" fill="#000" font-size="13" textLength="217.998">Display payment failure message</text><?plantuml-src ZLDDJyCm3BtdLrZSzmTsG68K9YvJHGMSlTG5IraRqdHe_nudJTM4Bx7BMk_Pxptx3RKV73pqPnhbGLbqdZLRx3rSlT0HRgmrhD7pq5y1ZY2r4ZItdaYU6t9drXHnKcxEkeJMU8cuFNhwm4l4rNlLeiSZZbJCgb8nWgfTEUWmUEwIgeBrq2YrU87DTL2x5O0XxI4RNXli5MhFPr4IBQdWLHfcsLjufFT9q6052NPo-asqh2t9dPg_GsErsy8p6cx3pxn88CElV6J3_h8sYvjg1vkCxMw5WHxwZjs9MjLItf9nrVjWgc_1feMwMUrA8LjLQCHe0ZIJrZIEtMGKoAVU5_GBQgKEe8m-Z0kbqkwjezLiqg47DtVdqiFx5yVPCNGSyuqpMFxE-MJZWktWV3SO7lx3LIzWc6BtFwWEJTfmMicSj3wBNKaikGllXwOWBc8wYjUln26kEV6Is3e53iRoRZ6aCq7CrnOg7YMYbqAdKcIaTxdgFR99dd-vUqlQSF_ZsVzKrwsJVrUsP3I09qTm4Z_uIagsg_A8fxzKLf6Pdm00?></g></svg>