<svg xmlns="http://www.w3.org/2000/svg" xmlns:xlink="http://www.w3.org/1999/xlink" version="1.1" data-diagram-type="DESCRIPTION" style="width:1793px;height:558px;background:#FFFFFF;" width="1793px" height="558px" viewBox="0 0 1793 558" zoomAndPan="magnify" preserveAspectRatio="none" contentStyleType="text/css"><?plantuml 1.2026.7beta8?><defs/><g font-family="sans-serif" lengthAdjust="spacing"><!--cluster Frontend--><g class="cluster" data-qualified-name="Frontend" id="ent0001" data-source-line="1"><path d="M631.5,6 L704.729,6 A3.75,3.75 0 0 1 707.229,8.5 L714.229,28.297 L856.5,28.297 A2.5,2.5 0 0 1 859,30.797 L859,116.8 A2.5,2.5 0 0 1 856.5,119.3 L631.5,119.3 A2.5,2.5 0 0 1 629,116.8 L629,8.5 A2.5,2.5 0 0 1 631.5,6" style="stroke:#000;stroke-width:1.5;" fill="none"/><line x1="629" y1="28.297" x2="714.229" y2="28.297" style="stroke:#000;stroke-width:1.5;"/><text x="633" y="20.995" fill="#000" font-size="14" textLength="72.229" font-weight="700">Frontend</text></g><!--cluster Backend--><g class="cluster" data-qualified-name="Backend" id="ent0003" data-source-line="5"><path d="M149.5,176.3 L217.711,176.3 A3.75,3.75 0 0 1 220.211,178.8 L227.211,198.597 L1363.5,198.597 A2.5,2.5 0 0 1 1366,201.097 L1366,394.39 A2.5,2.5 0 0 1 1363.5,396.89 L149.5,396.89 A2.5,2.5 0 0 1 147,394.39 L147,178.8 A2.5,2.5 0 0 1 149.5,176.3" style="stroke:#000;stroke-width:1.5;" fill="none"/><line x1="147" y1="198.597" x2="227.211" y2="198.597" style="stroke:#000;stroke-width:1.5;"/><text x="151" y="191.295" fill="#000" font-size="14" textLength="67.211" font-weight="700">Backend</text></g><!--cluster Database--><g class="cluster" data-qualified-name="Database" id="ent0011" data-source-line="15"><path d="M1453.5,446.39 L1529.005,446.39 A3.75,3.75 0 0 1 1531.505,448.89 L1538.505,468.687 L1580.5,468.687 A2.5,2.5 0 0 1 1583,471.187 L1583,540.19 A2.5,2.5 0 0 1 1580.5,542.69 L1453.5,542.69 A2.5,2.5 0 0 1 1451,540.19 L1451,448.89 A2.5,2.5 0 0 1 1453.5,446.39" style="stroke:#000;stroke-width:1.5;" fill="none"/><line x1="1451" y1="468.687" x2="1538.505" y2="468.687" style="stroke:#000;stroke-width:1.5;"/><text x="1455" y="461.385" fill="#000" font-size="14" textLength="74.505" font-weight="700">Database</text></g><!--cluster External Systems--><g class="cluster" data-qualified-name="External Systems" id="ent0013" data-source-line="19"><path d="M8.5,445.89 L146.923,445.89 A3.75,3.75 0 0 1 149.423,448.39 L156.423,468.187 L774.5,468.187 A2.5,2.5 0 0 1 777,470.687 L777,540.69 A2.5,2.5 0 0 1 774.5,543.19 L8.5,543.19 A2.5,2.5 0 0 1 6,540.69 L6,448.39 A2.5,2.5 0 0 1 8.5,445.89" style="stroke:#000;stroke-width:1.5;" fill="none"/><line x1="6" y1="468.187" x2="156.423" y2="468.187" style="stroke:#000;stroke-width:1.5;"/><text x="10" y="460.885" fill="#000" font-size="14" textLength="137.423" font-weight="700">External Systems</text></g><!--entity Front--><g class="entity" data-qualified-name="Frontend.Front" id="ent0002" data-source-line="2"><rect x="652.61" y="49" width="162.78" height="46.297" fill="#F1F1F1" style="stroke:#181818;stroke-width:0.5;" rx="2.5" ry="2.5"/><rect x="795.39" y="54" width="15" height="10" fill="#F1F1F1" style="stroke:#181818;stroke-width:0.5;"/><rect x="793.39" y="56" width="4" height="2" fill="#F1F1F1" style="stroke:#181818;stroke-width:0.5;"/><rect x="793.39" y="60" width="4" height="2" fill="#F1F1F1" style="stroke:#181818;stroke-width:0.5;"/><text x="667.61" y="81.995" fill="#000" font-size="14" textLength="122.78">React Application</text></g><!--entity Auth--><g class="entity" data-qualified-name="Backend.Auth" id="ent0004" data-source-line="6"><rect x="1151.52" y="211.3" width="198.963" height="46.297" fill="#F1F1F1" style="stroke:#181818;stroke-width:0.5;" rx="2.5" ry="2.5"/><rect x="1330.483" y="216.3" width="15" height="10" fill="#F1F1F1" style="stroke:#181818;stroke-width:0.5;"/><rect x="1328.483" y="218.3" width="4" height="2" fill="#F1F1F1" style="stroke:#181818;stroke-width:0.5;"/><rect x="1328.483" y="222.3" width="4" height="2" fill="#F1F1F1" style="stroke:#181818;stroke-width:0.5;"/><text x="1166.52" y="244.295" fill="#000" font-size="14" textLength="158.963">Authentication Service</text></g><!--entity InvSvc--><g class="entity" data-qualified-name="Backend.InvSvc" id="ent0005" data-source-line="7"><rect x="372.26" y="211.3" width="175.488" height="46.297" fill="#F1F1F1" style="stroke:#181818;stroke-width:0.5;" rx="2.5" ry="2.5"/><rect x="527.748" y="216.3" width="15" height="10" fill="#F1F1F1" style="stroke:#181818;stroke-width:0.5;"/><rect x="525.748" y="218.3" width="4" height="2" fill="#F1F1F1" style="stroke:#181818;stroke-width:0.5;"/><rect x="525.748" y="222.3" width="4" height="2" fill="#F1F1F1" style="stroke:#181818;stroke-width:0.5;"/><text x="387.26" y="244.295" fill="#000" font-size="14" textLength="135.488">Investment Service</text></g><!--entity FacSvc--><g class="entity" data-qualified-name="Backend.FacSvc" id="ent0006" data-source-line="8"><rect x="583.02" y="211.3" width="145.964" height="46.297" fill="#F1F1F1" style="stroke:#181818;stroke-width:0.5;" rx="2.5" ry="2.5"/><rect x="708.984" y="216.3" width="15" height="10" fill="#F1F1F1" style="stroke:#181818;stroke-width:0.5;"/><rect x="706.984" y="218.3" width="4" height="2" fill="#F1F1F1" style="stroke:#181818;stroke-width:0.5;"/><rect x="706.984" y="222.3" width="4" height="2" fill="#F1F1F1" style="stroke:#181818;stroke-width:0.5;"/><text x="598.02" y="244.295" fill="#000" font-size="14" textLength="105.964">Facility Service</text></g><!--entity BookSvc--><g class="entity" data-qualified-name="Backend.BookSvc" id="ent0007" data-source-line="9"><rect x="763.66" y="211.3" width="152.684" height="46.297" fill="#F1F1F1" style="stroke:#181818;stroke-width:0.5;" rx="2.5" ry="2.5"/><rect x="896.344" y="216.3" width="15" height="10" fill="#F1F1F1" style="stroke:#181818;stroke-width:0.5;"/><rect x="894.344" y="218.3" width="4" height="2" fill="#F1F1F1" style="stroke:#181818;stroke-width:0.5;"/><rect x="894.344" y="222.3" width="4" height="2" fill="#F1F1F1" style="stroke:#181818;stroke-width:0.5;"/><text x="778.66" y="244.295" fill="#000" font-size="14" textLength="112.684">Booking Service</text></g><!--entity PaySvc--><g class="entity" data-qualified-name="Backend.PaySvc" id="ent0008" data-source-line="10"><rect x="907.94" y="334.6" width="158.111" height="46.297" fill="#F1F1F1" style="stroke:#181818;stroke-width:0.5;" rx="2.5" ry="2.5"/><rect x="1046.051" y="339.6" width="15" height="10" fill="#F1F1F1" style="stroke:#181818;stroke-width:0.5;"/><rect x="1044.051" y="341.6" width="4" height="2" fill="#F1F1F1" style="stroke:#181818;stroke-width:0.5;"/><rect x="1044.051" y="345.6" width="4" height="2" fill="#F1F1F1" style="stroke:#181818;stroke-width:0.5;"/><text x="922.94" y="367.595" fill="#000" font-size="14" textLength="118.111">Payment Service</text></g><!--entity NotifSvc--><g class="entity" data-qualified-name="Backend.NotifSvc" id="ent0009" data-source-line="11"><rect x="445.74" y="334.6" width="176.521" height="46.297" fill="#F1F1F1" style="stroke:#181818;stroke-width:0.5;" rx="2.5" ry="2.5"/><rect x="602.261" y="339.6" width="15" height="10" fill="#F1F1F1" style="stroke:#181818;stroke-width:0.5;"/><rect x="600.261" y="341.6" width="4" height="2" fill="#F1F1F1" style="stroke:#181818;stroke-width:0.5;"/><rect x="600.261" y="345.6" width="4" height="2" fill="#F1F1F1" style="stroke:#181818;stroke-width:0.5;"/><text x="460.74" y="367.595" fill="#000" font-size="14" textLength="136.521">Notification Service</text></g><!--entity RepSvc--><g class="entity" data-qualified-name="Backend.RepSvc" id="ent0010" data-source-line="12"><rect x="951.56" y="211.3" width="164.879" height="46.297" fill="#F1F1F1" style="stroke:#181818;stroke-width:0.5;" rx="2.5" ry="2.5"/><rect x="1096.439" y="216.3" width="15" height="10" fill="#F1F1F1" style="stroke:#181818;stroke-width:0.5;"/><rect x="1094.439" y="218.3" width="4" height="2" fill="#F1F1F1" style="stroke:#181818;stroke-width:0.5;"/><rect x="1094.439" y="222.3" width="4" height="2" fill="#F1F1F1" style="stroke:#181818;stroke-width:0.5;"/><text x="966.56" y="244.295" fill="#000" font-size="14" textLength="124.879">Reporting Service</text></g><!--entity DB--><g class="entity" data-qualified-name="Database.DB" id="ent0012" data-source-line="16"><path d="M1466.62,491.39 C1466.62,481.39 1516.996,481.39 1516.996,481.39 C1516.996,481.39 1567.373,481.39 1567.373,491.39 L1567.373,516.687 C1567.373,526.687 1516.996,526.687 1516.996,526.687 C1516.996,526.687 1466.62,526.687 1466.62,516.687 L1466.62,491.39" style="stroke:#181818;stroke-width:0.5;" fill="#F1F1F1"/><path d="M1466.62,491.39 C1466.62,501.39 1516.996,501.39 1516.996,501.39 C1516.996,501.39 1567.373,501.39 1567.373,491.39" style="stroke:#181818;stroke-width:0.5;" fill="none"/><text x="1476.62" y="518.385" fill="#000" font-size="14" textLength="80.753">PostgreSQL</text></g><!--entity PG--><g class="entity" data-qualified-name="External Systems.PG" id="ent0014" data-source-line="20"><rect x="260.89" y="480.89" width="168.215" height="46.297" fill="#F1F1F1" style="stroke:#181818;stroke-width:0.5;" rx="2.5" ry="2.5"/><rect x="409.105" y="485.89" width="15" height="10" fill="#F1F1F1" style="stroke:#181818;stroke-width:0.5;"/><rect x="407.105" y="487.89" width="4" height="2" fill="#F1F1F1" style="stroke:#181818;stroke-width:0.5;"/><rect x="407.105" y="491.89" width="4" height="2" fill="#F1F1F1" style="stroke:#181818;stroke-width:0.5;"/><text x="275.89" y="513.885" fill="#000" font-size="14" textLength="128.215">Payment Gateway</text></g><!--entity Email--><g class="entity" data-qualified-name="External Systems.Email" id="ent0015" data-source-line="21"><rect x="464.48" y="480.89" width="135.033" height="46.297" fill="#F1F1F1" style="stroke:#181818;stroke-width:0.5;" rx="2.5" ry="2.5"/><rect x="579.513" y="485.89" width="15" height="10" fill="#F1F1F1" style="stroke:#181818;stroke-width:0.5;"/><rect x="577.513" y="487.89" width="4" height="2" fill="#F1F1F1" style="stroke:#181818;stroke-width:0.5;"/><rect x="577.513" y="491.89" width="4" height="2" fill="#F1F1F1" style="stroke:#181818;stroke-width:0.5;"/><text x="479.48" y="513.885" fill="#000" font-size="14" textLength="95.033">Email Service</text></g><!--entity SMS--><g class="entity" data-qualified-name="External Systems.SMS" id="ent0016" data-source-line="22"><rect x="634.98" y="480.89" width="126.044" height="46.297" fill="#F1F1F1" style="stroke:#181818;stroke-width:0.5;" rx="2.5" ry="2.5"/><rect x="741.024" y="485.89" width="15" height="10" fill="#F1F1F1" style="stroke:#181818;stroke-width:0.5;"/><rect x="739.024" y="487.89" width="4" height="2" fill="#F1F1F1" style="stroke:#181818;stroke-width:0.5;"/><rect x="739.024" y="491.89" width="4" height="2" fill="#F1F1F1" style="stroke:#181818;stroke-width:0.5;"/><text x="649.98" y="513.885" fill="#000" font-size="14" textLength="86.044">SMS Service</text></g><!--entity IDV--><g class="entity" data-qualified-name="External Systems.IDV" id="ent0017" data-source-line="23"><rect x="21.77" y="480.89" width="204.452" height="46.297" fill="#F1F1F1" style="stroke:#181818;stroke-width:0.5;" rx="2.5" ry="2.5"/><rect x="206.222" y="485.89" width="15" height="10" fill="#F1F1F1" style="stroke:#181818;stroke-width:0.5;"/><rect x="204.222" y="487.89" width="4" height="2" fill="#F1F1F1" style="stroke:#181818;stroke-width:0.5;"/><rect x="204.222" y="491.89" width="4" height="2" fill="#F1F1F1" style="stroke:#181818;stroke-width:0.5;"/><text x="36.77" y="513.885" fill="#000" font-size="14" textLength="164.452">Identity Verification API</text></g><!--link Frontend to Auth--><g class="link" data-entity-1="ent0001" data-entity-2="ent0004" id="lnk18" data-source-line="26" data-link-type="dependency"><path d="M859.321,75.341 C859.475,75.382 859.63,75.424 859.787,75.466 C864.825,76.813 871.887,78.726 880.595,81.152 C898.012,86.003 922.018,92.903 949.604,101.413 C1004.775,118.433 1074.265,141.895 1134,168.3 C1161.86,180.61 1187.541,194.826 1210.181,208.276" style="stroke:#181818;stroke-width:1;" fill="none" id="Frontend-to-Auth"/><polygon points="1214.48,210.83,1208.785,202.794,1210.181,208.276,1204.699,209.672,1214.48,210.83" fill="#181818" style="stroke:#181818;stroke-width:1;stroke-linejoin:miter;stroke-miterlimit:10;"/><text x="1112" y="156.367" fill="#000" font-size="13" textLength="29.783">uses</text></g><!--link Frontend to Auth--><g class="link" data-entity-1="ent0001" data-entity-2="ent0004" id="lnk38" data-source-line="75" data-link-type="dependency"><path d="M859.146,73.601 C859.305,73.611 859.467,73.622 859.63,73.632 C859.958,73.653 860.294,73.674 860.639,73.697 C866.155,74.056 873.871,74.626 883.351,75.498 C902.311,77.24 928.324,80.188 957.894,85.066 C1017.033,94.823 1090.395,112.3 1150,143.3 C1182.74,160.33 1209.953,186.664 1228.703,207.364" style="stroke:#181818;stroke-width:1;" fill="none" id="Frontend-to-Auth-1"/><polygon points="1232.06,211.07,1228.983,201.714,1228.703,207.364,1223.053,207.085,1232.06,211.07" fill="#181818" style="stroke:#181818;stroke-width:1;stroke-linejoin:miter;stroke-miterlimit:10;"/><text x="1176" y="156.367" fill="#000" font-size="13" textLength="29.783">uses</text></g><!--link Frontend to InvSvc--><g class="link" data-entity-1="ent0001" data-entity-2="ent0005" id="lnk19" data-source-line="27" data-link-type="dependency"><path d="M843.372,119.478 C843.277,119.677 843.182,119.875 843.086,120.073 C842.893,120.468 842.695,120.86 842.493,121.25 C842.089,122.03 841.666,122.798 841.224,123.553 C840.339,125.064 839.378,126.522 838.332,127.911 C836.242,130.691 833.815,133.196 831,135.3 C801.44,157.39 529.59,122.67 499,143.3 C476.52,158.46 467.85,184.647 463.8,206.047" style="stroke:#181818;stroke-width:1;" fill="none" id="Frontend-to-InvSvc"/><polygon points="462.87,210.96,468.474,202.861,463.8,206.047,460.613,201.373,462.87,210.96" fill="#181818" style="stroke:#181818;stroke-width:1;stroke-linejoin:miter;stroke-miterlimit:10;"/><text x="500" y="156.367" fill="#000" font-size="13" textLength="29.783">uses</text></g><!--link Frontend to InvSvc--><g class="link" data-entity-1="ent0001" data-entity-2="ent0005" id="lnk39" data-source-line="76" data-link-type="dependency"><path d="M843.324,119.419 C843.23,119.618 843.135,119.816 843.039,120.014 C842.846,120.409 842.649,120.803 842.448,121.193 C842.044,121.974 841.623,122.743 841.182,123.5 C840.3,125.014 839.342,126.476 838.3,127.871 C836.217,130.66 833.801,133.179 831,135.3 C811.86,149.8 638.24,137.26 615,143.3 C566.34,155.95 521.378,185.504 491.868,207.824" style="stroke:#181818;stroke-width:1;" fill="none" id="Frontend-to-InvSvc-1"/><polygon points="487.88,210.84,497.471,208.601,491.868,207.824,492.645,202.221,487.88,210.84" fill="#181818" style="stroke:#181818;stroke-width:1;stroke-linejoin:miter;stroke-miterlimit:10;"/><text x="616" y="156.367" fill="#000" font-size="13" textLength="29.783">uses</text></g><!--link Frontend to FacSvc--><g class="link" data-entity-1="ent0001" data-entity-2="ent0006" id="lnk20" data-source-line="28" data-link-type="dependency"><path d="M843.281,119.364 C843.188,119.564 843.093,119.762 842.996,119.96 C842.804,120.356 842.608,120.75 842.407,121.141 C842.004,121.923 841.584,122.694 841.144,123.452 C840.265,124.969 839.309,126.434 838.271,127.833 C836.195,130.631 833.789,133.163 831,135.3 C816.34,146.53 678.39,130.58 665,143.3 C647.1,160.31 647.008,185.418 650.198,206.118" style="stroke:#181818;stroke-width:1;" fill="none" id="Frontend-to-FacSvc"/><polygon points="650.96,211.06,653.543,201.556,650.198,206.118,645.636,202.774,650.96,211.06" fill="#181818" style="stroke:#181818;stroke-width:1;stroke-linejoin:miter;stroke-miterlimit:10;"/><text x="666" y="156.367" fill="#000" font-size="13" textLength="29.783">uses</text></g><!--link Frontend to FacSvc--><g class="link" data-entity-1="ent0001" data-entity-2="ent0006" id="lnk40" data-source-line="77" data-link-type="dependency"><path d="M842.711,119.598 C842.522,119.998 842.328,120.395 842.13,120.79 C841.733,121.579 841.32,122.359 840.888,123.127 C840.025,124.664 839.089,126.155 838.074,127.584 C836.046,130.442 833.704,133.055 831,135.3 C809.28,153.33 793.97,132.26 768,143.3 C731.48,158.83 700.615,186.264 679.815,207.544" style="stroke:#181818;stroke-width:1;" fill="none" id="Frontend-to-FacSvc-1"/><polygon points="676.32,211.12,685.471,207.48,679.815,207.544,679.75,201.888,676.32,211.12" fill="#181818" style="stroke:#181818;stroke-width:1;stroke-linejoin:miter;stroke-miterlimit:10;"/><text x="769" y="156.367" fill="#000" font-size="13" textLength="29.783">uses</text></g><!--link Frontend to BookSvc--><g class="link" data-entity-1="ent0001" data-entity-2="ent0007" id="lnk21" data-source-line="29" data-link-type="dependency"><path d="M840.972,119.588 C840.601,120.404 840.217,121.214 839.818,122.017 C839.021,123.622 838.167,125.197 837.252,126.73 C835.422,129.794 833.349,132.686 831,135.3 C825.15,141.81 817.77,135.96 813,143.3 C799.56,163.98 808.728,187.385 820.678,206.585" style="stroke:#181818;stroke-width:1;" fill="none" id="Frontend-to-BookSvc"/><polygon points="823.32,210.83,821.96,201.075,820.678,206.585,815.168,205.303,823.32,210.83" fill="#181818" style="stroke:#181818;stroke-width:1;stroke-linejoin:miter;stroke-miterlimit:10;"/><text x="814" y="156.367" fill="#000" font-size="13" textLength="29.783">uses</text></g><!--link Frontend to BookSvc--><g class="link" data-entity-1="ent0001" data-entity-2="ent0007" id="lnk41" data-source-line="78" data-link-type="dependency"><path d="M850.04,119.684 C850.03,119.976 850.02,120.269 850.01,120.562 C849.969,121.735 849.927,122.916 849.884,124.105 C849.796,126.482 849.702,128.889 849.601,131.31 C849.195,140.998 848.673,150.938 848,160.3 C846.77,177.37 845.244,191.657 843.484,206.117" style="stroke:#181818;stroke-width:1;" fill="none" id="Frontend-to-BookSvc-1"/><polygon points="842.88,211.08,847.938,202.629,843.484,206.117,839.997,201.663,842.88,211.08" fill="#181818" style="stroke:#181818;stroke-width:1;stroke-linejoin:miter;stroke-miterlimit:10;"/><text x="850" y="156.367" fill="#000" font-size="13" textLength="29.783">uses</text></g><!--link Frontend to RepSvc--><g class="link" data-entity-1="ent0001" data-entity-2="ent0010" id="lnk22" data-source-line="30" data-link-type="dependency"><path d="M859.093,80.243 C859.331,80.451 859.573,80.663 859.82,80.88 C860.808,81.744 861.869,82.674 863,83.664 C865.261,85.644 867.798,87.867 870.574,90.298 C881.678,100.023 896.601,113.094 912.931,127.399 C945.593,156.008 980.124,186.255 1004.759,207.835" style="stroke:#181818;stroke-width:1;" fill="none" id="Frontend-to-RepSvc"/><polygon points="1008.52,211.13,1004.386,202.191,1004.759,207.835,999.114,208.208,1008.52,211.13" fill="#181818" style="stroke:#181818;stroke-width:1;stroke-linejoin:miter;stroke-miterlimit:10;"/><text x="948" y="156.367" fill="#000" font-size="13" textLength="29.783">uses</text></g><!--link Frontend to RepSvc--><g class="link" data-entity-1="ent0001" data-entity-2="ent0010" id="lnk42" data-source-line="79" data-link-type="dependency"><path d="M859.114,75.48 C859.542,75.61 859.986,75.745 860.444,75.885 C862.275,76.447 864.341,77.096 866.611,77.833 C875.69,80.782 888.041,85.136 901.786,90.933 C929.278,102.525 962.35,119.885 986,143.3 C1005.4,162.51 1017.037,186.562 1024.657,206.402" style="stroke:#181818;stroke-width:1;" fill="none" id="Frontend-to-RepSvc-1"/><polygon points="1026.45,211.07,1026.957,201.234,1024.657,206.402,1019.489,204.103,1026.45,211.07" fill="#181818" style="stroke:#181818;stroke-width:1;stroke-linejoin:miter;stroke-miterlimit:10;"/><text x="999" y="156.367" fill="#000" font-size="13" textLength="29.783">uses</text></g><!--link Auth to DB--><g class="link" data-entity-1="ent0004" data-entity-2="ent0012" id="lnk23" data-source-line="32" data-link-type="dependency"><path d="M1350.82,240.24 C1476.31,247 1677.7,261.55 1701,287.6 C1743.17,334.73 1737.28,378.09 1701,429.89 C1670.43,473.54 1615.914,490.429 1572.554,497.559" style="stroke:#181818;stroke-width:1;" fill="none" id="Auth-to-DB"/><polygon points="1567.62,498.37,1577.15,500.857,1572.554,497.559,1575.852,492.963,1567.62,498.37" fill="#181818" style="stroke:#181818;stroke-width:1;stroke-linejoin:miter;stroke-miterlimit:10;"/></g><!--link Auth to DB--><g class="link" data-entity-1="ent0004" data-entity-2="ent0012" id="lnk43" data-source-line="81" data-link-type="dependency"><path d="M1350.83,239.07 C1485.66,245.24 1711.25,259.93 1736,287.6 C1778.17,334.73 1772.28,378.09 1736,429.89 C1699.15,482.52 1625.295,497.029 1572.495,501.169" style="stroke:#181818;stroke-width:1;" fill="none" id="Auth-to-DB-1"/><polygon points="1567.51,501.56,1576.795,504.844,1572.495,501.169,1576.17,496.869,1567.51,501.56" fill="#181818" style="stroke:#181818;stroke-width:1;stroke-linejoin:miter;stroke-miterlimit:10;"/></g><!--link InvSvc to DB--><g class="link" data-entity-1="ent0005" data-entity-2="ent0012" id="lnk24" data-source-line="33" data-link-type="dependency"><path d="M548.16,257.49 C548.44,257.53 548.72,257.56 549,257.6 C629.89,267.63 1207.25,255.09 1282,287.6 C1378.37,329.51 1452.608,431.131 1490.768,477.151" style="stroke:#181818;stroke-width:1;" fill="none" id="InvSvc-to-DB"/><polygon points="1493.96,481,1491.294,471.519,1490.768,477.151,1485.136,476.625,1493.96,481" fill="#181818" style="stroke:#181818;stroke-width:1;stroke-linejoin:miter;stroke-miterlimit:10;"/></g><!--link InvSvc to DB--><g class="link" data-entity-1="ent0005" data-entity-2="ent0012" id="lnk44" data-source-line="82" data-link-type="dependency"><path d="M548.17,251.86 C560.25,254.12 572.43,256.16 584,257.6 C664.89,267.63 1242.25,255.09 1317,287.6 C1413.37,329.51 1488.637,430.472 1510.717,476.492" style="stroke:#181818;stroke-width:1;" fill="none" id="InvSvc-to-DB-1"/><polygon points="1512.88,481,1512.593,471.155,1510.717,476.492,1505.38,474.616,1512.88,481" fill="#181818" style="stroke:#181818;stroke-width:1;stroke-linejoin:miter;stroke-miterlimit:10;"/></g><!--link FacSvc to DB--><g class="link" data-entity-1="ent0006" data-entity-2="ent0012" id="lnk25" data-source-line="34" data-link-type="dependency"><path d="M729.44,257.66 C805.98,268.26 1347.03,244.5 1409,287.6 C1474.5,333.15 1491.7,430.899 1504.48,476.109" style="stroke:#181818;stroke-width:1;" fill="none" id="FacSvc-to-DB"/><polygon points="1505.84,480.92,1507.241,471.171,1504.48,476.109,1499.543,473.347,1505.84,480.92" fill="#181818" style="stroke:#181818;stroke-width:1;stroke-linejoin:miter;stroke-miterlimit:10;"/></g><!--link FacSvc to DB--><g class="link" data-entity-1="ent0006" data-entity-2="ent0012" id="lnk45" data-source-line="83" data-link-type="dependency"><path d="M729.47,251 C741.07,253.61 752.85,255.99 764,257.6 C838.86,268.35 1381.91,244.42 1444,287.6 C1509.5,333.15 1528.397,430.721 1525.347,475.931" style="stroke:#181818;stroke-width:1;" fill="none" id="FacSvc-to-DB-1"/><polygon points="1525.01,480.92,1529.607,472.21,1525.347,475.931,1521.625,471.671,1525.01,480.92" fill="#181818" style="stroke:#181818;stroke-width:1;stroke-linejoin:miter;stroke-miterlimit:10;"/></g><!--link BookSvc to DB--><g class="link" data-entity-1="ent0007" data-entity-2="ent0012" id="lnk26" data-source-line="35" data-link-type="dependency"><path d="M916.5,257.52 C916.67,257.55 916.83,257.57 917,257.6 C980.22,266.62 1446.08,242.2 1491,287.6 C1542.35,339.49 1521.339,432.372 1515.619,476.052" style="stroke:#181818;stroke-width:1;" fill="none" id="BookSvc-to-DB"/><polygon points="1514.97,481.01,1520.105,472.606,1515.619,476.052,1512.172,471.567,1514.97,481.01" fill="#181818" style="stroke:#181818;stroke-width:1;stroke-linejoin:miter;stroke-miterlimit:10;"/></g><!--link BookSvc to DB--><g class="link" data-entity-1="ent0007" data-entity-2="ent0012" id="lnk46" data-source-line="84" data-link-type="dependency"><path d="M916.77,251.08 C928.62,253.63 940.63,255.97 952,257.6 C1015.22,266.62 1481.08,242.2 1526,287.6 C1577.35,339.49 1557.872,432.831 1536.682,476.511" style="stroke:#181818;stroke-width:1;" fill="none" id="BookSvc-to-DB-1"/><polygon points="1534.5,481.01,1542.027,474.658,1536.682,476.511,1534.829,471.167,1534.5,481.01" fill="#181818" style="stroke:#181818;stroke-width:1;stroke-linejoin:miter;stroke-miterlimit:10;"/></g><!--link PaySvc to DB--><g class="link" data-entity-1="ent0008" data-entity-2="ent0012" id="lnk27" data-source-line="36" data-link-type="dependency"><path d="M1060.53,381.37 C1169.86,412.46 1367.034,466.039 1461.454,490.019" style="stroke:#181818;stroke-width:1;" fill="none" id="PaySvc-to-DB"/><polygon points="1466.3,491.25,1458.562,485.158,1461.454,490.019,1456.592,492.912,1466.3,491.25" fill="#181818" style="stroke:#181818;stroke-width:1;stroke-linejoin:miter;stroke-miterlimit:10;"/></g><!--link PaySvc to DB--><g class="link" data-entity-1="ent0008" data-entity-2="ent0012" id="lnk47" data-source-line="85" data-link-type="dependency"><path d="M1066.32,377.76 C1176.84,406.34 1368.537,458.499 1461.367,485.379" style="stroke:#181818;stroke-width:1;" fill="none" id="PaySvc-to-DB-1"/><polygon points="1466.17,486.77,1458.638,480.425,1461.367,485.379,1456.413,488.109,1466.17,486.77" fill="#181818" style="stroke:#181818;stroke-width:1;stroke-linejoin:miter;stroke-miterlimit:10;"/></g><!--link RepSvc to DB--><g class="link" data-entity-1="ent0010" data-entity-2="ent0012" id="lnk28" data-source-line="37" data-link-type="dependency"><path d="M1116.74,257.56 C1116.82,257.57 1116.91,257.58 1117,257.6 C1169.8,265.05 1559.49,248.73 1596,287.6 C1639.3,333.69 1624.07,373.22 1596,429.89 C1585.12,451.86 1568.27,466.227 1550.31,478.387" style="stroke:#181818;stroke-width:1;" fill="none" id="RepSvc-to-DB"/><polygon points="1546.17,481.19,1555.865,479.456,1550.31,478.387,1551.38,472.832,1546.17,481.19" fill="#181818" style="stroke:#181818;stroke-width:1;stroke-linejoin:miter;stroke-miterlimit:10;"/></g><!--link RepSvc to DB--><g class="link" data-entity-1="ent0010" data-entity-2="ent0012" id="lnk48" data-source-line="86" data-link-type="dependency"><path d="M1116.8,251.4 C1128.66,253.79 1140.64,255.99 1152,257.6 C1204.8,265.05 1594.49,248.73 1631,287.6 C1674.3,333.69 1659.07,373.22 1631,429.89 C1618.4,455.34 1596.712,472.104 1572.212,484.354" style="stroke:#181818;stroke-width:1;" fill="none" id="RepSvc-to-DB-1"/><polygon points="1567.74,486.59,1577.579,486.143,1572.212,484.354,1574.001,478.987,1567.74,486.59" fill="#181818" style="stroke:#181818;stroke-width:1;stroke-linejoin:miter;stroke-miterlimit:10;"/></g><!--link InvSvc to PaySvc--><g class="link" data-entity-1="ent0005" data-entity-2="ent0008" id="lnk29" data-source-line="39" data-link-type="dependency"><path d="M486.04,258.02 C505.79,273.81 534.34,293.91 563,304.6 C624.33,327.46 797.654,343.209 902.484,351.019" style="stroke:#181818;stroke-width:1;" fill="none" id="InvSvc-to-PaySvc"/><polygon points="907.47,351.39,898.792,346.732,902.484,351.019,898.198,354.71,907.47,351.39" fill="#181818" style="stroke:#181818;stroke-width:1;stroke-linejoin:miter;stroke-miterlimit:10;"/><text x="564" y="300.667" fill="#000" font-size="13" textLength="118.517">requests payment</text></g><!--link InvSvc to PaySvc--><g class="link" data-entity-1="ent0005" data-entity-2="ent0008" id="lnk49" data-source-line="88" data-link-type="dependency"><path d="M548.18,254.55 C606.14,267.3 673.65,282.61 687,287.6 C702.09,293.23 703.82,299.22 719,304.6 C780.55,326.39 848.51,339.122 902.73,346.882" style="stroke:#181818;stroke-width:1;" fill="none" id="InvSvc-to-PaySvc-1"/><polygon points="907.68,347.59,899.337,342.355,902.73,346.882,898.204,350.275,907.68,347.59" fill="#181818" style="stroke:#181818;stroke-width:1;stroke-linejoin:miter;stroke-miterlimit:10;"/><text x="720" y="300.667" fill="#000" font-size="13" textLength="118.517">requests payment</text></g><!--link BookSvc to PaySvc--><g class="link" data-entity-1="ent0007" data-entity-2="ent0008" id="lnk30" data-source-line="40" data-link-type="dependency"><path d="M916.61,254.11 C968.11,267.01 1027.27,282.71 1031,287.6 C1042.4,302.52 1033.936,316.966 1019.586,330.826" style="stroke:#181818;stroke-width:1;" fill="none" id="BookSvc-to-PaySvc"/><polygon points="1015.99,334.3,1025.242,330.925,1019.586,330.826,1019.685,325.17,1015.99,334.3" fill="#181818" style="stroke:#181818;stroke-width:1;stroke-linejoin:miter;stroke-miterlimit:10;"/><text x="1036" y="300.667" fill="#000" font-size="13" textLength="118.517">requests payment</text></g><!--link BookSvc to PaySvc--><g class="link" data-entity-1="ent0007" data-entity-2="ent0008" id="lnk50" data-source-line="89" data-link-type="dependency"><path d="M916.82,254.22 C922.62,255.43 928.39,256.57 934,257.6 C984.49,266.83 1129.15,249.02 1163,287.6 C1195.97,325.16 1132.429,341.858 1071.499,349.748" style="stroke:#181818;stroke-width:1;" fill="none" id="BookSvc-to-PaySvc-1"/><polygon points="1066.54,350.39,1075.979,353.201,1071.499,349.748,1074.952,345.267,1066.54,350.39" fill="#181818" style="stroke:#181818;stroke-width:1;stroke-linejoin:miter;stroke-miterlimit:10;"/><text x="1172" y="300.667" fill="#000" font-size="13" textLength="118.517">requests payment</text></g><!--link PaySvc to PG--><g class="link" data-entity-1="ent0008" data-entity-2="ent0014" id="lnk31" data-source-line="41" data-link-type="dependency"><path d="M907.68,371.9 C837.52,382.9 732.26,397.9 640,404.89 C628.36,405.77 228.17,404.56 220,412.89 C214.71,418.29 215.58,423.76 220,429.89 C226.57,439.01 233.86,433.03 244,437.89 C269.02,449.9 291.218,464.136 310.698,477.816" style="stroke:#181818;stroke-width:1;" fill="none" id="PaySvc-to-PG"/><polygon points="314.79,480.69,309.724,472.244,310.698,477.816,305.126,478.791,314.79,480.69" fill="#181818" style="stroke:#181818;stroke-width:1;stroke-linejoin:miter;stroke-miterlimit:10;"/><text x="221" y="425.957" fill="#000" font-size="13" textLength="88.417">processes via</text></g><!--link PaySvc to PG--><g class="link" data-entity-1="ent0008" data-entity-2="ent0014" id="lnk51" data-source-line="90" data-link-type="dependency"><path d="M907.66,371.63 C837.48,382.47 732.22,397.37 640,404.89 C625.54,406.07 390.8,404.46 379,412.89 C357.36,428.35 350.158,454.435 347.288,475.725" style="stroke:#181818;stroke-width:1;" fill="none" id="PaySvc-to-PG-1"/><polygon points="346.62,480.68,351.787,472.295,347.288,475.725,343.858,471.226,346.62,480.68" fill="#181818" style="stroke:#181818;stroke-width:1;stroke-linejoin:miter;stroke-miterlimit:10;"/><text x="380" y="425.957" fill="#000" font-size="13" textLength="88.417">processes via</text></g><!--link InvSvc to NotifSvc--><g class="link" data-entity-1="ent0005" data-entity-2="ent0009" id="lnk32" data-source-line="43" data-link-type="dependency"><path d="M371.79,240.99 C303.61,247.33 217.23,260.57 195,287.6 C190.2,293.43 190.08,298.86 195,304.6 C226.7,341.54 351.183,352.395 440.623,355.535" style="stroke:#181818;stroke-width:1;" fill="none" id="InvSvc-to-NotifSvc"/><polygon points="445.62,355.71,436.766,351.397,440.623,355.535,436.485,359.392,445.62,355.71" fill="#181818" style="stroke:#181818;stroke-width:1;stroke-linejoin:miter;stroke-miterlimit:10;"/><text x="196" y="300.667" fill="#000" font-size="13" textLength="50.673">triggers</text></g><!--link InvSvc to NotifSvc--><g class="link" data-entity-1="ent0005" data-entity-2="ent0009" id="lnk52" data-source-line="92" data-link-type="dependency"><path d="M371.9,242.93 C315.46,251.24 257.82,268.61 287,304.6 C306.91,329.15 377.842,342.029 440.302,349.079" style="stroke:#181818;stroke-width:1;" fill="none" id="InvSvc-to-NotifSvc-1"/><polygon points="445.27,349.64,436.775,344.656,440.302,349.079,435.878,352.605,445.27,349.64" fill="#181818" style="stroke:#181818;stroke-width:1;stroke-linejoin:miter;stroke-miterlimit:10;"/><text x="288" y="300.667" fill="#000" font-size="13" textLength="50.673">triggers</text></g><!--link BookSvc to NotifSvc--><g class="link" data-entity-1="ent0007" data-entity-2="ent0009" id="lnk33" data-source-line="44" data-link-type="dependency"><path d="M849.95,257.88 C854.89,272.79 857.76,291.89 847,304.6 C818.69,338.01 709.793,349.778 627.553,354.088" style="stroke:#181818;stroke-width:1;" fill="none" id="BookSvc-to-NotifSvc"/><polygon points="622.56,354.35,631.757,357.873,627.553,354.088,631.338,349.884,622.56,354.35" fill="#181818" style="stroke:#181818;stroke-width:1;stroke-linejoin:miter;stroke-miterlimit:10;"/><text x="854" y="300.667" fill="#000" font-size="13" textLength="50.673">triggers</text></g><!--link BookSvc to NotifSvc--><g class="link" data-entity-1="ent0007" data-entity-2="ent0009" id="lnk53" data-source-line="93" data-link-type="dependency"><path d="M888.54,258.01 C910,271.01 927.45,288.02 913,304.6 C876.06,346.96 727.31,356.033 627.34,357.363" style="stroke:#181818;stroke-width:1;" fill="none" id="BookSvc-to-NotifSvc-1"/><polygon points="622.34,357.43,631.392,361.31,627.34,357.363,631.286,353.311,622.34,357.43" fill="#181818" style="stroke:#181818;stroke-width:1;stroke-linejoin:miter;stroke-miterlimit:10;"/><text x="919" y="300.667" fill="#000" font-size="13" textLength="50.673">triggers</text></g><!--link Auth to NotifSvc--><g class="link" data-entity-1="ent0004" data-entity-2="ent0009" id="lnk34" data-source-line="45" data-link-type="dependency"><path d="M1151.26,255.35 C1145.43,256.19 1139.65,256.95 1134,257.6 C1092.29,262.35 408.09,257.33 379,287.6 C351.23,316.49 391.817,333.171 440.557,343.421" style="stroke:#181818;stroke-width:1;" fill="none" id="Auth-to-NotifSvc"/><polygon points="445.45,344.45,437.466,338.683,440.557,343.421,435.819,346.512,445.45,344.45" fill="#181818" style="stroke:#181818;stroke-width:1;stroke-linejoin:miter;stroke-miterlimit:10;"/><text x="380" y="300.667" fill="#000" font-size="13" textLength="50.673">triggers</text></g><!--link Auth to NotifSvc--><g class="link" data-entity-1="ent0004" data-entity-2="ent0009" id="lnk54" data-source-line="94" data-link-type="dependency"><path d="M1151.26,255.31 C1145.43,256.17 1139.65,256.94 1134,257.6 C1097.27,261.88 494.55,260.86 469,287.6 C454.2,303.08 467.031,317.895 487.351,331.455" style="stroke:#181818;stroke-width:1;" fill="none" id="Auth-to-NotifSvc-1"/><polygon points="491.51,334.23,486.244,325.907,487.351,331.455,481.804,332.561,491.51,334.23" fill="#181818" style="stroke:#181818;stroke-width:1;stroke-linejoin:miter;stroke-miterlimit:10;"/><text x="470" y="300.667" fill="#000" font-size="13" textLength="50.673">triggers</text></g><!--link NotifSvc to Email--><g class="link" data-entity-1="ent0009" data-entity-2="ent0015" id="lnk35" data-source-line="47" data-link-type="dependency"><path d="M503.65,381.16 C494.24,389.9 485.02,400.75 480,412.89 C469.99,437.1 484.489,459.25 501.989,476.99" style="stroke:#181818;stroke-width:1;" fill="none" id="NotifSvc-to-Email"/><polygon points="505.5,480.55,502.027,471.334,501.989,476.99,496.332,476.952,505.5,480.55" fill="#181818" style="stroke:#181818;stroke-width:1;stroke-linejoin:miter;stroke-miterlimit:10;"/><text x="481" y="425.957" fill="#000" font-size="13" textLength="61.439">sends via</text></g><!--link NotifSvc to Email--><g class="link" data-entity-1="ent0009" data-entity-2="ent0015" id="lnk55" data-source-line="96" data-link-type="dependency"><path d="M540.64,381.19 C543.17,390.85 545.75,402.33 547,412.89 C549.74,436.05 545.73,457.523 540.67,475.713" style="stroke:#181818;stroke-width:1;" fill="none" id="NotifSvc-to-Email-1"/><polygon points="539.33,480.53,545.596,472.931,540.67,475.713,537.888,470.787,539.33,480.53" fill="#181818" style="stroke:#181818;stroke-width:1;stroke-linejoin:miter;stroke-miterlimit:10;"/><text x="548" y="425.957" fill="#000" font-size="13" textLength="61.439">sends via</text></g><!--link NotifSvc to SMS--><g class="link" data-entity-1="ent0009" data-entity-2="ent0016" id="lnk36" data-source-line="48" data-link-type="dependency"><path d="M573.61,381.18 C588.19,390.22 604.43,401.26 618,412.89 C642.15,433.6 662.716,457.57 677.966,476.83" style="stroke:#181818;stroke-width:1;" fill="none" id="NotifSvc-to-SMS"/><polygon points="681.07,480.75,678.619,471.211,677.966,476.83,672.347,476.177,681.07,480.75" fill="#181818" style="stroke:#181818;stroke-width:1;stroke-linejoin:miter;stroke-miterlimit:10;"/><text x="635" y="425.957" fill="#000" font-size="13" textLength="61.439">sends via</text></g><!--link NotifSvc to SMS--><g class="link" data-entity-1="ent0009" data-entity-2="ent0016" id="lnk56" data-source-line="97" data-link-type="dependency"><path d="M622.58,365.61 C653.75,372.8 685.77,386.64 705,412.89 C719.19,432.27 715.493,455.944 708.953,475.674" style="stroke:#181818;stroke-width:1;" fill="none" id="NotifSvc-to-SMS-1"/><polygon points="707.38,480.42,714.009,473.136,708.953,475.674,706.415,470.619,707.38,480.42" fill="#181818" style="stroke:#181818;stroke-width:1;stroke-linejoin:miter;stroke-miterlimit:10;"/><text x="713" y="425.957" fill="#000" font-size="13" textLength="61.439">sends via</text></g><!--link Auth to IDV--><g class="link" data-entity-1="ent0004" data-entity-2="ent0017" id="lnk37" data-source-line="50" data-link-type="dependency"><path d="M1151.27,255.42 C1145.44,256.24 1139.65,256.98 1134,257.6 C908.56,282.09 333.41,230.32 114,287.6 C70.34,298.99 47.38,296 24,334.6 C7.81,361.32 11.91,376.08 24,404.89 C37.27,436.52 62.256,460.085 85.626,477.565" style="stroke:#181818;stroke-width:1;" fill="none" id="Auth-to-IDV"/><polygon points="89.63,480.56,84.819,471.966,85.626,477.565,80.027,478.373,89.63,480.56" fill="#181818" style="stroke:#181818;stroke-width:1;stroke-linejoin:miter;stroke-miterlimit:10;"/><text x="25" y="362.307" fill="#000" font-size="13" textLength="71.011">verifies via</text></g><!--link Auth to IDV--><g class="link" data-entity-1="ent0004" data-entity-2="ent0017" id="lnk57" data-source-line="99" data-link-type="dependency"><path d="M1151.27,255.4 C1145.44,256.23 1139.65,256.98 1134,257.6 C1081.51,263.36 225.54,255 184,287.6 C124.29,334.46 120.594,430.393 122.274,475.483" style="stroke:#181818;stroke-width:1;" fill="none" id="Auth-to-IDV-1"/><polygon points="122.46,480.48,126.122,471.337,122.274,475.483,118.128,471.635,122.46,480.48" fill="#181818" style="stroke:#181818;stroke-width:1;stroke-linejoin:miter;stroke-miterlimit:10;"/><text x="148" y="362.307" fill="#000" font-size="13" textLength="71.011">verifies via</text></g><?plantuml-src xPFDJiCm3CVlVGghzxt03aYRzg59WCegxO8uXCwKQ5rRagnG8TuT9t6s1ie38EqM-_VtH-oa5SL1b0ZfIZMrmNgVmcS2yBX5KHYOjMqb2s5aKp-1qE14oLUIj25iJeTBrEnaNh4s708vgauMw48jif9DtQ4sHr95cDnvLrZ1IXIoagQFC3aPpvlc8EioejR7E1FzhzpaOthV6Faorfq3BDfYsoZpimPvBH_UVI6CU1OQ_UNtR46QDTgK2lE7szH6BkPHrFB3eAf51Ncl3HurZouqlXO6tqNl6rzRiZmAMKMzE8z5-LqU0RBTZFTs2JJ27QhBVMVPnezwiRCDXON3P7BZjWDJE6dKCV1x6KL-9wE85pBA_203IbnbwwSnSJ6sE3zR8IMRVgV1ufni3VEmRWeAtqxqy3IqVj1HmhzLWphPcWIjQWhKr3bqKaILmXCYaL6oB57fgCOOFrz-32PdfrNuLp05JNFqnIDiNy8GNbBJkebqxYM4jgyV-Fg1hn_uttxWRm00?></g></svg>