<svg xmlns="http://www.w3.org/2000/svg" xmlns:xlink="http://www.w3.org/1999/xlink" version="1.1" data-diagram-type="ACTIVITY" style="width:447px;height:596px;background:#FFFFFF;" width="447px" height="596px" viewBox="0 0 447 596" zoomAndPan="magnify" preserveAspectRatio="none" contentStyleType="text/css"><?plantuml 1.2026.7beta8?><defs/><g font-family="sans-serif" lengthAdjust="spacing"><ellipse cx="181.299" cy="25" rx="10" ry="10" fill="#222" style="stroke:#222;stroke-width:1;"/><rect x="155.007" y="55" width="52.584" height="33.969" fill="#F1F1F1" style="stroke:#181818;stroke-width:0.5;" rx="12.5" ry="12.5"/><text x="165.007" y="76.139" fill="#000" font-size="12" textLength="32.584">Login</text><rect x="131.523" y="108.969" width="99.553" height="33.969" fill="#F1F1F1" style="stroke:#181818;stroke-width:0.5;" rx="12.5" ry="12.5"/><text x="141.523" y="130.107" fill="#000" font-size="12" textLength="79.553">Browse Plans</text><rect x="138.118" y="162.938" width="86.363" height="33.969" fill="#F1F1F1" style="stroke:#181818;stroke-width:0.5;" rx="12.5" ry="12.5"/><text x="148.118" y="184.076" fill="#000" font-size="12" textLength="66.363">Select Plan</text><rect x="128.687" y="216.906" width="105.225" height="33.969" fill="#F1F1F1" style="stroke:#181818;stroke-width:0.5;" rx="12.5" ry="12.5"/><text x="138.687" y="238.045" fill="#000" font-size="12" textLength="85.225">Complete KYC</text><polygon points="139.324,270.875,223.274,270.875,235.274,282.875,223.274,294.875,139.324,294.875,127.324,282.875,139.324,270.875" fill="#F1F1F1" style="stroke:#181818;stroke-width:0.5;stroke-linejoin:miter;stroke-miterlimit:10;"/><text x="139.324" y="286.683" fill="#000" font-size="11" textLength="83.95">KYC Approved?</text><text x="112.366" y="280.281" fill="#000" font-size="11" textLength="14.958">No</text><text x="235.274" y="280.281" fill="#000" font-size="11" textLength="19.218">Yes</text><rect x="16" y="304.875" width="129.523" height="33.969" fill="#F1F1F1" style="stroke:#181818;stroke-width:0.5;" rx="12.5" ry="12.5"/><text x="26" y="326.014" fill="#000" font-size="12" textLength="109.523">Reject Investment</text><ellipse cx="80.762" cy="369.844" rx="11" ry="11" fill="none" style="stroke:#222;stroke-width:1;"/><ellipse cx="80.762" cy="369.844" rx="6" ry="6" fill="#222" style="stroke:#222;stroke-width:1;"/><rect x="219.146" y="304.875" width="125.381" height="33.969" fill="#F1F1F1" style="stroke:#181818;stroke-width:0.5;" rx="12.5" ry="12.5"/><text x="229.146" y="326.014" fill="#000" font-size="12" textLength="105.381">Proceed Payment</text><polygon points="223.754,358.844,339.92,358.844,351.92,370.844,339.92,382.844,223.754,382.844,211.754,370.844,223.754,358.844" fill="#F1F1F1" style="stroke:#181818;stroke-width:0.5;stroke-linejoin:miter;stroke-miterlimit:10;"/><text x="223.754" y="374.652" fill="#000" font-size="11" textLength="116.166">Payment Successful?</text><text x="196.795" y="368.25" fill="#000" font-size="11" textLength="14.958">No</text><text x="351.92" y="368.25" fill="#000" font-size="11" textLength="19.218">Yes</text><rect x="175.523" y="392.844" width="52.461" height="33.969" fill="#F1F1F1" style="stroke:#181818;stroke-width:0.5;" rx="12.5" ry="12.5"/><text x="185.523" y="413.982" fill="#000" font-size="12" textLength="32.461">Retry</text><ellipse cx="201.754" cy="457.813" rx="11" ry="11" fill="none" style="stroke:#222;stroke-width:1;"/><ellipse cx="201.754" cy="457.813" rx="6" ry="6" fill="#222" style="stroke:#222;stroke-width:1;"/><rect x="295.96" y="392.844" width="131.92" height="33.969" fill="#F1F1F1" style="stroke:#181818;stroke-width:0.5;" rx="12.5" ry="12.5"/><text x="305.96" y="413.982" fill="#000" font-size="12" textLength="111.92">Create Investment</text><rect x="303.387" y="446.813" width="117.066" height="33.969" fill="#F1F1F1" style="stroke:#181818;stroke-width:0.5;" rx="12.5" ry="12.5"/><text x="313.387" y="467.951" fill="#000" font-size="12" textLength="97.066">Update Portfolio</text><rect x="300.475" y="500.781" width="122.891" height="33.969" fill="#F1F1F1" style="stroke:#181818;stroke-width:0.5;" rx="12.5" ry="12.5"/><text x="310.475" y="521.92" fill="#000" font-size="12" textLength="102.891">Send Notification</text><ellipse cx="361.92" cy="565.75" rx="11" ry="11" fill="none" style="stroke:#222;stroke-width:1;"/><ellipse cx="361.92" cy="565.75" rx="6" ry="6" fill="#222" style="stroke:#222;stroke-width:1;"/><line x1="181.299" y1="35" x2="181.299" y2="55" style="stroke:#181818;stroke-width:1;"/><polygon points="177.299,45,181.299,55,185.299,45,181.299,49" fill="#181818" style="stroke:#181818;stroke-width:1;stroke-linejoin:miter;stroke-miterlimit:10;"/><line x1="181.299" y1="88.969" x2="181.299" y2="108.969" style="stroke:#181818;stroke-width:1;"/><polygon points="177.299,98.969,181.299,108.969,185.299,98.969,181.299,102.969" fill="#181818" style="stroke:#181818;stroke-width:1;stroke-linejoin:miter;stroke-miterlimit:10;"/><line x1="181.299" y1="142.938" x2="181.299" y2="162.938" style="stroke:#181818;stroke-width:1;"/><polygon points="177.299,152.938,181.299,162.938,185.299,152.938,181.299,156.938" fill="#181818" style="stroke:#181818;stroke-width:1;stroke-linejoin:miter;stroke-miterlimit:10;"/><line x1="181.299" y1="196.906" x2="181.299" y2="216.906" style="stroke:#181818;stroke-width:1;"/><polygon points="177.299,206.906,181.299,216.906,185.299,206.906,181.299,210.906" fill="#181818" style="stroke:#181818;stroke-width:1;stroke-linejoin:miter;stroke-miterlimit:10;"/><line x1="80.762" y1="338.844" x2="80.762" y2="358.844" style="stroke:#181818;stroke-width:1;"/><polygon points="76.762,348.844,80.762,358.844,84.762,348.844,80.762,352.844" fill="#181818" style="stroke:#181818;stroke-width:1;stroke-linejoin:miter;stroke-miterlimit:10;"/><line x1="201.754" y1="426.813" x2="201.754" y2="446.813" style="stroke:#181818;stroke-width:1;"/><polygon points="197.754,436.813,201.754,446.813,205.754,436.813,201.754,440.813" fill="#181818" style="stroke:#181818;stroke-width:1;stroke-linejoin:miter;stroke-miterlimit:10;"/><line x1="361.92" y1="426.813" x2="361.92" y2="446.813" style="stroke:#181818;stroke-width:1;"/><polygon points="357.92,436.813,361.92,446.813,365.92,436.813,361.92,440.813" fill="#181818" style="stroke:#181818;stroke-width:1;stroke-linejoin:miter;stroke-miterlimit:10;"/><line x1="361.92" y1="480.781" x2="361.92" y2="500.781" style="stroke:#181818;stroke-width:1;"/><polygon points="357.92,490.781,361.92,500.781,365.92,490.781,361.92,494.781" fill="#181818" style="stroke:#181818;stroke-width:1;stroke-linejoin:miter;stroke-miterlimit:10;"/><line x1="361.92" y1="534.75" x2="361.92" y2="554.75" style="stroke:#181818;stroke-width:1;"/><polygon points="357.92,544.75,361.92,554.75,365.92,544.75,361.92,548.75" fill="#181818" style="stroke:#181818;stroke-width:1;stroke-linejoin:miter;stroke-miterlimit:10;"/><line x1="211.754" y1="370.844" x2="201.754" y2="370.844" style="stroke:#181818;stroke-width:1;"/><line x1="201.754" y1="370.844" x2="201.754" y2="392.844" style="stroke:#181818;stroke-width:1;"/><polygon points="197.754,382.844,201.754,392.844,205.754,382.844,201.754,386.844" fill="#181818" style="stroke:#181818;stroke-width:1;stroke-linejoin:miter;stroke-miterlimit:10;"/><line x1="351.92" y1="370.844" x2="361.92" y2="370.844" style="stroke:#181818;stroke-width:1;"/><line x1="361.92" y1="370.844" x2="361.92" y2="392.844" style="stroke:#181818;stroke-width:1;"/><polygon points="357.92,382.844,361.92,392.844,365.92,382.844,361.92,386.844" fill="#181818" style="stroke:#181818;stroke-width:1;stroke-linejoin:miter;stroke-miterlimit:10;"/><line x1="281.837" y1="338.844" x2="281.837" y2="358.844" style="stroke:#181818;stroke-width:1;"/><polygon points="277.837,348.844,281.837,358.844,285.837,348.844,281.837,352.844" fill="#181818" style="stroke:#181818;stroke-width:1;stroke-linejoin:miter;stroke-miterlimit:10;"/><line x1="127.324" y1="282.875" x2="80.762" y2="282.875" style="stroke:#181818;stroke-width:1;"/><line x1="80.762" y1="282.875" x2="80.762" y2="304.875" style="stroke:#181818;stroke-width:1;"/><polygon points="76.762,294.875,80.762,304.875,84.762,294.875,80.762,298.875" fill="#181818" style="stroke:#181818;stroke-width:1;stroke-linejoin:miter;stroke-miterlimit:10;"/><line x1="235.274" y1="282.875" x2="281.837" y2="282.875" style="stroke:#181818;stroke-width:1;"/><line x1="281.837" y1="282.875" x2="281.837" y2="304.875" style="stroke:#181818;stroke-width:1;"/><polygon points="277.837,294.875,281.837,304.875,285.837,294.875,281.837,298.875" fill="#181818" style="stroke:#181818;stroke-width:1;stroke-linejoin:miter;stroke-miterlimit:10;"/><line x1="181.299" y1="250.875" x2="181.299" y2="270.875" style="stroke:#181818;stroke-width:1;"/><polygon points="177.299,260.875,181.299,270.875,185.299,260.875,181.299,264.875" fill="#181818" style="stroke:#181818;stroke-width:1;stroke-linejoin:miter;stroke-miterlimit:10;"/><?plantuml-src NKunRiCm4DlrYXkTBzX3qNWgKWH6Z0uP1ObALIWwGJedoEyZ2ydWBWUIu94iehEe_filFWwgtsU-5z0KT2oLpWWmqcXb8rzJW80Evt5GoZlgAgBFb3BVO3zs9B-8r1rvfuZw4_xMvwzuGv4heWnLBS998TIExepIV5Dc0rYQzEFjMgDVbER569JYbl2le5L8VWmDjs2YJNHrZ1cwBjwEgFfFigi-SHR7mVDBdX4j7LcyyqQBvxWDZzOxrUuJ?></g></svg>