<svg xmlns="http://www.w3.org/2000/svg" xmlns:xlink="http://www.w3.org/1999/xlink" version="1.1" data-diagram-type="ACTIVITY" style="width:498px;height:650px;background:#FFFFFF;" width="498px" height="650px" viewBox="0 0 498 650" zoomAndPan="magnify" preserveAspectRatio="none" contentStyleType="text/css"><?plantuml 1.2026.7beta8?><defs/><g font-family="sans-serif" lengthAdjust="spacing"><ellipse cx="215.083" cy="25" rx="10" ry="10" fill="#222" style="stroke:#222;stroke-width:1;"/><rect x="188.791" y="55" width="52.584" height="33.969" fill="#F1F1F1" style="stroke:#181818;stroke-width:0.5;" rx="12.5" ry="12.5"/><text x="198.791" y="76.139" fill="#000" font-size="12" textLength="32.584">Login</text><rect x="154.933" y="108.969" width="120.301" height="33.969" fill="#F1F1F1" style="stroke:#181818;stroke-width:0.5;" rx="12.5" ry="12.5"/><text x="164.933" y="130.107" fill="#000" font-size="12" textLength="100.301">Browse Facilities</text><rect x="168.324" y="162.938" width="93.518" height="33.969" fill="#F1F1F1" style="stroke:#181818;stroke-width:0.5;" rx="12.5" ry="12.5"/><text x="178.324" y="184.076" fill="#000" font-size="12" textLength="73.518">View Rooms</text><rect x="167.311" y="216.906" width="95.545" height="33.969" fill="#F1F1F1" style="stroke:#181818;stroke-width:0.5;" rx="12.5" ry="12.5"/><text x="177.311" y="238.045" fill="#000" font-size="12" textLength="75.545">Select Room</text><rect x="151.663" y="270.875" width="126.84" height="33.969" fill="#F1F1F1" style="stroke:#181818;stroke-width:0.5;" rx="12.5" ry="12.5"/><text x="161.663" y="292.014" fill="#000" font-size="12" textLength="106.84">Check Availability</text><polygon points="186.947,324.844,243.219,324.844,255.219,336.844,243.219,348.844,186.947,348.844,174.947,336.844,186.947,324.844" fill="#F1F1F1" style="stroke:#181818;stroke-width:0.5;stroke-linejoin:miter;stroke-miterlimit:10;"/><text x="186.947" y="340.652" fill="#000" font-size="11" textLength="56.273">Available?</text><text x="159.988" y="334.25" fill="#000" font-size="11" textLength="14.958">No</text><text x="255.219" y="334.25" fill="#000" font-size="11" textLength="19.218">Yes</text><rect x="16" y="358.844" width="154.426" height="33.969" fill="#F1F1F1" style="stroke:#181818;stroke-width:0.5;" rx="12.5" ry="12.5"/><text x="26" y="379.982" fill="#000" font-size="12" textLength="134.426">Choose Another Room</text><ellipse cx="93.213" cy="423.813" rx="11" ry="11" fill="none" style="stroke:#222;stroke-width:1;"/><ellipse cx="93.213" cy="423.813" rx="6" ry="6" fill="#222" style="stroke:#222;stroke-width:1;"/><rect x="292.758" y="358.844" width="88.391" height="33.969" fill="#F1F1F1" style="stroke:#181818;stroke-width:0.5;" rx="12.5" ry="12.5"/><text x="302.758" y="379.982" fill="#000" font-size="12" textLength="68.391">Book Room</text><rect x="275.511" y="412.813" width="122.885" height="33.969" fill="#F1F1F1" style="stroke:#181818;stroke-width:0.5;" rx="12.5" ry="12.5"/><text x="285.511" y="433.951" fill="#000" font-size="12" textLength="102.885">Process Payment</text><polygon points="278.87,466.781,395.036,466.781,407.036,478.781,395.036,490.781,278.87,490.781,266.87,478.781,278.87,466.781" fill="#F1F1F1" style="stroke:#181818;stroke-width:0.5;stroke-linejoin:miter;stroke-miterlimit:10;"/><text x="278.87" y="482.589" fill="#000" font-size="11" textLength="116.166">Payment Successful?</text><text x="251.912" y="476.187" fill="#000" font-size="11" textLength="14.958">No</text><text x="407.036" y="476.187" fill="#000" font-size="11" textLength="19.218">Yes</text><rect x="200.426" y="500.781" width="112.889" height="33.969" fill="#F1F1F1" style="stroke:#181818;stroke-width:0.5;" rx="12.5" ry="12.5"/><text x="210.426" y="521.92" fill="#000" font-size="12" textLength="92.889">Cancel Booking</text><ellipse cx="256.87" cy="565.75" rx="11" ry="11" fill="none" style="stroke:#222;stroke-width:1;"/><ellipse cx="256.87" cy="565.75" rx="6" ry="6" fill="#222" style="stroke:#222;stroke-width:1;"/><rect x="357.164" y="500.781" width="119.744" height="33.969" fill="#F1F1F1" style="stroke:#181818;stroke-width:0.5;" rx="12.5" ry="12.5"/><text x="367.164" y="521.92" fill="#000" font-size="12" textLength="99.744">Confirm Booking</text><rect x="355.591" y="554.75" width="122.891" height="33.969" fill="#F1F1F1" style="stroke:#181818;stroke-width:0.5;" rx="12.5" ry="12.5"/><text x="365.591" y="575.889" fill="#000" font-size="12" textLength="102.891">Send Notification</text><ellipse cx="417.036" cy="619.719" rx="11" ry="11" fill="none" style="stroke:#222;stroke-width:1;"/><ellipse cx="417.036" cy="619.719" rx="6" ry="6" fill="#222" style="stroke:#222;stroke-width:1;"/><line x1="215.083" y1="35" x2="215.083" y2="55" style="stroke:#181818;stroke-width:1;"/><polygon points="211.083,45,215.083,55,219.083,45,215.083,49" fill="#181818" style="stroke:#181818;stroke-width:1;stroke-linejoin:miter;stroke-miterlimit:10;"/><line x1="215.083" y1="88.969" x2="215.083" y2="108.969" style="stroke:#181818;stroke-width:1;"/><polygon points="211.083,98.969,215.083,108.969,219.083,98.969,215.083,102.969" fill="#181818" style="stroke:#181818;stroke-width:1;stroke-linejoin:miter;stroke-miterlimit:10;"/><line x1="215.083" y1="142.938" x2="215.083" y2="162.938" style="stroke:#181818;stroke-width:1;"/><polygon points="211.083,152.938,215.083,162.938,219.083,152.938,215.083,156.938" fill="#181818" style="stroke:#181818;stroke-width:1;stroke-linejoin:miter;stroke-miterlimit:10;"/><line x1="215.083" y1="196.906" x2="215.083" y2="216.906" style="stroke:#181818;stroke-width:1;"/><polygon points="211.083,206.906,215.083,216.906,219.083,206.906,215.083,210.906" fill="#181818" style="stroke:#181818;stroke-width:1;stroke-linejoin:miter;stroke-miterlimit:10;"/><line x1="215.083" y1="250.875" x2="215.083" y2="270.875" style="stroke:#181818;stroke-width:1;"/><polygon points="211.083,260.875,215.083,270.875,219.083,260.875,215.083,264.875" fill="#181818" style="stroke:#181818;stroke-width:1;stroke-linejoin:miter;stroke-miterlimit:10;"/><line x1="93.213" y1="392.813" x2="93.213" y2="412.813" style="stroke:#181818;stroke-width:1;"/><polygon points="89.213,402.813,93.213,412.813,97.213,402.813,93.213,406.813" fill="#181818" style="stroke:#181818;stroke-width:1;stroke-linejoin:miter;stroke-miterlimit:10;"/><line x1="336.953" y1="392.813" x2="336.953" y2="412.813" style="stroke:#181818;stroke-width:1;"/><polygon points="332.953,402.813,336.953,412.813,340.953,402.813,336.953,406.813" fill="#181818" style="stroke:#181818;stroke-width:1;stroke-linejoin:miter;stroke-miterlimit:10;"/><line x1="256.87" y1="534.75" x2="256.87" y2="554.75" style="stroke:#181818;stroke-width:1;"/><polygon points="252.87,544.75,256.87,554.75,260.87,544.75,256.87,548.75" fill="#181818" style="stroke:#181818;stroke-width:1;stroke-linejoin:miter;stroke-miterlimit:10;"/><line x1="417.036" y1="534.75" x2="417.036" y2="554.75" style="stroke:#181818;stroke-width:1;"/><polygon points="413.036,544.75,417.036,554.75,421.036,544.75,417.036,548.75" fill="#181818" style="stroke:#181818;stroke-width:1;stroke-linejoin:miter;stroke-miterlimit:10;"/><line x1="417.036" y1="588.719" x2="417.036" y2="608.719" style="stroke:#181818;stroke-width:1;"/><polygon points="413.036,598.719,417.036,608.719,421.036,598.719,417.036,602.719" fill="#181818" style="stroke:#181818;stroke-width:1;stroke-linejoin:miter;stroke-miterlimit:10;"/><line x1="266.87" y1="478.781" x2="256.87" y2="478.781" style="stroke:#181818;stroke-width:1;"/><line x1="256.87" y1="478.781" x2="256.87" y2="500.781" style="stroke:#181818;stroke-width:1;"/><polygon points="252.87,490.781,256.87,500.781,260.87,490.781,256.87,494.781" fill="#181818" style="stroke:#181818;stroke-width:1;stroke-linejoin:miter;stroke-miterlimit:10;"/><line x1="407.036" y1="478.781" x2="417.036" y2="478.781" style="stroke:#181818;stroke-width:1;"/><line x1="417.036" y1="478.781" x2="417.036" y2="500.781" style="stroke:#181818;stroke-width:1;"/><polygon points="413.036,490.781,417.036,500.781,421.036,490.781,417.036,494.781" fill="#181818" style="stroke:#181818;stroke-width:1;stroke-linejoin:miter;stroke-miterlimit:10;"/><line x1="336.953" y1="446.781" x2="336.953" y2="466.781" style="stroke:#181818;stroke-width:1;"/><polygon points="332.953,456.781,336.953,466.781,340.953,456.781,336.953,460.781" fill="#181818" style="stroke:#181818;stroke-width:1;stroke-linejoin:miter;stroke-miterlimit:10;"/><line x1="174.947" y1="336.844" x2="93.213" y2="336.844" style="stroke:#181818;stroke-width:1;"/><line x1="93.213" y1="336.844" x2="93.213" y2="358.844" style="stroke:#181818;stroke-width:1;"/><polygon points="89.213,348.844,93.213,358.844,97.213,348.844,93.213,352.844" fill="#181818" style="stroke:#181818;stroke-width:1;stroke-linejoin:miter;stroke-miterlimit:10;"/><line x1="255.219" y1="336.844" x2="336.953" y2="336.844" style="stroke:#181818;stroke-width:1;"/><line x1="336.953" y1="336.844" x2="336.953" y2="358.844" style="stroke:#181818;stroke-width:1;"/><polygon points="332.953,348.844,336.953,358.844,340.953,348.844,336.953,352.844" fill="#181818" style="stroke:#181818;stroke-width:1;stroke-linejoin:miter;stroke-miterlimit:10;"/><line x1="215.083" y1="304.844" x2="215.083" y2="324.844" style="stroke:#181818;stroke-width:1;"/><polygon points="211.083,314.844,215.083,324.844,219.083,314.844,215.083,318.844" fill="#181818" style="stroke:#181818;stroke-width:1;stroke-linejoin:miter;stroke-miterlimit:10;"/><?plantuml-src NOzD2i8m48NtESKiwnNQXLZ1bOWe22vZdEXWEYF9QF7s9g48THDuF_C-ajH6DUrMRiITQVieOqBOM4U1b31bxqGuma5aAEA80PrMcTNwZku1gxUbO2_bujCPGnwQoGguN83UaQ7PoS80v0kH35YnP3jEEm19vMamvAGvOwhDNkJnozjz58SfmTv-1cGjNk5C4eulLsB_2d_0WhJiC43P8xvrrQmyW1cnL8KznM7UpN_cA-n4oPEpIiBp3RwID_Nz0W00?></g></svg>