<svg xmlns="http://www.w3.org/2000/svg" xmlns:xlink="http://www.w3.org/1999/xlink" version="1.1" data-diagram-type="DESCRIPTION" style="width:1195px;height:591px;background:#FFFFFF;" width="1195px" height="591px" viewBox="0 0 1195 591" zoomAndPan="magnify" preserveAspectRatio="none" contentStyleType="text/css"><?plantuml 1.2026.7beta8?><defs/><g font-family="sans-serif" lengthAdjust="spacing"><!--cluster Presentation Layer--><g class="cluster" data-qualified-name="Presentation Layer" id="ent0001" data-source-line="3"><path d="M413.5,6 L564.938,6 A3.75,3.75 0 0 1 567.438,8.5 L574.438,28.297 L618.5,28.297 A2.5,2.5 0 0 1 621,30.797 L621,90.79 A2.5,2.5 0 0 1 618.5,93.29 L413.5,93.29 A2.5,2.5 0 0 1 411,90.79 L411,8.5 A2.5,2.5 0 0 1 413.5,6" style="stroke:#000;stroke-width:1.5;" fill="none"/><line x1="411" y1="28.297" x2="574.438" y2="28.297" style="stroke:#000;stroke-width:1.5;"/><text x="415" y="20.995" fill="#000" font-size="14" textLength="150.438" font-weight="700">Presentation Layer</text></g><!--cluster Application Layer--><g class="cluster" data-qualified-name="Application Layer" id="ent0003" data-source-line="7"><path d="M171.5,142.29 L310.565,142.29 A3.75,3.75 0 0 1 313.065,144.79 L320.065,164.587 L807.5,164.587 A2.5,2.5 0 0 1 810,167.087 L810,324.39 A2.5,2.5 0 0 1 807.5,326.89 L171.5,326.89 A2.5,2.5 0 0 1 169,324.39 L169,144.79 A2.5,2.5 0 0 1 171.5,142.29" style="stroke:#000;stroke-width:1.5;" fill="none"/><line x1="169" y1="164.587" x2="320.065" y2="164.587" style="stroke:#000;stroke-width:1.5;"/><text x="173" y="157.285" fill="#000" font-size="14" textLength="138.065" font-weight="700">Application Layer</text></g><!--cluster Business Layer--><g class="cluster" data-qualified-name="Business Layer" id="ent0010" data-source-line="16"><path d="M421.5,359.89 L541.165,359.89 A3.75,3.75 0 0 1 543.665,362.39 L550.665,382.187 L1148.5,382.187 A2.5,2.5 0 0 1 1151,384.687 L1151,444.68 A2.5,2.5 0 0 1 1148.5,447.18 L421.5,447.18 A2.5,2.5 0 0 1 419,444.68 L419,362.39 A2.5,2.5 0 0 1 421.5,359.89" style="stroke:#000;stroke-width:1.5;" fill="none"/><line x1="419" y1="382.187" x2="550.665" y2="382.187" style="stroke:#000;stroke-width:1.5;"/><text x="423" y="374.885" fill="#000" font-size="14" textLength="118.665" font-weight="700">Business Layer</text></g><!--cluster Persistence Layer--><g class="cluster" data-qualified-name="Persistence Layer" id="ent0015" data-source-line="23"><path d="M754.5,480.18 L896.341,480.18 A3.75,3.75 0 0 1 898.841,482.68 L905.841,502.477 L1023.5,502.477 A2.5,2.5 0 0 1 1026,504.977 L1026,573.98 A2.5,2.5 0 0 1 1023.5,576.48 L754.5,576.48 A2.5,2.5 0 0 1 752,573.98 L752,482.68 A2.5,2.5 0 0 1 754.5,480.18" style="stroke:#000;stroke-width:1.5;" fill="none"/><line x1="752" y1="502.477" x2="905.841" y2="502.477" style="stroke:#000;stroke-width:1.5;"/><text x="756" y="495.175" fill="#000" font-size="14" textLength="140.841" font-weight="700">Persistence Layer</text></g><!--cluster External Systems--><g class="cluster" data-qualified-name="External Systems" id="ent0018" data-source-line="28"><path d="M8.5,484.68 L146.923,484.68 A3.75,3.75 0 0 1 149.423,487.18 L156.423,506.977 L634.5,506.977 A2.5,2.5 0 0 1 637,509.477 L637,569.48 A2.5,2.5 0 0 1 634.5,571.98 L8.5,571.98 A2.5,2.5 0 0 1 6,569.48 L6,487.18 A2.5,2.5 0 0 1 8.5,484.68" style="stroke:#000;stroke-width:1.5;" fill="none"/><line x1="6" y1="506.977" x2="156.423" y2="506.977" style="stroke:#000;stroke-width:1.5;"/><text x="10" y="499.675" fill="#000" font-size="14" textLength="137.423" font-weight="700">External Systems</text></g><!--entity UI--><g class="entity" data-qualified-name="Presentation Layer.UI" id="ent0002" data-source-line="4"><rect x="426.71" y="41" width="178.573" height="36.297" fill="#F1F1F1" style="stroke:#181818;stroke-width:0.5;" rx="2.5" ry="2.5"/><text x="436.71" y="63.995" fill="#000" font-size="14" textLength="158.573">React Web Application</text></g><!--entity REST--><g class="entity" data-qualified-name="Application Layer.REST" id="ent0004" data-source-line="8"><rect x="447.54" y="177.29" width="136.929" height="36.297" fill="#F1F1F1" style="stroke:#181818;stroke-width:0.5;" rx="2.5" ry="2.5"/><text x="457.54" y="200.285" fill="#000" font-size="14" textLength="116.929">REST Controllers</text></g><!--entity AppAuth--><g class="entity" data-qualified-name="Application Layer.AppAuth" id="ent0005" data-source-line="9"><rect x="184.61" y="274.59" width="122.771" height="36.297" fill="#F1F1F1" style="stroke:#181818;stroke-width:0.5;" rx="2.5" ry="2.5"/><text x="194.61" y="297.585" fill="#000" font-size="14" textLength="102.771">Authentication</text></g><!--entity AppInv--><g class="entity" data-qualified-name="Application Layer.AppInv" id="ent0006" data-source-line="10"><rect x="589.35" y="274.59" width="99.297" height="36.297" fill="#F1F1F1" style="stroke:#181818;stroke-width:0.5;" rx="2.5" ry="2.5"/><text x="599.35" y="297.585" fill="#000" font-size="14" textLength="79.297">Investment</text></g><!--entity AppBook--><g class="entity" data-qualified-name="Application Layer.AppBook" id="ent0007" data-source-line="11"><rect x="477.75" y="274.59" width="76.492" height="36.297" fill="#F1F1F1" style="stroke:#181818;stroke-width:0.5;" rx="2.5" ry="2.5"/><text x="487.75" y="297.585" fill="#000" font-size="14" textLength="56.492">Booking</text></g><!--entity AppFac--><g class="entity" data-qualified-name="Application Layer.AppFac" id="ent0008" data-source-line="12"><rect x="724.11" y="274.59" width="69.772" height="36.297" fill="#F1F1F1" style="stroke:#181818;stroke-width:0.5;" rx="2.5" ry="2.5"/><text x="734.11" y="297.585" fill="#000" font-size="14" textLength="49.772">Facility</text></g><!--entity AppNotif--><g class="entity" data-qualified-name="Application Layer.AppNotif" id="ent0009" data-source-line="13"><rect x="342.84" y="274.59" width="100.329" height="36.297" fill="#F1F1F1" style="stroke:#181818;stroke-width:0.5;" rx="2.5" ry="2.5"/><text x="352.84" y="297.585" fill="#000" font-size="14" textLength="80.329">Notification</text></g><!--entity InvLogic--><g class="entity" data-qualified-name="Business Layer.InvLogic" id="ent0011" data-source-line="17"><rect x="784.71" y="394.89" width="140.586" height="36.297" fill="#F1F1F1" style="stroke:#181818;stroke-width:0.5;" rx="2.5" ry="2.5"/><text x="794.71" y="417.885" fill="#000" font-size="14" textLength="120.586">Investment Logic</text></g><!--entity BookLogic--><g class="entity" data-qualified-name="Business Layer.BookLogic" id="ent0012" data-source-line="18"><rect x="632.11" y="394.89" width="117.781" height="36.297" fill="#F1F1F1" style="stroke:#181818;stroke-width:0.5;" rx="2.5" ry="2.5"/><text x="642.11" y="417.885" fill="#000" font-size="14" textLength="97.781">Booking Logic</text></g><!--entity Portfolio--><g class="entity" data-qualified-name="Business Layer.Portfolio" id="ent0013" data-source-line="19"><rect x="960.62" y="394.89" width="174.766" height="36.297" fill="#F1F1F1" style="stroke:#181818;stroke-width:0.5;" rx="2.5" ry="2.5"/><text x="970.62" y="417.885" fill="#000" font-size="14" textLength="154.766">Portfolio Management</text></g><!--entity PaymentProc--><g class="entity" data-qualified-name="Business Layer.PaymentProc" id="ent0014" data-source-line="20"><rect x="435.16" y="394.89" width="161.682" height="36.297" fill="#F1F1F1" style="stroke:#181818;stroke-width:0.5;" rx="2.5" ry="2.5"/><text x="445.16" y="417.885" fill="#000" font-size="14" textLength="141.682">Payment Processing</text></g><!--entity PGDB--><g class="entity" data-qualified-name="Persistence Layer.PGDB" id="ent0016" data-source-line="24"><path d="M909.62,525.18 C909.62,515.18 959.996,515.18 959.996,515.18 C959.996,515.18 1010.373,515.18 1010.373,525.18 L1010.373,550.477 C1010.373,560.477 959.996,560.477 959.996,560.477 C959.996,560.477 909.62,560.477 909.62,550.477 L909.62,525.18" style="stroke:#181818;stroke-width:0.5;" fill="#F1F1F1"/><path d="M909.62,525.18 C909.62,535.18 959.996,535.18 959.996,535.18 C959.996,535.18 1010.373,535.18 1010.373,525.18" style="stroke:#181818;stroke-width:0.5;" fill="none"/><text x="919.62" y="552.175" fill="#000" font-size="14" textLength="80.753">PostgreSQL</text></g><!--entity Redis--><g class="entity" data-qualified-name="Persistence Layer.Redis" id="ent0017" data-source-line="25"><path d="M767.8,525.18 C767.8,515.18 821,515.18 821,515.18 C821,515.18 874.199,515.18 874.199,525.18 L874.199,550.477 C874.199,560.477 821,560.477 821,560.477 C821,560.477 767.8,560.477 767.8,550.477 L767.8,525.18" style="stroke:#181818;stroke-width:0.5;" fill="#F1F1F1"/><path d="M767.8,525.18 C767.8,535.18 821,535.18 821,535.18 C821,535.18 874.199,535.18 874.199,525.18" style="stroke:#181818;stroke-width:0.5;" fill="none"/><text x="777.8" y="552.175" fill="#000" font-size="14" textLength="86.399">Redis Cache</text></g><!--entity PG--><g class="entity" data-qualified-name="External Systems.PG" id="ent0019" data-source-line="29"><rect x="472.89" y="519.68" width="148.215" height="36.297" fill="#F1F1F1" style="stroke:#181818;stroke-width:0.5;" rx="2.5" ry="2.5"/><text x="482.89" y="542.675" fill="#000" font-size="14" textLength="128.215">Payment Gateway</text></g><!--entity EmailAPI--><g class="entity" data-qualified-name="External Systems.EmailAPI" id="ent0020" data-source-line="30"><rect x="352.28" y="519.68" width="85.44" height="36.297" fill="#F1F1F1" style="stroke:#181818;stroke-width:0.5;" rx="2.5" ry="2.5"/><text x="362.28" y="542.675" fill="#000" font-size="14" textLength="65.44">Email API</text></g><!--entity SMSAPI--><g class="entity" data-qualified-name="External Systems.SMSAPI" id="ent0021" data-source-line="31"><rect x="240.77" y="519.68" width="76.451" height="36.297" fill="#F1F1F1" style="stroke:#181818;stroke-width:0.5;" rx="2.5" ry="2.5"/><text x="250.77" y="542.675" fill="#000" font-size="14" textLength="56.451">SMS API</text></g><!--entity IDVAPI--><g class="entity" data-qualified-name="External Systems.IDVAPI" id="ent0022" data-source-line="32"><rect x="21.77" y="519.68" width="184.452" height="36.297" fill="#F1F1F1" style="stroke:#181818;stroke-width:0.5;" rx="2.5" ry="2.5"/><text x="31.77" y="542.675" fill="#000" font-size="14" textLength="164.452">Identity Verification API</text></g><!--link UI to REST--><g class="link" data-entity-1="ent0002" data-entity-2="ent0004" id="lnk23" data-source-line="35" data-link-type="dependency"><path d="M516,77.7 C516,103.44 516,146.14 516,171.88" style="stroke:#181818;stroke-width:1;" fill="none" id="UI-to-REST"/><polygon points="516,176.88,520,167.88,516,171.88,512,167.88,516,176.88" fill="#181818" style="stroke:#181818;stroke-width:1;stroke-linejoin:miter;stroke-miterlimit:10;"/><text x="517" y="122.357" fill="#000" font-size="13" textLength="71.316">HTTP/REST</text></g><!--link REST to AppAuth--><g class="link" data-entity-1="ent0004" data-entity-2="ent0005" id="lnk24" data-source-line="37" data-link-type="dependency"><path d="M466.16,214.03 C417.56,231.19 348.765,255.466 300.265,272.586" style="stroke:#181818;stroke-width:1;" fill="none" id="REST-to-AppAuth"/><polygon points="295.55,274.25,305.368,275.026,300.265,272.586,302.705,267.482,295.55,274.25" fill="#181818" style="stroke:#181818;stroke-width:1;stroke-linejoin:miter;stroke-miterlimit:10;"/></g><!--link REST to AppInv--><g class="link" data-entity-1="ent0004" data-entity-2="ent0006" id="lnk25" data-source-line="38" data-link-type="dependency"><path d="M538.56,213.92 C560.75,231.11 590.488,254.147 612.628,271.307" style="stroke:#181818;stroke-width:1;" fill="none" id="REST-to-AppInv"/><polygon points="616.58,274.37,611.917,265.695,612.628,271.307,607.016,272.018,616.58,274.37" fill="#181818" style="stroke:#181818;stroke-width:1;stroke-linejoin:miter;stroke-miterlimit:10;"/></g><!--link REST to AppBook--><g class="link" data-entity-1="ent0004" data-entity-2="ent0007" id="lnk26" data-source-line="39" data-link-type="dependency"><path d="M516,213.92 C516,231.11 516,252.21 516,269.37" style="stroke:#181818;stroke-width:1;" fill="none" id="REST-to-AppBook"/><polygon points="516,274.37,520,265.37,516,269.37,512,265.37,516,274.37" fill="#181818" style="stroke:#181818;stroke-width:1;stroke-linejoin:miter;stroke-miterlimit:10;"/></g><!--link REST to AppFac--><g class="link" data-entity-1="ent0004" data-entity-2="ent0008" id="lnk27" data-source-line="40" data-link-type="dependency"><path d="M560.85,214.03 C607.89,232.48 676.175,259.254 719.205,276.134" style="stroke:#181818;stroke-width:1;" fill="none" id="REST-to-AppFac"/><polygon points="723.86,277.96,716.942,270.95,719.205,276.134,714.021,278.397,723.86,277.96" fill="#181818" style="stroke:#181818;stroke-width:1;stroke-linejoin:miter;stroke-miterlimit:10;"/></g><!--link REST to AppNotif--><g class="link" data-entity-1="ent0004" data-entity-2="ent0009" id="lnk28" data-source-line="41" data-link-type="dependency"><path d="M493.44,213.92 C471.25,231.11 441.512,254.147 419.372,271.307" style="stroke:#181818;stroke-width:1;" fill="none" id="REST-to-AppNotif"/><polygon points="415.42,274.37,424.984,272.018,419.372,271.307,420.083,265.695,415.42,274.37" fill="#181818" style="stroke:#181818;stroke-width:1;stroke-linejoin:miter;stroke-miterlimit:10;"/></g><!--link AppInv to InvLogic--><g class="link" data-entity-1="ent0006" data-entity-2="ent0011" id="lnk29" data-source-line="43" data-link-type="dependency"><path d="M664.28,311.26 C676.72,319.3 692.19,328.45 707,334.89 C732.42,345.94 741.9,340.14 767,351.89 C791.47,363.34 812.704,378.22 829.824,391.54" style="stroke:#181818;stroke-width:1;" fill="none" id="AppInv-to-InvLogic"/><polygon points="833.77,394.61,829.123,385.926,829.824,391.54,824.21,392.24,833.77,394.61" fill="#181818" style="stroke:#181818;stroke-width:1;stroke-linejoin:miter;stroke-miterlimit:10;"/></g><!--link AppBook to BookLogic--><g class="link" data-entity-1="ent0007" data-entity-2="ent0012" id="lnk30" data-source-line="44" data-link-type="dependency"><path d="M537.23,311.28 C547.35,319.13 559.89,328.12 572,334.89 C589.58,344.7 596.56,341.81 614,351.89 C635.15,364.11 653.093,378.333 668.053,391.313" style="stroke:#181818;stroke-width:1;" fill="none" id="AppBook-to-BookLogic"/><polygon points="671.83,394.59,667.654,385.671,668.053,391.313,662.411,391.713,671.83,394.59" fill="#181818" style="stroke:#181818;stroke-width:1;stroke-linejoin:miter;stroke-miterlimit:10;"/></g><!--link AppInv to Portfolio--><g class="link" data-entity-1="ent0006" data-entity-2="ent0013" id="lnk31" data-source-line="45" data-link-type="dependency"><path d="M661.89,311.35 C674.5,320.04 690.83,329.74 707,334.89 C757.11,350.83 892.71,336.55 943,351.89 C973.34,361.14 1000.322,377.536 1020.712,391.786" style="stroke:#181818;stroke-width:1;" fill="none" id="AppInv-to-Portfolio"/><polygon points="1024.81,394.65,1019.724,386.216,1020.712,391.786,1015.142,392.773,1024.81,394.65" fill="#181818" style="stroke:#181818;stroke-width:1;stroke-linejoin:miter;stroke-miterlimit:10;"/></g><!--link AppInv to PaymentProc--><g class="link" data-entity-1="ent0006" data-entity-2="ent0014" id="lnk32" data-source-line="46" data-link-type="dependency"><path d="M620.85,311.19 C597.6,333.56 561.114,368.644 537.824,391.044" style="stroke:#181818;stroke-width:1;" fill="none" id="AppInv-to-PaymentProc"/><polygon points="534.22,394.51,543.48,391.154,537.824,391.044,537.934,385.388,534.22,394.51" fill="#181818" style="stroke:#181818;stroke-width:1;stroke-linejoin:miter;stroke-miterlimit:10;"/></g><!--link AppBook to PaymentProc--><g class="link" data-entity-1="ent0007" data-entity-2="ent0014" id="lnk33" data-source-line="47" data-link-type="dependency"><path d="M516,311.19 C516,333.56 516,367.11 516,389.51" style="stroke:#181818;stroke-width:1;" fill="none" id="AppBook-to-PaymentProc"/><polygon points="516,394.51,520,385.51,516,389.51,512,385.51,516,394.51" fill="#181818" style="stroke:#181818;stroke-width:1;stroke-linejoin:miter;stroke-miterlimit:10;"/></g><!--link InvLogic to PGDB--><g class="link" data-entity-1="ent0011" data-entity-2="ent0016" id="lnk34" data-source-line="49" data-link-type="dependency"><path d="M870.04,431.63 C888.76,453.51 917.471,487.089 937.821,510.899" style="stroke:#181818;stroke-width:1;" fill="none" id="InvLogic-to-PGDB"/><polygon points="941.07,514.7,938.263,505.26,937.821,510.899,932.182,510.457,941.07,514.7" fill="#181818" style="stroke:#181818;stroke-width:1;stroke-linejoin:miter;stroke-miterlimit:10;"/></g><!--link BookLogic to PGDB--><g class="link" data-entity-1="ent0012" data-entity-2="ent0016" id="lnk35" data-source-line="50" data-link-type="dependency"><path d="M717.72,431.59 C731.82,440.05 749.74,449.55 767,455.18 C820.3,472.59 841.46,447.91 892,472.18 C912.41,481.98 927.455,496.396 939.915,511.006" style="stroke:#181818;stroke-width:1;" fill="none" id="BookLogic-to-PGDB"/><polygon points="943.16,514.81,940.363,505.367,939.915,511.006,934.276,510.558,943.16,514.81" fill="#181818" style="stroke:#181818;stroke-width:1;stroke-linejoin:miter;stroke-miterlimit:10;"/></g><!--link Portfolio to PGDB--><g class="link" data-entity-1="ent0013" data-entity-2="ent0016" id="lnk36" data-source-line="51" data-link-type="dependency"><path d="M1035.39,431.63 C1019.71,453.51 995.832,486.826 978.772,510.636" style="stroke:#181818;stroke-width:1;" fill="none" id="Portfolio-to-PGDB"/><polygon points="975.86,514.7,984.353,509.714,978.772,510.636,977.85,505.054,975.86,514.7" fill="#181818" style="stroke:#181818;stroke-width:1;stroke-linejoin:miter;stroke-miterlimit:10;"/></g><!--link AppFac to PGDB--><g class="link" data-entity-1="ent0008" data-entity-2="ent0016" id="lnk37" data-source-line="52" data-link-type="dependency"><path d="M794.31,293.38 C881.82,293.34 1104.99,298.55 1151,351.89 C1180.99,386.65 1176.29,416.87 1151,455.18 C1120.01,502.13 1060.775,521.259 1015.395,529.759" style="stroke:#181818;stroke-width:1;" fill="none" id="AppFac-to-PGDB"/><polygon points="1010.48,530.68,1020.063,532.955,1015.395,529.759,1018.59,525.091,1010.48,530.68" fill="#181818" style="stroke:#181818;stroke-width:1;stroke-linejoin:miter;stroke-miterlimit:10;"/></g><!--link InvLogic to Redis--><g class="link" data-entity-1="ent0011" data-entity-2="ent0017" id="lnk38" data-source-line="54" data-link-type="dependency"><path d="M850.13,431.63 C844.07,453.51 835.054,486.071 828.464,509.881" style="stroke:#181818;stroke-width:1;" fill="none" id="InvLogic-to-Redis"/><polygon points="827.13,514.7,833.386,507.093,828.464,509.881,825.676,504.959,827.13,514.7" fill="#181818" style="stroke:#181818;stroke-width:1;stroke-linejoin:miter;stroke-miterlimit:10;"/></g><!--link BookLogic to Redis--><g class="link" data-entity-1="ent0012" data-entity-2="ent0017" id="lnk39" data-source-line="55" data-link-type="dependency"><path d="M706.28,431.67 C715.01,441.5 726.32,453.81 737,464.18 C755.26,481.91 773.18,497.478 789.98,511.488" style="stroke:#181818;stroke-width:1;" fill="none" id="BookLogic-to-Redis"/><polygon points="793.82,514.69,789.47,505.854,789.98,511.488,784.346,511.998,793.82,514.69" fill="#181818" style="stroke:#181818;stroke-width:1;stroke-linejoin:miter;stroke-miterlimit:10;"/></g><!--link PaymentProc to PG--><g class="link" data-entity-1="ent0014" data-entity-2="ent0019" id="lnk40" data-source-line="57" data-link-type="dependency"><path d="M520.44,431.63 C526.33,454.97 535.456,491.092 541.346,514.422" style="stroke:#181818;stroke-width:1;" fill="none" id="PaymentProc-to-PG"/><polygon points="542.57,519.27,544.245,509.565,541.346,514.422,536.489,511.523,542.57,519.27" fill="#181818" style="stroke:#181818;stroke-width:1;stroke-linejoin:miter;stroke-miterlimit:10;"/></g><!--link AppAuth to IDVAPI--><g class="link" data-entity-1="ent0005" data-entity-2="ent0022" id="lnk41" data-source-line="58" data-link-type="dependency"><path d="M236.51,311.22 C212.15,356.07 150.056,470.436 125.796,515.116" style="stroke:#181818;stroke-width:1;" fill="none" id="AppAuth-to-IDVAPI"/><polygon points="123.41,519.51,131.22,513.509,125.796,515.116,124.189,509.692,123.41,519.51" fill="#181818" style="stroke:#181818;stroke-width:1;stroke-linejoin:miter;stroke-miterlimit:10;"/></g><!--link AppNotif to EmailAPI--><g class="link" data-entity-1="ent0009" data-entity-2="ent0020" id="lnk42" data-source-line="59" data-link-type="dependency"><path d="M393.14,311.22 C393.51,356.07 394.449,469.83 394.819,514.51" style="stroke:#181818;stroke-width:1;" fill="none" id="AppNotif-to-EmailAPI"/><polygon points="394.86,519.51,398.785,510.477,394.819,514.51,390.786,510.543,394.86,519.51" fill="#181818" style="stroke:#181818;stroke-width:1;stroke-linejoin:miter;stroke-miterlimit:10;"/></g><!--link AppNotif to SMSAPI--><g class="link" data-entity-1="ent0009" data-entity-2="ent0021" id="lnk43" data-source-line="60" data-link-type="dependency"><path d="M384.8,311.22 C363.77,356.07 310.204,470.303 289.244,514.983" style="stroke:#181818;stroke-width:1;" fill="none" id="AppNotif-to-SMSAPI"/><polygon points="287.12,519.51,294.564,513.061,289.244,514.983,287.321,509.663,287.12,519.51" fill="#181818" style="stroke:#181818;stroke-width:1;stroke-linejoin:miter;stroke-miterlimit:10;"/></g><?plantuml-src NP9DRzim38Rl_XL4xaNlEmn8sYmpa0vUdNQ7OGTMOLsXjXH8QZTZs7-VIDcot9lul1I__Qis5tGuWBB3nHeoeGrZJ-181JHTJrLrGVMA7S6cSUIZ0mPj3Hnn9BU1lnN0ptj25U07FS7sSkcr4ezVW1uUwkfV4Q6Grm7sxGbkh0dEzZqvBtyPihXz2oynRHasnc7AQctUoOSXEinA92pih8tDTJDba_4NLBhNOPnvj1b_iq4_VqWXR5N_xirhGzwlYbygWAFjj9Bl4OfHL5AeJBBSM1UURQyjtA69QN8lMH0l72L5uwoA5SoTJPZfgj8cJb7xG4PHMUmP0pwXPmVhG-Ue_NxSI9p3xMwbtzDPUxX1zKBY8FOgnVvF86UmXtQCYGO_ZMCkz821VcEQStDWPJ-Wxc7RrCB4YWOhxLsRUNnFj3xpsiC8Z-JoSh9VVVl8Vh6YXngkhZxBlS0d-7ewDTToEvKGbkPxAG6VIMdBWPI0BwEqqpbKwQl0lEJfky1bjuNdiieI5hih8vIycdCaXRUK4oneEQ6CKWEBlGwKjhcEb5XLP9z-LzFuKizfxFCyXELLhcXQv7y0?></g></svg>