<svg xmlns="http://www.w3.org/2000/svg" xmlns:xlink="http://www.w3.org/1999/xlink" version="1.1" data-diagram-type="SEQUENCE" style="width:940px;height:997px;background:#FFFFFF;" width="940px" height="997px" viewBox="0 0 940 997" zoomAndPan="magnify" preserveAspectRatio="none" contentStyleType="text/css"><?plantuml 1.2026.7beta8?><defs/><g font-family="sans-serif" lengthAdjust="spacing"><g><title>Investor</title><rect x="44.5" y="86.297" width="8" height="823.797" fill="#000" fill-opacity="0"/><line x1="48" y1="86.297" x2="48" y2="910.094" style="stroke:#181818;stroke-width:0.5;stroke-dasharray:5,5;"/></g><g><title>Booking Service</title><rect x="299.692" y="86.297" width="8" height="823.797" fill="#000" fill-opacity="0"/><line x1="303.192" y1="86.297" x2="303.192" y2="910.094" style="stroke:#181818;stroke-width:0.5;stroke-dasharray:5,5;"/></g><g><title></title><rect x="298.192" y="115.43" width="10" height="87.398" fill="#FFF" style="stroke:#181818;stroke-width:1;"/></g><g><title></title><rect x="298.192" y="231.961" width="10" height="668.133" fill="#FFF" style="stroke:#181818;stroke-width:1;"/></g><g><title>Facility Service</title><rect x="433.016" y="86.297" width="8" height="823.797" fill="#000" fill-opacity="0"/><line x1="436.516" y1="86.297" x2="436.516" y2="910.094" style="stroke:#181818;stroke-width:0.5;stroke-dasharray:5,5;"/></g><g><title></title><rect x="431.516" y="144.563" width="10" height="29.133" fill="#FFF" style="stroke:#181818;stroke-width:1;"/></g><g><title>Room Service</title><rect x="558.342" y="86.297" width="8" height="823.797" fill="#000" fill-opacity="0"/><line x1="561.842" y1="86.297" x2="561.842" y2="910.094" style="stroke:#181818;stroke-width:0.5;stroke-dasharray:5,5;"/></g><g><title></title><rect x="556.842" y="261.094" width="10" height="29.133" fill="#FFF" style="stroke:#181818;stroke-width:1;"/></g><g><title></title><rect x="556.842" y="319.359" width="10" height="29.133" fill="#FFF" style="stroke:#181818;stroke-width:1;"/></g><g><title></title><rect x="556.842" y="408.758" width="10" height="29.133" fill="#FFF" style="stroke:#181818;stroke-width:1;"/></g><g><title></title><rect x="556.842" y="745.891" width="10" height="29.133" fill="#FFF" style="stroke:#181818;stroke-width:1;"/></g><g><title>Payment Gateway</title><rect x="694.793" y="86.297" width="8" height="823.797" fill="#000" fill-opacity="0"/><line x1="698.293" y1="86.297" x2="698.293" y2="910.094" style="stroke:#181818;stroke-width:0.5;stroke-dasharray:5,5;"/></g><g><title></title><rect x="693.293" y="467.023" width="10" height="60.266" fill="#FFF" style="stroke:#181818;stroke-width:1;"/></g><g><title>Notification Service</title><rect x="851.161" y="86.297" width="8" height="823.797" fill="#000" fill-opacity="0"/><line x1="854.661" y1="86.297" x2="854.661" y2="910.094" style="stroke:#181818;stroke-width:0.5;stroke-dasharray:5,5;"/></g><g><title></title><rect x="849.661" y="598.555" width="10" height="29.133" fill="#FFF" style="stroke:#181818;stroke-width:1;"/></g><text x="16.498" y="82.995" fill="#000" font-size="14" textLength="57.005">Investor</text><ellipse cx="48" cy="18.5" rx="8" ry="8" fill="#E2E2F0" style="stroke:#181818;stroke-width:0.5;"/><path d="M48,26.5 L48,53.5 M35,34.5 L61,34.5 M48,53.5 L35,68.5 M48,53.5 L61,68.5" style="stroke:#181818;stroke-width:0.5;" fill="none"/><rect x="239.851" y="55" width="126.684" height="30.297" fill="#E2E2F0" style="stroke:#181818;stroke-width:0.5;" rx="2.5" ry="2.5"/><text x="246.851" y="74.995" fill="#000" font-size="14" textLength="112.684">Booking Service</text><rect x="376.534" y="55" width="119.964" height="30.297" fill="#E2E2F0" style="stroke:#181818;stroke-width:0.5;" rx="2.5" ry="2.5"/><text x="383.534" y="74.995" fill="#000" font-size="14" textLength="105.964">Facility Service</text><rect x="506.498" y="55" width="110.688" height="30.297" fill="#E2E2F0" style="stroke:#181818;stroke-width:0.5;" rx="2.5" ry="2.5"/><text x="513.498" y="74.995" fill="#000" font-size="14" textLength="96.688">Room Service</text><rect x="627.186" y="55" width="142.215" height="30.297" fill="#E2E2F0" style="stroke:#181818;stroke-width:0.5;" rx="2.5" ry="2.5"/><text x="634.186" y="74.995" fill="#000" font-size="14" textLength="128.215">Payment Gateway</text><rect x="779.4" y="55" width="150.521" height="30.297" fill="#E2E2F0" style="stroke:#181818;stroke-width:0.5;" rx="2.5" ry="2.5"/><text x="786.4" y="74.995" fill="#000" font-size="14" textLength="136.521">Notification Service</text><text x="16.498" y="923.089" fill="#000" font-size="14" textLength="57.005">Investor</text><ellipse cx="48" cy="934.891" rx="8" ry="8" fill="#E2E2F0" style="stroke:#181818;stroke-width:0.5;"/><path d="M48,942.891 L48,969.891 M35,950.891 L61,950.891 M48,969.891 L35,984.891 M48,969.891 L61,984.891" style="stroke:#181818;stroke-width:0.5;" fill="none"/><rect x="239.851" y="910.094" width="126.684" height="30.297" fill="#E2E2F0" style="stroke:#181818;stroke-width:0.5;" rx="2.5" ry="2.5"/><text x="246.851" y="930.089" fill="#000" font-size="14" textLength="112.684">Booking Service</text><rect x="376.534" y="910.094" width="119.964" height="30.297" fill="#E2E2F0" style="stroke:#181818;stroke-width:0.5;" rx="2.5" ry="2.5"/><text x="383.534" y="930.089" fill="#000" font-size="14" textLength="105.964">Facility Service</text><rect x="506.498" y="910.094" width="110.688" height="30.297" fill="#E2E2F0" style="stroke:#181818;stroke-width:0.5;" rx="2.5" ry="2.5"/><text x="513.498" y="930.089" fill="#000" font-size="14" textLength="96.688">Room Service</text><rect x="627.186" y="910.094" width="142.215" height="30.297" fill="#E2E2F0" style="stroke:#181818;stroke-width:0.5;" rx="2.5" ry="2.5"/><text x="634.186" y="930.089" fill="#000" font-size="14" textLength="128.215">Payment Gateway</text><rect x="779.4" y="910.094" width="150.521" height="30.297" fill="#E2E2F0" style="stroke:#181818;stroke-width:0.5;" rx="2.5" ry="2.5"/><text x="786.4" y="930.089" fill="#000" font-size="14" textLength="136.521">Notification Service</text><polygon points="286.192,111.43,296.192,115.43,286.192,119.43,290.192,115.43" fill="#181818" style="stroke:#181818;stroke-width:1;stroke-linejoin:miter;stroke-miterlimit:10;"/><line x1="48" y1="115.43" x2="292.192" y2="115.43" style="stroke:#181818;stroke-width:1;"/><text x="55" y="110.364" fill="#000" font-size="13" textLength="92.396">Search facility</text><polygon points="419.516,140.563,429.516,144.563,419.516,148.563,423.516,144.563" fill="#181818" style="stroke:#181818;stroke-width:1;stroke-linejoin:miter;stroke-miterlimit:10;"/><line x1="308.192" y1="144.563" x2="425.516" y2="144.563" style="stroke:#181818;stroke-width:1;"/><text x="315.192" y="139.497" fill="#000" font-size="13" textLength="97.646">Query facilities</text><polygon points="319.192,169.695,309.192,173.695,319.192,177.695,315.192,173.695" fill="#181818" style="stroke:#181818;stroke-width:1;stroke-linejoin:miter;stroke-miterlimit:10;"/><line x1="313.192" y1="173.695" x2="430.516" y2="173.695" style="stroke:#181818;stroke-width:1;stroke-dasharray:2,2;"/><text x="325.192" y="168.629" fill="#000" font-size="13" textLength="69.443">Facility list</text><polygon points="59,198.828,49,202.828,59,206.828,55,202.828" fill="#181818" style="stroke:#181818;stroke-width:1;stroke-linejoin:miter;stroke-miterlimit:10;"/><line x1="53" y1="202.828" x2="297.192" y2="202.828" style="stroke:#181818;stroke-width:1;stroke-dasharray:2,2;"/><text x="65" y="197.762" fill="#000" font-size="13" textLength="106.057">Display facilities</text><polygon points="286.192,227.961,296.192,231.961,286.192,235.961,290.192,231.961" fill="#181818" style="stroke:#181818;stroke-width:1;stroke-linejoin:miter;stroke-miterlimit:10;"/><line x1="48" y1="231.961" x2="292.192" y2="231.961" style="stroke:#181818;stroke-width:1;"/><text x="55" y="226.895" fill="#000" font-size="13" textLength="78.152">Select room</text><polygon points="544.842,257.094,554.842,261.094,544.842,265.094,548.842,261.094" fill="#181818" style="stroke:#181818;stroke-width:1;stroke-linejoin:miter;stroke-miterlimit:10;"/><line x1="308.192" y1="261.094" x2="550.842" y2="261.094" style="stroke:#181818;stroke-width:1;"/><text x="315.192" y="256.028" fill="#000" font-size="13" textLength="108.659">Get room details</text><polygon points="319.192,286.227,309.192,290.227,319.192,294.227,315.192,290.227" fill="#181818" style="stroke:#181818;stroke-width:1;stroke-linejoin:miter;stroke-miterlimit:10;"/><line x1="313.192" y1="290.227" x2="555.842" y2="290.227" style="stroke:#181818;stroke-width:1;stroke-dasharray:2,2;"/><text x="325.192" y="285.161" fill="#000" font-size="13" textLength="85.046">Room details</text><polygon points="544.842,315.359,554.842,319.359,544.842,323.359,548.842,319.359" fill="#181818" style="stroke:#181818;stroke-width:1;stroke-linejoin:miter;stroke-miterlimit:10;"/><line x1="308.192" y1="319.359" x2="550.842" y2="319.359" style="stroke:#181818;stroke-width:1;"/><text x="315.192" y="314.293" fill="#000" font-size="13" textLength="114.816">Check availability</text><polygon points="319.192,344.492,309.192,348.492,319.192,352.492,315.192,348.492" fill="#181818" style="stroke:#181818;stroke-width:1;stroke-linejoin:miter;stroke-miterlimit:10;"/><line x1="313.192" y1="348.492" x2="555.842" y2="348.492" style="stroke:#181818;stroke-width:1;stroke-dasharray:2,2;"/><text x="325.192" y="343.426" fill="#000" font-size="13" textLength="115.699">Availability status</text><path d="M13,360.492 L77.443,360.492 L77.443,367.625 L67.443,377.625 L13,377.625 L13,360.492" style="stroke:#000;stroke-width:1.5;" fill="#EEE"/><rect x="13" y="360.492" width="887.661" height="525.602" fill="none" style="stroke:#000;stroke-width:1.5;"/><text x="28" y="373.559" fill="#000" font-size="13" textLength="19.443" font-weight="700">alt</text><text x="92.443" y="372.703" fill="#000" font-size="11" textLength="106.106" font-weight="700">[Room Available]</text><line x1="13" y1="837.156" x2="900.661" y2="837.156" style="stroke:#000;stroke-width:1;stroke-dasharray:2,2;"/><text x="18" y="849.367" fill="#000" font-size="11" textLength="131.957" font-weight="700">[Room Not Available]</text><polygon points="544.842,404.758,554.842,408.758,544.842,412.758,548.842,408.758" fill="#181818" style="stroke:#181818;stroke-width:1;stroke-linejoin:miter;stroke-miterlimit:10;"/><line x1="308.192" y1="408.758" x2="550.842" y2="408.758" style="stroke:#181818;stroke-width:1;"/><text x="315.192" y="403.692" fill="#000" font-size="13" textLength="90.886">Reserve room</text><polygon points="319.192,433.891,309.192,437.891,319.192,441.891,315.192,437.891" fill="#181818" style="stroke:#181818;stroke-width:1;stroke-linejoin:miter;stroke-miterlimit:10;"/><line x1="313.192" y1="437.891" x2="555.842" y2="437.891" style="stroke:#181818;stroke-width:1;stroke-dasharray:2,2;"/><text x="325.192" y="432.825" fill="#000" font-size="13" textLength="99.138">Room reserved</text><polygon points="681.293,463.023,691.293,467.023,681.293,471.023,685.293,467.023" fill="#181818" style="stroke:#181818;stroke-width:1;stroke-linejoin:miter;stroke-miterlimit:10;"/><line x1="308.192" y1="467.023" x2="687.293" y2="467.023" style="stroke:#181818;stroke-width:1;"/><text x="315.192" y="461.958" fill="#000" font-size="13" textLength="111.871">Process payment</text><path d="M32,479.023 L96.443,479.023 L96.443,486.156 L86.443,496.156 L32,496.156 L32,479.023" style="stroke:#000;stroke-width:1.5;" fill="#EEE"/><rect x="32" y="479.023" width="843.661" height="333.133" fill="none" style="stroke:#000;stroke-width:1.5;"/><text x="47" y="492.09" fill="#000" font-size="13" textLength="19.443" font-weight="700">alt</text><text x="111.443" y="491.234" fill="#000" font-size="11" textLength="134.288" font-weight="700">[Payment Successful]</text><line x1="32" y1="675.82" x2="875.661" y2="675.82" style="stroke:#000;stroke-width:1;stroke-dasharray:2,2;"/><text x="37" y="688.031" fill="#000" font-size="11" textLength="106.364" font-weight="700">[Payment Failed]</text><polygon points="319.192,523.289,309.192,527.289,319.192,531.289,315.192,527.289" fill="#181818" style="stroke:#181818;stroke-width:1;stroke-linejoin:miter;stroke-miterlimit:10;"/><line x1="313.192" y1="527.289" x2="692.293" y2="527.289" style="stroke:#181818;stroke-width:1;stroke-dasharray:2,2;"/><text x="325.192" y="522.223" fill="#000" font-size="13" textLength="127.417">Payment confirmed</text><line x1="308.192" y1="556.422" x2="350.192" y2="556.422" style="stroke:#181818;stroke-width:1;"/><line x1="350.192" y1="556.422" x2="350.192" y2="569.422" style="stroke:#181818;stroke-width:1;"/><line x1="309.192" y1="569.422" x2="350.192" y2="569.422" style="stroke:#181818;stroke-width:1;"/><polygon points="319.192,565.422,309.192,569.422,319.192,573.422,315.192,569.422" fill="#181818" style="stroke:#181818;stroke-width:1;stroke-linejoin:miter;stroke-miterlimit:10;"/><text x="315.192" y="551.356" fill="#000" font-size="13" textLength="107.39">Confirm booking</text><polygon points="837.661,594.555,847.661,598.555,837.661,602.555,841.661,598.555" fill="#181818" style="stroke:#181818;stroke-width:1;stroke-linejoin:miter;stroke-miterlimit:10;"/><line x1="308.192" y1="598.555" x2="843.661" y2="598.555" style="stroke:#181818;stroke-width:1;"/><text x="315.192" y="593.489" fill="#000" font-size="13" textLength="196.517">Send confirmation notification</text><polygon points="319.192,623.688,309.192,627.688,319.192,631.688,315.192,627.688" fill="#181818" style="stroke:#181818;stroke-width:1;stroke-linejoin:miter;stroke-miterlimit:10;"/><line x1="313.192" y1="627.688" x2="848.661" y2="627.688" style="stroke:#181818;stroke-width:1;stroke-dasharray:2,2;"/><text x="325.192" y="622.622" fill="#000" font-size="13" textLength="106.831">Notification sent</text><polygon points="59,652.82,49,656.82,59,660.82,55,656.82" fill="#181818" style="stroke:#181818;stroke-width:1;stroke-linejoin:miter;stroke-miterlimit:10;"/><line x1="53" y1="656.82" x2="297.192" y2="656.82" style="stroke:#181818;stroke-width:1;stroke-dasharray:2,2;"/><text x="65" y="651.754" fill="#000" font-size="13" textLength="122.376">Booking confirmed</text><polygon points="319.192,712.758,309.192,716.758,319.192,720.758,315.192,716.758" fill="#181818" style="stroke:#181818;stroke-width:1;stroke-linejoin:miter;stroke-miterlimit:10;"/><line x1="313.192" y1="716.758" x2="697.293" y2="716.758" style="stroke:#181818;stroke-width:1;stroke-dasharray:2,2;"/><text x="325.192" y="711.692" fill="#000" font-size="13" textLength="116.74">Payment declined</text><polygon points="544.842,741.891,554.842,745.891,544.842,749.891,548.842,745.891" fill="#181818" style="stroke:#181818;stroke-width:1;stroke-linejoin:miter;stroke-miterlimit:10;"/><line x1="308.192" y1="745.891" x2="550.842" y2="745.891" style="stroke:#181818;stroke-width:1;"/><text x="315.192" y="740.825" fill="#000" font-size="13" textLength="150.96">Release reserved room</text><polygon points="319.192,771.023,309.192,775.023,319.192,779.023,315.192,775.023" fill="#181818" style="stroke:#181818;stroke-width:1;stroke-linejoin:miter;stroke-miterlimit:10;"/><line x1="313.192" y1="775.023" x2="555.842" y2="775.023" style="stroke:#181818;stroke-width:1;stroke-dasharray:2,2;"/><text x="325.192" y="769.958" fill="#000" font-size="13" textLength="97.678">Room released</text><polygon points="59,800.156,49,804.156,59,808.156,55,804.156" fill="#181818" style="stroke:#181818;stroke-width:1;stroke-linejoin:miter;stroke-miterlimit:10;"/><line x1="53" y1="804.156" x2="297.192" y2="804.156" style="stroke:#181818;stroke-width:1;stroke-dasharray:2,2;"/><text x="65" y="799.09" fill="#000" font-size="13" textLength="222.714">Booking failed - payment declined</text><polygon points="59,874.094,49,878.094,59,882.094,55,878.094" fill="#181818" style="stroke:#181818;stroke-width:1;stroke-linejoin:miter;stroke-miterlimit:10;"/><line x1="53" y1="878.094" x2="297.192" y2="878.094" style="stroke:#181818;stroke-width:1;stroke-dasharray:2,2;"/><text x="65" y="873.028" fill="#000" font-size="13" textLength="226.192">Room unavailable, choose another</text><?plantuml-src ZPDDRgGm48NtFeMLzUG2lOWq909bWmYSe6AAj1MttR9DZ_hsKzXji0cBi0ByrQjNFmRXZUNl-eQENjWLh9T2Na5x_bGPyotr5n_GtgJ09mwELqF9r22aalvUGFKEwesv542_0pguNv1U6l3u3-w1wPgIQOsNanJWfT65M3imbWhWpozayKJdOCMPJmzt38INDn9V_5V3GjL4VSnexmcIw3QCAgW9UwYjHIhfF1innwg89GCd_YRTLK4XcqLKXsOL2iyjTUd0Q4z4W_6OZ-X1gimeTRBVZFOvasKbAbDxFQFuvd0Z2Zvt_Idr_cOCTnxy_4CMb8zf7wn2nkdPilNeQ5WOorkEyl3bU-_Vne0n7EwoRT9TS-ATDGATuzUuFgKwxK_yGGRJVWspM0AcMOMZvUcQDNkYXD6Jj9U7WvqBaar_ev4byZL6yCzuOtP46sQinoGSLrXd-xm6h6dQOVtNRlqfxe1B9UySPg4_bZDTwR94L0xNwciQOrRwGNz654hgNxOdhe12e1Hfijik7Et3yKu4XSEK_I_gdK9H_3cjIba3pOQnq8IGZBfyiCs5Rk1c3OdwmyNP61806kiPBGkInRt_3m00?></g></svg>