<svg xmlns="http://www.w3.org/2000/svg" xmlns:xlink="http://www.w3.org/1999/xlink" version="1.1" data-diagram-type="CLASS" style="width:788px;height:758px;background:#FFFFFF;" width="788px" height="758px" viewBox="0 0 788 758" zoomAndPan="magnify" preserveAspectRatio="none" contentStyleType="text/css"><?plantuml 1.2026.7beta8?><defs/><g font-family="sans-serif" lengthAdjust="spacing"><!--class User--><g class="entity" data-qualified-name="User" id="ent0001" data-source-line="5"><rect x="589.51" y="7" width="37.91" height="34.297" fill="#F1F1F1" style="stroke:#181818;stroke-width:0.5;" rx="2.5" ry="2.5"/><text x="592.51" y="24.995" fill="#000" font-size="14" textLength="31.91" font-style="italic">User</text><line x1="590.51" y1="33.297" x2="626.42" y2="33.297" style="stroke:#181818;stroke-width:0.5;"/></g><!--class Investor--><g class="entity" data-qualified-name="Investor" id="ent0002" data-source-line="7"><rect x="252.96" y="118.3" width="63.005" height="34.297" fill="#F1F1F1" style="stroke:#181818;stroke-width:0.5;" rx="2.5" ry="2.5"/><text x="255.96" y="136.295" fill="#000" font-size="14" textLength="57.005">Investor</text><line x1="253.96" y1="144.597" x2="314.965" y2="144.597" style="stroke:#181818;stroke-width:0.5;"/></g><!--class FacilityManager--><g class="entity" data-qualified-name="FacilityManager" id="ent0003" data-source-line="8"><rect x="603.67" y="182.59" width="121.589" height="34.297" fill="#F1F1F1" style="stroke:#181818;stroke-width:0.5;" rx="2.5" ry="2.5"/><text x="606.67" y="200.585" fill="#000" font-size="14" textLength="115.589">Facility Manager</text><line x1="604.67" y1="208.887" x2="724.259" y2="208.887" style="stroke:#181818;stroke-width:0.5;"/></g><!--class Administrator--><g class="entity" data-qualified-name="Administrator" id="ent0004" data-source-line="9"><rect x="479.62" y="118.3" width="101.683" height="34.297" fill="#F1F1F1" style="stroke:#181818;stroke-width:0.5;" rx="2.5" ry="2.5"/><text x="482.62" y="136.295" fill="#000" font-size="14" textLength="95.683">Administrator</text><line x1="480.62" y1="144.597" x2="580.303" y2="144.597" style="stroke:#181818;stroke-width:0.5;"/></g><!--class Facility--><g class="entity" data-qualified-name="Facility" id="ent0008" data-source-line="15"><rect x="407.58" y="375.48" width="55.772" height="34.297" fill="#F1F1F1" style="stroke:#181818;stroke-width:0.5;" rx="2.5" ry="2.5"/><text x="410.58" y="393.475" fill="#000" font-size="14" textLength="49.772">Facility</text><line x1="408.58" y1="401.777" x2="462.352" y2="401.777" style="stroke:#181818;stroke-width:0.5;"/></g><!--class Room--><g class="entity" data-qualified-name="Room" id="ent0009" data-source-line="16"><rect x="286.21" y="486.78" width="46.496" height="34.297" fill="#F1F1F1" style="stroke:#181818;stroke-width:0.5;" rx="2.5" ry="2.5"/><text x="289.21" y="504.775" fill="#000" font-size="14" textLength="40.496">Room</text><line x1="287.21" y1="513.077" x2="331.706" y2="513.077" style="stroke:#181818;stroke-width:0.5;"/></g><!--class Service--><g class="entity" data-qualified-name="Service" id="ent0010" data-source-line="17"><rect x="406.59" y="486.78" width="57.741" height="34.297" fill="#F1F1F1" style="stroke:#181818;stroke-width:0.5;" rx="2.5" ry="2.5"/><text x="409.59" y="504.775" fill="#000" font-size="14" textLength="51.741">Service</text><line x1="407.59" y1="513.077" x2="463.331" y2="513.077" style="stroke:#181818;stroke-width:0.5;"/></g><!--class InvestmentPlan--><g class="entity" data-qualified-name="InvestmentPlan" id="ent0011" data-source-line="18"><rect x="499.7" y="486.78" width="119.531" height="34.297" fill="#F1F1F1" style="stroke:#181818;stroke-width:0.5;" rx="2.5" ry="2.5"/><text x="502.7" y="504.775" fill="#000" font-size="14" textLength="113.531">Investment Plan</text><line x1="500.7" y1="513.077" x2="618.231" y2="513.077" style="stroke:#181818;stroke-width:0.5;"/></g><!--class Investment--><g class="entity" data-qualified-name="Investment" id="ent0012" data-source-line="19"><rect x="125.81" y="598.08" width="85.297" height="34.297" fill="#F1F1F1" style="stroke:#181818;stroke-width:0.5;" rx="2.5" ry="2.5"/><text x="128.81" y="616.075" fill="#000" font-size="14" textLength="79.297">Investment</text><line x1="126.81" y1="624.377" x2="210.107" y2="624.377" style="stroke:#181818;stroke-width:0.5;"/></g><!--class Contribution--><g class="entity" data-qualified-name="Contribution" id="ent0013" data-source-line="20"><rect x="7" y="709.37" width="92.926" height="34.297" fill="#F1F1F1" style="stroke:#181818;stroke-width:0.5;" rx="2.5" ry="2.5"/><text x="10" y="727.365" fill="#000" font-size="14" textLength="86.926">Contribution</text><line x1="8" y1="735.667" x2="98.926" y2="735.667" style="stroke:#181818;stroke-width:0.5;"/></g><!--class Booking--><g class="entity" data-qualified-name="Booking" id="ent0014" data-source-line="21"><rect x="253.22" y="246.89" width="62.492" height="34.297" fill="#F1F1F1" style="stroke:#181818;stroke-width:0.5;" rx="2.5" ry="2.5"/><text x="256.22" y="264.885" fill="#000" font-size="14" textLength="56.492">Booking</text><line x1="254.22" y1="273.187" x2="314.712" y2="273.187" style="stroke:#181818;stroke-width:0.5;"/></g><!--class Portfolio--><g class="entity" data-qualified-name="Portfolio" id="ent0015" data-source-line="22"><rect x="56.42" y="311.19" width="64.092" height="34.297" fill="#F1F1F1" style="stroke:#181818;stroke-width:0.5;" rx="2.5" ry="2.5"/><text x="59.42" y="329.185" fill="#000" font-size="14" textLength="58.092">Portfolio</text><line x1="57.42" y1="337.487" x2="119.512" y2="337.487" style="stroke:#181818;stroke-width:0.5;"/></g><!--class Payment--><g class="entity" data-qualified-name="Payment" id="ent0016" data-source-line="23"><rect x="134.5" y="709.37" width="67.92" height="34.297" fill="#F1F1F1" style="stroke:#181818;stroke-width:0.5;" rx="2.5" ry="2.5"/><text x="137.5" y="727.365" fill="#000" font-size="14" textLength="61.92">Payment</text><line x1="135.5" y1="735.667" x2="201.42" y2="735.667" style="stroke:#181818;stroke-width:0.5;"/></g><!--class InsurancePolicy--><g class="entity" data-qualified-name="InsurancePolicy" id="ent0017" data-source-line="24"><rect x="237.51" y="709.37" width="119.907" height="34.297" fill="#F1F1F1" style="stroke:#181818;stroke-width:0.5;" rx="2.5" ry="2.5"/><text x="240.51" y="727.365" fill="#000" font-size="14" textLength="113.907">Insurance Policy</text><line x1="238.51" y1="735.667" x2="356.417" y2="735.667" style="stroke:#181818;stroke-width:0.5;"/></g><!--class Notification--><g class="entity" data-qualified-name="Notification" id="ent0018" data-source-line="25"><rect x="687.3" y="118.3" width="86.329" height="34.297" fill="#F1F1F1" style="stroke:#181818;stroke-width:0.5;" rx="2.5" ry="2.5"/><text x="690.3" y="136.295" fill="#000" font-size="14" textLength="80.329">Notification</text><line x1="688.3" y1="144.597" x2="772.629" y2="144.597" style="stroke:#181818;stroke-width:0.5;"/></g><!--class KYCVerification--><g class="entity" data-qualified-name="KYCVerification" id="ent0019" data-source-line="26"><rect x="378.61" y="246.89" width="117.706" height="34.297" fill="#F1F1F1" style="stroke:#181818;stroke-width:0.5;" rx="2.5" ry="2.5"/><text x="381.61" y="264.885" fill="#000" font-size="14" textLength="111.706">KYC Verification</text><line x1="379.61" y1="273.187" x2="495.316" y2="273.187" style="stroke:#181818;stroke-width:0.5;"/></g><!--reverse link User to Investor--><g class="link" data-entity-1="ent0001" data-entity-2="ent0002" id="lnk5" data-source-line="11" data-link-type="extension"><path d="M572.114,37.412 C518.234,55.582 382.83,101.26 316.24,123.72" style="stroke:#181818;stroke-width:1;" fill="none" id="User-backto-Investor" codeLine="11"/><polygon points="589.17,31.66,570.196,31.726,574.031,43.097,589.17,31.66" fill="none" style="stroke:#181818;stroke-width:1;stroke-linejoin:miter;stroke-miterlimit:10;"/></g><!--reverse link User to FacilityManager--><g class="link" data-entity-1="ent0001" data-entity-2="ent0003" id="lnk6" data-source-line="12" data-link-type="extension"><path d="M619.359,58.92 C630.069,92.1 648.42,149.01 659.11,182.15" style="stroke:#181818;stroke-width:1;" fill="none" id="User-backto-FacilityManager" codeLine="12"/><polygon points="613.83,41.79,613.649,60.763,625.069,57.077,613.83,41.79" fill="none" style="stroke:#181818;stroke-width:1;stroke-linejoin:miter;stroke-miterlimit:10;"/></g><!--reverse link User to Administrator--><g class="link" data-entity-1="ent0001" data-entity-2="ent0004" id="lnk7" data-source-line="13" data-link-type="extension"><path d="M586.161,56.4 C571.411,77.06 556.84,97.48 542.17,118.05" style="stroke:#181818;stroke-width:1;" fill="none" id="User-backto-Administrator" codeLine="13"/><polygon points="596.62,41.75,581.278,52.913,591.044,59.886,596.62,41.75" fill="none" style="stroke:#181818;stroke-width:1;stroke-linejoin:miter;stroke-miterlimit:10;"/></g><!--reverse link Facility to Room--><g class="link" data-entity-1="ent0008" data-entity-2="ent0009" id="lnk20" data-source-line="28" data-link-type="composition"><path d="M397.848,416.732 C385.038,424.972 379.99,428.97 367.46,439.78 C350.79,454.17 334.01,473.03 322.82,486.38" style="stroke:#181818;stroke-width:1;" fill="none" id="Facility-backto-Room" codeLine="28"/><polygon points="407.94,410.24,400.73,410.122,397.848,416.732,405.058,416.85,407.94,410.24" fill="#181818" style="stroke:#181818;stroke-width:1;stroke-linejoin:miter;stroke-miterlimit:10;"/><text x="368.46" y="452.847" fill="#000" font-size="13" textLength="55.028">contains</text><text x="391.504" y="410.042" fill="#000" font-size="13">1</text><text x="313.176" y="475.796" fill="#000" font-size="13">m</text></g><!--reverse link Facility to Service--><g class="link" data-entity-1="ent0008" data-entity-2="ent0010" id="lnk21" data-source-line="29" data-link-type="composition"><path d="M433.02,422.214 C432.03,434.944 431.95,440.98 432.46,456.78 C432.79,466.73 433.5,477.87 434.15,486.71" style="stroke:#181818;stroke-width:1;" fill="none" id="Facility-backto-Service" codeLine="29"/><polygon points="433.95,410.25,429.497,415.922,433.02,422.214,437.473,416.542,433.95,410.25" fill="#181818" style="stroke:#181818;stroke-width:1;stroke-linejoin:miter;stroke-miterlimit:10;"/><text x="433.46" y="452.847" fill="#000" font-size="13" textLength="37.223">offers</text><text x="424.369" y="429.716" fill="#000" font-size="13">1</text><text x="419.838" y="475.611" fill="#000" font-size="13">m</text></g><!--link Facility to InvestmentPlan--><g class="link" data-entity-1="ent0008" data-entity-2="ent0011" id="lnk22" data-source-line="30" data-link-type="association"><path d="M454.3,410.23 C477.74,430.89 517.52,465.96 540.86,486.53" style="stroke:#181818;stroke-width:1;" fill="none" id="Facility-InvestmentPlan" codeLine="30"/><text x="506.46" y="452.847" fill="#000" font-size="13" textLength="37.223">offers</text><text x="450.697" y="429.69" fill="#000" font-size="13">1</text><text x="521.123" y="475.682" fill="#000" font-size="13">m</text></g><!--link Investor to Portfolio--><g class="link" data-entity-1="ent0002" data-entity-2="ent0015" id="lnk23" data-source-line="32" data-link-type="association"><path d="M252.69,140.46 C207.09,146.9 126.48,161.05 107.46,182.59 C75.43,218.89 80.62,281.59 85.32,311.1" style="stroke:#181818;stroke-width:1;" fill="none" id="Investor-Portfolio" codeLine="32"/><text x="108.46" y="204.307" fill="#000" font-size="13" textLength="33.598">owns</text><text x="236.894" y="136.997" fill="#000" font-size="13">1</text><text x="74.998" y="299.994" fill="#000" font-size="13">1</text></g><!--link Portfolio to Investment--><g class="link" data-entity-1="ent0015" data-entity-2="ent0012" id="lnk24" data-source-line="33" data-link-type="association"><path d="M85.42,345.71 C81.46,370.25 76.07,417.84 85.46,456.78 C98.94,512.65 136.65,570.45 156.26,597.88" style="stroke:#181818;stroke-width:1;" fill="none" id="Portfolio-Investment" codeLine="33"/><text x="86.46" y="452.847" fill="#000" font-size="13" textLength="55.028">contains</text><text x="75.304" y="365.414" fill="#000" font-size="13">1</text><text x="138.565" y="587.048" fill="#000" font-size="13">m</text></g><!--link Investor to Investment--><g class="link" data-entity-1="ent0002" data-entity-2="ent0012" id="lnk25" data-source-line="35" data-link-type="association"><path d="M253.38,152.91 C219.02,173.63 168.46,212.66 168.46,263.04 C168.46,263.04 168.46,263.04 168.46,504.93 C168.46,537.94 168.46,576.57 168.46,597.93" style="stroke:#181818;stroke-width:1;" fill="none" id="Investor-Investment" codeLine="35"/><text x="169.46" y="397.197" fill="#000" font-size="13" textLength="42.929">makes</text><text x="236.862" y="171.077" fill="#000" font-size="13">1</text><text x="154.654" y="587.114" fill="#000" font-size="13">m</text></g><!--link InvestmentPlan to Investment--><g class="link" data-entity-1="ent0011" data-entity-2="ent0012" id="lnk26" data-source-line="36" data-link-type="association"><path d="M500.08,521.53 C420.61,543.74 281.56,582.61 211.46,602.21" style="stroke:#181818;stroke-width:1;" fill="none" id="InvestmentPlan-Investment" codeLine="36"/><text x="388.46" y="564.147" fill="#000" font-size="13" textLength="96.821">instantiated as</text><text x="483.581" y="519.963" fill="#000" font-size="13">1</text><text x="219.014" y="596.145" fill="#000" font-size="13">m</text></g><!--link Investment to Contribution--><g class="link" data-entity-1="ent0012" data-entity-2="ent0013" id="lnk27" data-source-line="38" data-link-type="association"><path d="M142.33,632.73 C130.22,640.95 116,651.45 104.46,662.37 C89.32,676.71 74.64,695.58 64.95,708.94" style="stroke:#181818;stroke-width:1;" fill="none" id="Investment-Contribution" codeLine="38"/><text x="105.46" y="675.437" fill="#000" font-size="13" textLength="54.564">receives</text><text x="125.145" y="652.474" fill="#000" font-size="13">1</text><text x="54.732" y="698.347" fill="#000" font-size="13">m</text></g><!--link Investment to Payment--><g class="link" data-entity-1="ent0012" data-entity-2="ent0016" id="lnk28" data-source-line="39" data-link-type="association"><path d="M168.46,632.82 C168.46,653.49 168.46,688.56 168.46,709.12" style="stroke:#181818;stroke-width:1;" fill="none" id="Investment-Payment" codeLine="39"/><text x="169.46" y="675.437" fill="#000" font-size="13" textLength="65.667">generates</text><text x="159.277" y="652.592" fill="#000" font-size="13">1</text><text x="154.653" y="698.272" fill="#000" font-size="13">m</text></g><!--link Investment to InsurancePolicy--><g class="link" data-entity-1="ent0012" data-entity-2="ent0017" id="lnk29" data-source-line="40" data-link-type="association"><path d="M200.23,632.83 C214.18,640.84 230.33,651.15 243.46,662.37 C259.8,676.34 275.41,695.44 285.61,708.97" style="stroke:#181818;stroke-width:1;" fill="none" id="Investment-InsurancePolicy" codeLine="40"/><text x="261.46" y="675.437" fill="#000" font-size="13" textLength="72.465">covered by</text><text x="200.428" y="652.29" fill="#000" font-size="13">1</text><text x="254.428" y="698.386" fill="#000" font-size="13" textLength="24.807">0..1</text></g><!--link Investor to Booking--><g class="link" data-entity-1="ent0002" data-entity-2="ent0014" id="lnk30" data-source-line="42" data-link-type="association"><path d="M284.46,152.99 C284.46,177.26 284.46,222.22 284.46,246.48" style="stroke:#181818;stroke-width:1;" fill="none" id="Investor-Booking" codeLine="42"/><text x="285.46" y="204.307" fill="#000" font-size="13" textLength="42.929">makes</text><text x="275.276" y="172.746" fill="#000" font-size="13">1</text><text x="270.722" y="235.893" fill="#000" font-size="13">m</text></g><!--link Booking to Facility--><g class="link" data-entity-1="ent0014" data-entity-2="ent0008" id="lnk31" data-source-line="43" data-link-type="association"><path d="M304.2,281.59 C333.14,305.85 386.78,350.81 415.72,375.08" style="stroke:#181818;stroke-width:1;" fill="none" id="Booking-Facility" codeLine="43"/><text x="379.46" y="332.897" fill="#000" font-size="13" textLength="55.923">reserves</text><text x="296.508" y="301.349" fill="#000" font-size="13">m</text><text x="400.489" y="364.496" fill="#000" font-size="13">1</text></g><!--link Booking to Room--><g class="link" data-entity-1="ent0014" data-entity-2="ent0009" id="lnk32" data-source-line="44" data-link-type="association"><path d="M286.18,281.39 C290.75,324.85 303.15,442.87 307.73,486.46" style="stroke:#181818;stroke-width:1;" fill="none" id="Booking-Room" codeLine="44"/><text x="300.46" y="397.197" fill="#000" font-size="13" textLength="55.923">reserves</text><text x="272.92" y="301.399" fill="#000" font-size="13">m</text><text x="297.947" y="475.589" fill="#000" font-size="13">1</text></g><!--link User to Notification--><g class="link" data-entity-1="ent0001" data-entity-2="ent0018" id="lnk33" data-source-line="46" data-link-type="association"><path d="M627.27,41.77 C637.16,50.53 649.49,61.48 660.46,71.3 C678.15,87.12 698.26,105.28 712.37,118.05" style="stroke:#181818;stroke-width:1;" fill="none" id="User-Notification" codeLine="46"/><text x="678.46" y="84.367" fill="#000" font-size="13" textLength="54.564">receives</text><text x="623.659" y="61.236" fill="#000" font-size="13">1</text><text x="692.796" y="107.202" fill="#000" font-size="13">m</text></g><!--link Investor to KYCVerification--><g class="link" data-entity-1="ent0002" data-entity-2="ent0019" id="lnk34" data-source-line="47" data-link-type="association"><path d="M304.46,152.99 C333.79,177.26 388.13,222.22 417.46,246.48" style="stroke:#181818;stroke-width:1;" fill="none" id="Investor-KYCVerification" codeLine="47"/><text x="380.46" y="204.307" fill="#000" font-size="13" textLength="69.05">undergoes</text><text x="301.401" y="172.746" fill="#000" font-size="13">1</text><text x="383.783" y="235.893" fill="#000" font-size="13" textLength="24.807">0..1</text></g><!--link FacilityManager to Facility--><g class="link" data-entity-1="ent0003" data-entity-2="ent0008" id="lnk35" data-source-line="49" data-link-type="association"><path d="M668.01,217.07 C673.41,246.73 679.93,309.69 647.46,345.48 C623.11,372.34 515.51,384.9 463.63,389.48" style="stroke:#181818;stroke-width:1;" fill="none" id="FacilityManager-Facility" codeLine="49"/><text x="672.46" y="268.607" fill="#000" font-size="13" textLength="59.858">manages</text><text x="659.908" y="237.073" fill="#000" font-size="13">1</text><text x="471.176" y="384.232" fill="#000" font-size="13">m</text></g><!--link Administrator to InvestmentPlan--><g class="link" data-entity-1="ent0004" data-entity-2="ent0011" id="lnk36" data-source-line="50" data-link-type="association"><path d="M540.41,152.9 C545.01,161.44 550,172.23 552.46,182.59 C579.41,295.97 566.94,438.31 561.52,486.28" style="stroke:#181818;stroke-width:1;" fill="none" id="Administrator-InvestmentPlan" codeLine="50"/><text x="570.46" y="332.897" fill="#000" font-size="13" textLength="68.136">configures</text><text x="534.273" y="172.629" fill="#000" font-size="13">1</text><text x="548.413" y="475.666" fill="#000" font-size="13">m</text></g><!--link Administrator to KYCVerification--><g class="link" data-entity-1="ent0004" data-entity-2="ent0019" id="lnk37" data-source-line="51" data-link-type="association"><path d="M518.3,152.99 C500.48,177.26 467.45,222.22 449.62,246.48" style="stroke:#181818;stroke-width:1;" fill="none" id="Administrator-KYCVerification" codeLine="51"/><text x="496.46" y="204.307" fill="#000" font-size="13" textLength="47.607">verifies</text><text x="505.392" y="172.746" fill="#000" font-size="13">1</text><text x="439.607" y="235.893" fill="#000" font-size="13">m</text></g><?plantuml-src VLDDIyGm4BtdLuGUXPNrAbvK41PHH57mE9jEws2RI9AjhFZZdJHfc-tMFINpykRDPzmdwI-mq4hLW7FNtblQxZnkbD4lz8DoBJweHAd8gWRZlKN_OKed16oTjw1yz9Ml3gqGyRxH7JflR3ABEr3KaD_B1z1GeoqaE3c02KlSwx8bJK4v-8kWAgz-Lwj9SuBc2jFBJ2LA3_HaFXlJfkiBseuK3kd6K2rgBvyQq7ss4nQWWpe3c81ResCBoGoS6sEuotModeprbMd833RiCtUEx7OMj48cDgJsANG28vQuZyPJHGgoKCNz-wryGplYlJk3EIR4E8tYef1dtAsYBVfko4l9W_T0sYsJKf-OPweAxOoLI8UTchXYcE18vcFiH-1zSzm9M9JCKpmMd5DR-4GdPWdzHsP93zeJU2ovRoBpotto4RENHONK7KJ9sMc-JAnH8w_ZCdDzVdvHp0VTrzgXvNIs--LgqtADfGvsU4iT7aSKSkKFqYtJqln7IlnCMQXytuxhpjAAjSosZZrskaHRcw0z-xXvc2pTjdzruk0pdzmqNesAwfqzvNISMDURwFu0?></g></svg>