<svg xmlns="http://www.w3.org/2000/svg" xmlns:xlink="http://www.w3.org/1999/xlink" version="1.1" data-diagram-type="DESCRIPTION" style="width:1173px;height:774px;background:#FFFFFF;" width="1173px" height="774px" viewBox="0 0 1173 774" zoomAndPan="magnify" preserveAspectRatio="none" contentStyleType="text/css"><?plantuml 1.2026.7beta8?><defs/><g font-family="sans-serif" lengthAdjust="spacing"><!--cluster Web Server--><g class="cluster" data-qualified-name="Web Server" id="ent0003" data-source-line="5"><polygon points="16,248.59,26,238.59,186,238.59,186,466.19,176,476.19,16,476.19,16,248.59" fill="none" style="stroke:#181818;stroke-width:1;stroke-linejoin:miter;stroke-miterlimit:10;"/><line x1="176" y1="248.59" x2="186" y2="238.59" style="stroke:#181818;stroke-width:1;"/><line x1="16" y1="248.59" x2="176" y2="248.59" style="stroke:#181818;stroke-width:1;"/><line x1="176" y1="248.59" x2="176" y2="476.19" style="stroke:#181818;stroke-width:1;"/><text x="51.08" y="264.585" fill="#000" font-size="14" textLength="91.841" font-weight="700">Web Server</text></g><!--cluster Application Server--><g class="cluster" data-qualified-name="Application Server" id="ent0006" data-source-line="10"><polygon points="210,390.89,220,380.89,1005,380.89,1005,587.98,995,597.98,210,597.98,210,390.89" fill="none" style="stroke:#181818;stroke-width:1;stroke-linejoin:miter;stroke-miterlimit:10;"/><line x1="995" y1="390.89" x2="1005" y2="380.89" style="stroke:#181818;stroke-width:1;"/><line x1="210" y1="390.89" x2="995" y2="390.89" style="stroke:#181818;stroke-width:1;"/><line x1="995" y1="390.89" x2="995" y2="597.98" style="stroke:#181818;stroke-width:1;"/><text x="530.41" y="406.885" fill="#000" font-size="14" textLength="146.18" font-weight="700">Application Server</text></g><!--cluster Database Server--><g class="cluster" data-qualified-name="Database Server" id="ent0012" data-source-line="18"><polygon points="256,658.48,266,648.48,463,648.48,463,739.78,453,749.78,256,749.78,256,658.48" fill="none" style="stroke:#181818;stroke-width:1;stroke-linejoin:miter;stroke-miterlimit:10;"/><line x1="453" y1="658.48" x2="463" y2="648.48" style="stroke:#181818;stroke-width:1;"/><line x1="256" y1="658.48" x2="453" y2="658.48" style="stroke:#181818;stroke-width:1;"/><line x1="453" y1="658.48" x2="453" y2="749.78" style="stroke:#181818;stroke-width:1;"/><text x="289.807" y="674.475" fill="#000" font-size="14" textLength="131.387" font-weight="700">Database Server</text></g><!--cluster Cache Server--><g class="cluster" data-qualified-name="Cache Server" id="ent0014" data-source-line="22"><polygon points="654,658.48,664,648.48,834,648.48,834,739.78,824,749.78,654,749.78,654,658.48" fill="none" style="stroke:#181818;stroke-width:1;stroke-linejoin:miter;stroke-miterlimit:10;"/><line x1="824" y1="658.48" x2="834" y2="648.48" style="stroke:#181818;stroke-width:1;"/><line x1="654" y1="658.48" x2="824" y2="658.48" style="stroke:#181818;stroke-width:1;"/><line x1="824" y1="658.48" x2="824" y2="749.78" style="stroke:#181818;stroke-width:1;"/><text x="687.818" y="674.475" fill="#000" font-size="14" textLength="104.364" font-weight="700">Cache Server</text></g><!--entity ReactApp--><g class="entity" data-qualified-name="Web Server.ReactApp" id="ent0004" data-source-line="6"><rect x="32.17" y="420.89" width="137.666" height="39.297" fill="#F1F1F1" style="stroke:#181818;stroke-width:0.5;" rx="2.5" ry="2.5"/><polygon points="152.836,425.89,152.836,439.89,164.836,439.89,164.836,431.89,158.836,425.89,152.836,425.89" fill="#F1F1F1" style="stroke:#181818;stroke-width:0.5;stroke-linejoin:miter;stroke-miterlimit:10;"/><line x1="158.836" y1="425.89" x2="158.836" y2="431.89" style="stroke:#181818;stroke-width:0.5;"/><line x1="164.836" y1="431.89" x2="158.836" y2="431.89" style="stroke:#181818;stroke-width:0.5;"/><text x="42.17" y="446.885" fill="#000" font-size="14" textLength="107.666">React Frontend</text></g><!--entity Nginx--><g class="entity" data-qualified-name="Web Server.Nginx" id="ent0005" data-source-line="7"><rect x="90.8" y="278.59" width="70.407" height="39.297" fill="#F1F1F1" style="stroke:#181818;stroke-width:0.5;" rx="2.5" ry="2.5"/><polygon points="144.207,283.59,144.207,297.59,156.207,297.59,156.207,289.59,150.207,283.59,144.207,283.59" fill="#F1F1F1" style="stroke:#181818;stroke-width:0.5;stroke-linejoin:miter;stroke-miterlimit:10;"/><line x1="150.207" y1="283.59" x2="150.207" y2="289.59" style="stroke:#181818;stroke-width:0.5;"/><line x1="156.207" y1="289.59" x2="150.207" y2="289.59" style="stroke:#181818;stroke-width:0.5;"/><text x="100.8" y="304.585" fill="#000" font-size="14" textLength="40.407">Nginx</text></g><!--entity API--><g class="entity" data-qualified-name="Application Server.API" id="ent0007" data-source-line="11"><rect x="518.03" y="420.89" width="161.934" height="39.297" fill="#F1F1F1" style="stroke:#181818;stroke-width:0.5;" rx="2.5" ry="2.5"/><polygon points="662.964,425.89,662.964,439.89,674.964,439.89,674.964,431.89,668.964,425.89,662.964,425.89" fill="#F1F1F1" style="stroke:#181818;stroke-width:0.5;stroke-linejoin:miter;stroke-miterlimit:10;"/><line x1="668.964" y1="425.89" x2="668.964" y2="431.89" style="stroke:#181818;stroke-width:0.5;"/><line x1="674.964" y1="431.89" x2="668.964" y2="431.89" style="stroke:#181818;stroke-width:0.5;"/><text x="528.03" y="446.885" fill="#000" font-size="14" textLength="131.934">Express API Server</text></g><!--entity AuthSrv--><g class="entity" data-qualified-name="Application Server.AuthSrv" id="ent0008" data-source-line="12"><rect x="226.43" y="542.69" width="183.132" height="39.297" fill="#F1F1F1" style="stroke:#181818;stroke-width:0.5;" rx="2.5" ry="2.5"/><polygon points="392.562,547.69,392.562,561.69,404.562,561.69,404.562,553.69,398.562,547.69,392.562,547.69" fill="#F1F1F1" style="stroke:#181818;stroke-width:0.5;stroke-linejoin:miter;stroke-miterlimit:10;"/><line x1="398.562" y1="547.69" x2="398.562" y2="553.69" style="stroke:#181818;stroke-width:0.5;"/><line x1="404.562" y1="553.69" x2="398.562" y2="553.69" style="stroke:#181818;stroke-width:0.5;"/><text x="236.43" y="568.685" fill="#000" font-size="14" textLength="153.132">Authentication Server</text></g><!--entity InvSrv--><g class="entity" data-qualified-name="Application Server.InvSrv" id="ent0009" data-source-line="13"><rect x="444.26" y="542.69" width="165.488" height="39.297" fill="#F1F1F1" style="stroke:#181818;stroke-width:0.5;" rx="2.5" ry="2.5"/><polygon points="592.748,547.69,592.748,561.69,604.748,561.69,604.748,553.69,598.748,547.69,592.748,547.69" fill="#F1F1F1" style="stroke:#181818;stroke-width:0.5;stroke-linejoin:miter;stroke-miterlimit:10;"/><line x1="598.748" y1="547.69" x2="598.748" y2="553.69" style="stroke:#181818;stroke-width:0.5;"/><line x1="604.748" y1="553.69" x2="598.748" y2="553.69" style="stroke:#181818;stroke-width:0.5;"/><text x="454.26" y="568.685" fill="#000" font-size="14" textLength="135.488">Investment Service</text></g><!--entity BookSrv--><g class="entity" data-qualified-name="Application Server.BookSrv" id="ent0010" data-source-line="14"><rect x="644.66" y="542.69" width="142.684" height="39.297" fill="#F1F1F1" style="stroke:#181818;stroke-width:0.5;" rx="2.5" ry="2.5"/><polygon points="770.344,547.69,770.344,561.69,782.344,561.69,782.344,553.69,776.344,547.69,770.344,547.69" fill="#F1F1F1" style="stroke:#181818;stroke-width:0.5;stroke-linejoin:miter;stroke-miterlimit:10;"/><line x1="776.344" y1="547.69" x2="776.344" y2="553.69" style="stroke:#181818;stroke-width:0.5;"/><line x1="782.344" y1="553.69" x2="776.344" y2="553.69" style="stroke:#181818;stroke-width:0.5;"/><text x="654.66" y="568.685" fill="#000" font-size="14" textLength="112.684">Booking Service</text></g><!--entity NotifSrv--><g class="entity" data-qualified-name="Application Server.NotifSrv" id="ent0011" data-source-line="15"><rect x="822.74" y="542.69" width="166.521" height="39.297" fill="#F1F1F1" style="stroke:#181818;stroke-width:0.5;" rx="2.5" ry="2.5"/><polygon points="972.261,547.69,972.261,561.69,984.261,561.69,984.261,553.69,978.261,547.69,972.261,547.69" fill="#F1F1F1" style="stroke:#181818;stroke-width:0.5;stroke-linejoin:miter;stroke-miterlimit:10;"/><line x1="978.261" y1="547.69" x2="978.261" y2="553.69" style="stroke:#181818;stroke-width:0.5;"/><line x1="984.261" y1="553.69" x2="978.261" y2="553.69" style="stroke:#181818;stroke-width:0.5;"/><text x="832.74" y="568.685" fill="#000" font-size="14" textLength="136.521">Notification Service</text></g><!--entity PGDB--><g class="entity" data-qualified-name="Database Server.PGDB" id="ent0013" data-source-line="19"><path d="M273,698.48 C273,688.48 359.002,688.48 359.002,688.48 C359.002,688.48 445.004,688.48 445.004,698.48 L445.004,723.777 C445.004,733.777 359.002,733.777 359.002,733.777 C359.002,733.777 273,733.777 273,723.777 L273,698.48" style="stroke:#181818;stroke-width:0.5;" fill="#F1F1F1"/><path d="M273,698.48 C273,708.48 359.002,708.48 359.002,708.48 C359.002,708.48 445.004,708.48 445.004,698.48" style="stroke:#181818;stroke-width:0.5;" fill="none"/><text x="283" y="725.475" fill="#000" font-size="14" textLength="152.004">PostgreSQL Database</text></g><!--entity Redis--><g class="entity" data-qualified-name="Cache Server.Redis" id="ent0015" data-source-line="23"><path d="M690.8,698.48 C690.8,688.48 744,688.48 744,688.48 C744,688.48 797.199,688.48 797.199,698.48 L797.199,723.777 C797.199,733.777 744,733.777 744,733.777 C744,733.777 690.8,733.777 690.8,723.777 L690.8,698.48" style="stroke:#181818;stroke-width:0.5;" fill="#F1F1F1"/><path d="M690.8,698.48 C690.8,708.48 744,708.48 744,708.48 C744,708.48 797.199,708.48 797.199,698.48" style="stroke:#181818;stroke-width:0.5;" fill="none"/><text x="700.8" y="725.475" fill="#000" font-size="14" textLength="86.399">Redis Cache</text></g><!--entity Browser--><g class="entity" data-qualified-name="Browser" id="ent0001" data-source-line="1"><polygon points="59.3,16,69.3,6,192.699,6,192.699,42.297,182.699,52.297,59.3,52.297,59.3,16" fill="#F1F1F1" style="stroke:#181818;stroke-width:0.5;stroke-linejoin:miter;stroke-miterlimit:10;"/><line x1="182.699" y1="16" x2="192.699" y2="6" style="stroke:#181818;stroke-width:0.5;"/><line x1="59.3" y1="16" x2="182.699" y2="16" style="stroke:#181818;stroke-width:0.5;"/><line x1="182.699" y1="16" x2="182.699" y2="52.297" style="stroke:#181818;stroke-width:0.5;"/><text x="74.3" y="38.995" fill="#000" font-size="14" textLength="93.399">User Browser</text></g><!--entity Internet--><g class="entity" data-qualified-name="Internet" id="ent0002" data-source-line="3"><path d="M92.852,138.181 C95.947,133.147 99.876,132.881 103.683,137.371 C106.792,131.199 111.136,131.3 115.377,136.171 C118.294,130.848 122.561,130.371 126.141,135.486 C129.89,130.562 133.747,129.461 137.734,135.227 C142.777,129.964 147.008,130.112 149.851,137.359 C153.908,132.191 158.566,132.466 162.252,137.797 C169.59,140.637 171.328,147.993 165.013,153.268 C170.817,159.67 170.663,164.753 162.667,169.112 C160.713,175.272 155.179,175.68 151.43,170.966 C148.49,179.239 144.023,180.281 137.899,173.907 C136.967,179.624 132.273,181.807 127.385,178.534 C122.787,182.732 117.504,182.192 115.542,175.632 C109.022,180.468 105.797,177.834 103.59,171.156 C99.382,175.611 94.314,175.143 91.643,169.362 C81.985,168.389 78.764,161.166 85.36,153.681 C79.243,144.699 82.336,139.123 92.852,138.181" style="stroke:#181818;stroke-width:0.5;" fill="#F1F1F1"/><text x="98.08" y="157.295" fill="#000" font-size="14" textLength="55.836">Internet</text></g><!--entity Storage--><g class="entity" data-qualified-name="Storage" id="ent0016" data-source-line="26"><path d="M1034.238,547.726 C1038.424,543.059 1042.184,543.123 1045.528,548.659 C1048.302,542.944 1051.543,541.68 1056.217,546.781 C1059.495,541.734 1063.731,540.75 1067.511,546.243 C1071.203,539.482 1075.635,539.582 1079.863,545.729 C1082.276,540.204 1087.484,539.498 1090.944,544.641 C1095.198,539.718 1099.106,540.371 1102.488,545.63 C1105.798,540.535 1110.652,541.198 1113.619,546.016 C1117.798,541.844 1121.438,541.482 1124.617,547.136 C1127.893,542.895 1131.131,542.799 1134.631,546.865 C1138.578,542.313 1143.555,543.372 1146.116,548.507 C1155.137,549.854 1158.427,554.234 1153.994,562.929 C1157.428,571.28 1156.158,576.454 1146.224,577.839 C1144.342,583.74 1140.447,584.626 1136.173,580.158 C1131.842,585.848 1127.858,586.039 1123.3,580.417 C1120.151,586.774 1115.477,585.656 1111.677,581.112 C1108.964,585.48 1105.054,585.426 1102.501,580.946 C1098.83,588.522 1094.169,587.71 1089.08,582.427 C1085.383,586.177 1081.292,585.462 1079.8,580.165 C1077.065,586.42 1071.58,586.116 1067.974,581.077 C1064.094,585.641 1058.627,585.143 1056.825,578.929 C1053.507,585.558 1048.091,584.778 1044.669,579.031 C1041.181,584.565 1036.3,584.851 1033.165,578.685 C1025.291,574.608 1024.69,569.887 1031.413,564.063 C1024.856,558.356 1025.275,550.75 1034.238,547.726" style="stroke:#181818;stroke-width:0.5;" fill="#F1F1F1"/><text x="1039.39" y="567.185" fill="#000" font-size="14" textLength="99.217">Cloud Storage</text></g><!--entity PG--><g class="entity" data-qualified-name="PG" id="ent0017" data-source-line="27"><path d="M487.959,696.129 C491.947,690.146 496.759,689.347 500.571,696.299 C503.882,689.724 508.784,690.996 512.652,695.703 C515.668,689.161 520.841,689.446 524.665,694.894 C527.991,689.316 533.444,688.699 537.326,694.261 C540.035,688.807 544.525,688.91 547.436,694.069 C550.362,688.717 556.257,687.68 559.485,693.75 C563.248,688.991 567.837,689.009 571.178,694.244 C575.261,689.688 580.181,689.963 583.151,695.558 C586.474,688.828 590.477,690.089 594.789,694.528 C599.149,689.418 605.381,688.424 608.343,696.02 C612.295,691.557 615.773,691.046 619.205,696.585 C623.169,690.542 626.937,691.918 630.644,696.852 C639.366,697.692 642.865,705.572 637.737,712.636 C644.042,720.781 640.594,728.12 630.213,728.197 C626.306,734.237 621.621,732.808 618.345,727.535 C615.152,732.407 610.846,733.166 607.465,727.733 C603.642,734.079 599.221,735.101 594.561,728.572 C591.172,734.059 586.594,734.002 582.868,728.945 C580.203,734.601 576.883,735.482 572.616,730.487 C569.014,735.713 562.521,735.439 559.397,729.9 C556.872,734.899 551.932,735.768 549.086,730.213 C545.142,736.154 539.042,736.458 535.515,729.765 C531.255,735.548 527.258,733.812 524.261,728.487 C520.104,733.345 515.211,733.691 511.782,727.653 C509.497,733.612 504.439,733.953 501.087,728.668 C496.561,734.676 491.886,733.855 488.337,727.648 C479.506,725.223 477.684,719.956 482.772,712.438 C475.963,704.605 477.871,698.588 487.959,696.129" style="stroke:#181818;stroke-width:0.5;" fill="#F1F1F1"/><text x="494.89" y="715.975" fill="#000" font-size="14" textLength="128.215">Payment Gateway</text></g><!--entity Email--><g class="entity" data-qualified-name="Email" id="ent0018" data-source-line="28"><path d="M859.772,696.447 C863.836,688.913 869.101,689.402 873.714,695.901 C876.976,690.096 883.131,689.883 886.572,695.703 C889.845,688.286 895.3,687.974 899.953,694.366 C904.347,687.394 911.017,686.486 914.927,694.839 C917.861,689.073 923.416,689.751 926.638,694.52 C931,687.172 937.693,689.019 941.391,695.242 C945.589,689.973 952.454,689.932 954.914,697.129 C958.775,691.216 964.696,690.61 968.913,696.715 C977.436,697.797 982.96,704.704 976.002,712.666 C979.835,720.387 978.729,725.531 969.094,726.554 C966.204,734.734 961.661,735.455 955.547,729.684 C952.1,736.979 944.864,735.845 941.018,730.13 C936.451,737.671 931.843,736.134 927.219,730.188 C923.508,737.287 918.386,738.451 913.214,731.66 C909.552,737.088 904.546,737.505 900.501,732.11 C895.739,736.853 891.309,737.352 887.931,730.596 C883.027,737.939 875.326,737.368 872.446,728.646 C866.562,734.934 862.363,732.694 858.598,726.328 C850.715,725.964 846.025,721.09 850.044,713.055 C845.141,703.896 850.18,697.116 859.772,696.447" style="stroke:#181818;stroke-width:0.5;" fill="#F1F1F1"/><text x="865.48" y="715.975" fill="#000" font-size="14" textLength="95.033">Email Service</text></g><!--link Browser to Internet--><g class="link" data-entity-1="ent0001" data-entity-2="ent0002" id="lnk19" data-source-line="30" data-link-type="dependency"><path d="M126,52.68 C126,74.46 126,102.29 126,124.03" style="stroke:#181818;stroke-width:1;" fill="none" id="Browser-to-Internet"/><polygon points="126,129.03,130,120.03,126,124.03,122,120.03,126,129.03" fill="#181818" style="stroke:#181818;stroke-width:1;stroke-linejoin:miter;stroke-miterlimit:10;"/><text x="127" y="95.367" fill="#000" font-size="13" textLength="41.749">HTTPS</text></g><!--link Internet to Nginx--><g class="link" data-entity-1="ent0002" data-entity-2="ent0005" id="lnk20" data-source-line="31" data-link-type="dependency"><path d="M126,175.91 C126,204.03 126,246.71 126,273.15" style="stroke:#181818;stroke-width:1;" fill="none" id="Internet-to-Nginx"/><polygon points="126,278.15,130,269.15,126,273.15,122,269.15,126,278.15" fill="#181818" style="stroke:#181818;stroke-width:1;stroke-linejoin:miter;stroke-miterlimit:10;"/><text x="127" y="218.657" fill="#000" font-size="13" textLength="41.749">HTTPS</text></g><!--link Nginx to ReactApp--><g class="link" data-entity-1="ent0005" data-entity-2="ent0004" id="lnk21" data-source-line="32" data-link-type="dependency"><path d="M122.63,318.16 C117.86,344.94 110.056,388.687 105.276,415.547" style="stroke:#181818;stroke-width:1;" fill="none" id="Nginx-to-ReactApp"/><polygon points="104.4,420.47,109.915,412.31,105.276,415.547,102.039,410.908,104.4,420.47" fill="#181818" style="stroke:#181818;stroke-width:1;stroke-linejoin:miter;stroke-miterlimit:10;"/></g><!--link Nginx to API--><g class="link" data-entity-1="ent0005" data-entity-2="ent0007" id="lnk22" data-source-line="33" data-link-type="dependency"><path d="M161.55,309.79 C240.94,333.33 428.776,389.048 529.856,419.028" style="stroke:#181818;stroke-width:1;" fill="none" id="Nginx-to-API"/><polygon points="534.65,420.45,527.159,414.056,529.856,419.028,524.884,421.726,534.65,420.45" fill="#181818" style="stroke:#181818;stroke-width:1;stroke-linejoin:miter;stroke-miterlimit:10;"/><text x="335" y="360.957" fill="#000" font-size="13" textLength="93.495">Reverse Proxy</text></g><!--link API to AuthSrv--><g class="link" data-entity-1="ent0007" data-entity-2="ent0008" id="lnk23" data-source-line="35" data-link-type="dependency"><path d="M554.16,460.65 C501.64,483.05 419.739,517.959 367.279,540.329" style="stroke:#181818;stroke-width:1;" fill="none" id="API-to-AuthSrv"/><polygon points="362.68,542.29,372.528,542.439,367.279,540.329,369.39,535.08,362.68,542.29" fill="#181818" style="stroke:#181818;stroke-width:1;stroke-linejoin:miter;stroke-miterlimit:10;"/></g><!--link API to InvSrv--><g class="link" data-entity-1="ent0007" data-entity-2="ent0009" id="lnk24" data-source-line="36" data-link-type="dependency"><path d="M587.59,460.52 C574.11,482.95 554.385,515.764 540.935,538.154" style="stroke:#181818;stroke-width:1;" fill="none" id="API-to-InvSrv"/><polygon points="538.36,542.44,546.423,536.785,540.935,538.154,539.566,532.665,538.36,542.44" fill="#181818" style="stroke:#181818;stroke-width:1;stroke-linejoin:miter;stroke-miterlimit:10;"/></g><!--link API to BookSrv--><g class="link" data-entity-1="ent0007" data-entity-2="ent0010" id="lnk25" data-source-line="37" data-link-type="dependency"><path d="M617.54,460.52 C639.45,482.95 672.186,516.473 694.056,538.863" style="stroke:#181818;stroke-width:1;" fill="none" id="API-to-BookSrv"/><polygon points="697.55,542.44,694.123,533.207,694.056,538.863,688.4,538.797,697.55,542.44" fill="#181818" style="stroke:#181818;stroke-width:1;stroke-linejoin:miter;stroke-miterlimit:10;"/></g><!--link API to NotifSrv--><g class="link" data-entity-1="ent0007" data-entity-2="ent0011" id="lnk26" data-source-line="38" data-link-type="dependency"><path d="M647.98,460.65 C705.29,483.01 794.942,518.003 852.282,540.373" style="stroke:#181818;stroke-width:1;" fill="none" id="API-to-NotifSrv"/><polygon points="856.94,542.19,850.009,535.192,852.282,540.373,847.102,542.645,856.94,542.19" fill="#181818" style="stroke:#181818;stroke-width:1;stroke-linejoin:miter;stroke-miterlimit:10;"/></g><!--link AuthSrv to PGDB--><g class="link" data-entity-1="ent0008" data-entity-2="ent0013" id="lnk27" data-source-line="40" data-link-type="dependency"><path d="M323.28,582.23 C330.89,609.48 343.576,654.904 351.596,683.634" style="stroke:#181818;stroke-width:1;" fill="none" id="AuthSrv-to-PGDB"/><polygon points="352.94,688.45,354.373,678.706,351.596,683.634,346.667,680.857,352.94,688.45" fill="#181818" style="stroke:#181818;stroke-width:1;stroke-linejoin:miter;stroke-miterlimit:10;"/></g><!--link InvSrv to PGDB--><g class="link" data-entity-1="ent0009" data-entity-2="ent0013" id="lnk28" data-source-line="41" data-link-type="dependency"><path d="M505.38,582.23 C474.27,609.41 420.785,656.14 387.855,684.92" style="stroke:#181818;stroke-width:1;" fill="none" id="InvSrv-to-PGDB"/><polygon points="384.09,688.21,393.499,685.299,387.855,684.92,388.234,679.276,384.09,688.21" fill="#181818" style="stroke:#181818;stroke-width:1;stroke-linejoin:miter;stroke-miterlimit:10;"/></g><!--link BookSrv to PGDB--><g class="link" data-entity-1="ent0010" data-entity-2="ent0013" id="lnk29" data-source-line="42" data-link-type="dependency"><path d="M677.16,582.33 C661.62,589.83 643.52,598.44 627,605.98 C600.11,618.26 594.69,625.36 566,632.48 C521.01,643.65 505.77,625.21 462,640.48 C432.45,650.79 407.187,668.588 387.487,684.838" style="stroke:#181818;stroke-width:1;" fill="none" id="BookSrv-to-PGDB"/><polygon points="383.63,688.02,393.118,685.379,387.487,684.838,388.027,679.207,383.63,688.02" fill="#181818" style="stroke:#181818;stroke-width:1;stroke-linejoin:miter;stroke-miterlimit:10;"/></g><!--link InvSrv to Redis--><g class="link" data-entity-1="ent0009" data-entity-2="ent0015" id="lnk30" data-source-line="44" data-link-type="dependency"><path d="M561.71,582.45 C588.13,597.39 625.08,619.13 656,640.48 C677.65,655.43 697.076,670.795 714.256,684.995" style="stroke:#181818;stroke-width:1;" fill="none" id="InvSrv-to-Redis"/><polygon points="718.11,688.18,713.721,679.363,714.256,684.995,708.625,685.529,718.11,688.18" fill="#181818" style="stroke:#181818;stroke-width:1;stroke-linejoin:miter;stroke-miterlimit:10;"/></g><!--link BookSrv to Redis--><g class="link" data-entity-1="ent0010" data-entity-2="ent0015" id="lnk31" data-source-line="45" data-link-type="dependency"><path d="M744.77,582.28 C755.41,590.99 766.27,602.33 772,615.48 C782.46,639.52 772.939,664.321 761.549,683.851" style="stroke:#181818;stroke-width:1;" fill="none" id="BookSrv-to-Redis"/><polygon points="759.03,688.17,767.019,682.411,761.549,683.851,760.109,678.38,759.03,688.17" fill="#181818" style="stroke:#181818;stroke-width:1;stroke-linejoin:miter;stroke-miterlimit:10;"/></g><!--link InvSrv to PG--><g class="link" data-entity-1="ent0009" data-entity-2="ent0017" id="lnk32" data-source-line="47" data-link-type="dependency"><path d="M521.25,582.34 C517.86,596.35 514.96,615.81 519,632.48 C523.79,652.23 531.905,668.318 541.055,683.228" style="stroke:#181818;stroke-width:1;" fill="none" id="InvSrv-to-PG"/><polygon points="543.67,687.49,542.372,677.727,541.055,683.228,535.553,681.911,543.67,687.49" fill="#181818" style="stroke:#181818;stroke-width:1;stroke-linejoin:miter;stroke-miterlimit:10;"/><text x="520" y="628.547" fill="#000" font-size="13" textLength="82.196">Payment API</text></g><!--link BookSrv to PG--><g class="link" data-entity-1="ent0010" data-entity-2="ent0017" id="lnk33" data-source-line="48" data-link-type="dependency"><path d="M695.8,582.23 C666.89,609.25 617.482,655.445 586.632,684.295" style="stroke:#181818;stroke-width:1;" fill="none" id="BookSrv-to-PG"/><polygon points="582.98,687.71,592.286,684.484,586.632,684.295,586.821,678.641,582.98,687.71" fill="#181818" style="stroke:#181818;stroke-width:1;stroke-linejoin:miter;stroke-miterlimit:10;"/><text x="657" y="628.547" fill="#000" font-size="13" textLength="82.196">Payment API</text></g><!--link NotifSrv to Email--><g class="link" data-entity-1="ent0011" data-entity-2="ent0018" id="lnk34" data-source-line="50" data-link-type="dependency"><path d="M906.9,582.23 C908.19,609.33 910.333,654.156 911.703,682.966" style="stroke:#181818;stroke-width:1;" fill="none" id="NotifSrv-to-Email"/><polygon points="911.94,687.96,915.508,678.78,911.703,682.966,907.517,679.16,911.94,687.96" fill="#181818" style="stroke:#181818;stroke-width:1;stroke-linejoin:miter;stroke-miterlimit:10;"/><text x="910" y="628.547" fill="#000" font-size="13" textLength="35.249">SMTP</text></g><!--link API to Storage--><g class="link" data-entity-1="ent0007" data-entity-2="ent0016" id="lnk35" data-source-line="52" data-link-type="dependency"><path d="M680.4,460.56 C762.46,479.88 892.7,510.88 1005,539.19 C1011.14,540.73 1012.689,541.12 1019.079,542.77" style="stroke:#181818;stroke-width:1;" fill="none" id="API-to-Storage"/><polygon points="1023.92,544.02,1016.206,537.897,1019.079,542.77,1014.206,545.643,1023.92,544.02" fill="#181818" style="stroke:#181818;stroke-width:1;stroke-linejoin:miter;stroke-miterlimit:10;"/><text x="883" y="505.257" fill="#000" font-size="13" textLength="77.695">File Storage</text></g><?plantuml-src TLB9Ri8m4BtxAqQvymCSAh4NgKKfeUhP9DDWDTZ8DW5KzTzhJ-m48t6ovorZpo9LXP1z6jGmrUhYpWouYNV6oaQTAyZMqgAMQ8cC0MEIt5-uXm9rwxs_381hAxvvQI7ReZ-MMZc7hCXCqEHqIdIRMiWhqNHZVp6r4pQYv5Oe-UI9nVMaqHYOvEjUmIbCP9EpFQ2qZxcyqZ65RXFrMhPexD4PI2bA38MtZygfKZz2redCOu-wZNAt-zUZc0YlxckUSyltt61IS1N1B5V6rXgBZpU8IagKh-RJ8ScCbuTd6RPO2GEa22DniRU6OS_eAApIlEuKuHu5ERzHRrRSueNVmlEHNHovQ98Q2M4iB1MCHY_z3i4ONdUxl60zu5dQWfxg8e_topD0VkvZHxWwNMsvLjSROnuaCimsnc60COo3Yd4_2nQCX59ZE-SG1-i0t2kwXjvBEYJDuhuT6-ctDStuGBBuDQAx3e-XUD_bGx5XI0vVYWPZ-0y0?></g></svg>