<svg xmlns="http://www.w3.org/2000/svg" xmlns:xlink="http://www.w3.org/1999/xlink" version="1.1" data-diagram-type="DESCRIPTION" style="width:921px;height:2242px;background:#FFFFFF;" width="921px" height="2242px" viewBox="0 0 921 2242" zoomAndPan="magnify" preserveAspectRatio="none" contentStyleType="text/css"><?plantuml 1.2026.7beta8?><defs/><g font-family="sans-serif" lengthAdjust="spacing"><!--cluster ElderNest--><g class="cluster" data-qualified-name="ElderNest" id="ent0006" data-source-line="9"><rect x="168.59" y="140.54" width="490.08" height="1735" fill="none" style="stroke:#181818;stroke-width:1;" rx="2.5" ry="2.5"/><text x="375.12" y="155.535" fill="#000" font-size="14" textLength="77.021" font-weight="700">ElderNest</text></g><!--entity UC1--><g class="entity" data-qualified-name="ElderNest.UC1" id="ent0007" data-source-line="10"><ellipse cx="276.833" cy="886.544" rx="44.203" ry="14.524" fill="#F1F1F1" style="stroke:#181818;stroke-width:0.5;"/><text x="247.698" y="891.192" fill="#000" font-size="14" textLength="58.27">Register</text></g><!--entity UC2--><g class="entity" data-qualified-name="ElderNest.UC2" id="ent0008" data-source-line="11"><ellipse cx="276.83" cy="950.544" rx="29.88" ry="14.524" fill="#F1F1F1" style="stroke:#181818;stroke-width:0.5;"/><text x="257.823" y="955.192" fill="#000" font-size="14" textLength="38.015">Login</text></g><!--entity UC3--><g class="entity" data-qualified-name="ElderNest.UC3" id="ent0009" data-source-line="12"><ellipse cx="568.376" cy="551.535" rx="67.276" ry="15.855" fill="#F1F1F1" style="stroke:#181818;stroke-width:0.5;"/><text x="518.662" y="556.184" fill="#000" font-size="14" textLength="99.429">Complete KYC</text></g><!--entity UC4--><g class="entity" data-qualified-name="ElderNest.UC4" id="ent0010" data-source-line="13"><ellipse cx="276.832" cy="1015.54" rx="67.202" ry="15.84" fill="#F1F1F1" style="stroke:#181818;stroke-width:0.5;"/><text x="227.214" y="1020.189" fill="#000" font-size="14" textLength="99.237">Update Profile</text></g><!--entity UC5--><g class="entity" data-qualified-name="ElderNest.UC5" id="ent0011" data-source-line="14"><ellipse cx="568.377" cy="192.539" rx="74.297" ry="17.259" fill="#F1F1F1" style="stroke:#181818;stroke-width:0.5;"/><text x="509.868" y="197.188" fill="#000" font-size="14" textLength="117.018">Browse Facilities</text></g><!--entity UC6--><g class="entity" data-qualified-name="ElderNest.UC6" id="ent0012" data-source-line="15"><ellipse cx="276.831" cy="192.544" rx="73.121" ry="17.024" fill="#F1F1F1" style="stroke:#181818;stroke-width:0.5;"/><text x="219.761" y="197.193" fill="#000" font-size="14" textLength="114.14">Search Facilities</text></g><!--entity UC7--><g class="entity" data-qualified-name="ElderNest.UC7" id="ent0013" data-source-line="16"><ellipse cx="276.825" cy="259.535" rx="62.875" ry="14.975" fill="#F1F1F1" style="stroke:#181818;stroke-width:0.5;"/><text x="232.949" y="264.184" fill="#000" font-size="14" textLength="87.753">View Facility</text></g><!--entity UC8--><g class="entity" data-qualified-name="ElderNest.UC8" id="ent0014" data-source-line="17"><ellipse cx="276.825" cy="330.539" rx="92.245" ry="20.849" fill="#F1F1F1" style="stroke:#181818;stroke-width:0.5;"/><text x="197.423" y="335.188" fill="#000" font-size="14" textLength="158.806">View Investment Plans</text></g><!--entity UC9--><g class="entity" data-qualified-name="ElderNest.UC9" id="ent0015" data-source-line="18"><ellipse cx="276.835" cy="402.543" rx="66.865" ry="15.773" fill="#F1F1F1" style="stroke:#181818;stroke-width:0.5;"/><text x="227.654" y="407.191" fill="#000" font-size="14" textLength="98.362">Purchase Plan</text></g><!--entity UC10--><g class="entity" data-qualified-name="ElderNest.UC10" id="ent0016" data-source-line="19"><ellipse cx="276.826" cy="471.537" rx="79.186" ry="18.237" fill="#F1F1F1" style="stroke:#181818;stroke-width:0.5;"/><text x="212.449" y="476.186" fill="#000" font-size="14" textLength="128.755">Make Contribution</text></g><!--entity UC11--><g class="entity" data-qualified-name="ElderNest.UC11" id="ent0017" data-source-line="20"><ellipse cx="276.827" cy="540.537" rx="65.987" ry="15.597" fill="#F1F1F1" style="stroke:#181818;stroke-width:0.5;"/><text x="228.791" y="545.186" fill="#000" font-size="14" textLength="96.072">View Portfolio</text></g><!--entity UC12--><g class="entity" data-qualified-name="ElderNest.UC12" id="ent0018" data-source-line="21"><ellipse cx="276.834" cy="607.545" rx="70.324" ry="16.465" fill="#F1F1F1" style="stroke:#181818;stroke-width:0.5;"/><text x="223.237" y="612.193" fill="#000" font-size="14" textLength="107.194">View Payments</text></g><!--entity UC13--><g class="entity" data-qualified-name="ElderNest.UC13" id="ent0019" data-source-line="22"><ellipse cx="276.828" cy="674.542" rx="63.358" ry="15.072" fill="#F1F1F1" style="stroke:#181818;stroke-width:0.5;"/><text x="232.295" y="679.19" fill="#000" font-size="14" textLength="89.065">Book Facility</text></g><!--entity UC14--><g class="entity" data-qualified-name="ElderNest.UC14" id="ent0020" data-source-line="23"><ellipse cx="276.829" cy="743.538" rx="84.789" ry="19.358" fill="#F1F1F1" style="stroke:#181818;stroke-width:0.5;"/><text x="205.91" y="748.186" fill="#000" font-size="14" textLength="141.839">Redeem Investment</text></g><!--entity UC15--><g class="entity" data-qualified-name="ElderNest.UC15" id="ent0021" data-source-line="24"><ellipse cx="276.831" cy="817.542" rx="87.261" ry="19.852" fill="#F1F1F1" style="stroke:#181818;stroke-width:0.5;"/><text x="203.075" y="822.191" fill="#000" font-size="14" textLength="147.513">Receive Notifications</text></g><!--entity UC16--><g class="entity" data-qualified-name="ElderNest.UC16" id="ent0022" data-source-line="26"><ellipse cx="276.829" cy="1296.536" rx="71.379" ry="16.676" fill="#F1F1F1" style="stroke:#181818;stroke-width:0.5;"/><text x="221.913" y="1301.184" fill="#000" font-size="14" textLength="109.833">Manage Facility</text></g><!--entity UC17--><g class="entity" data-qualified-name="ElderNest.UC17" id="ent0023" data-source-line="27"><ellipse cx="276.826" cy="1364.537" rx="70.586" ry="16.517" fill="#F1F1F1" style="stroke:#181818;stroke-width:0.5;"/><text x="222.901" y="1369.186" fill="#000" font-size="14" textLength="107.851">Manage Rooms</text></g><!--entity UC18--><g class="entity" data-qualified-name="ElderNest.UC18" id="ent0024" data-source-line="28"><ellipse cx="276.832" cy="1433.54" rx="75.152" ry="17.43" fill="#F1F1F1" style="stroke:#181818;stroke-width:0.5;"/><text x="217.284" y="1438.189" fill="#000" font-size="14" textLength="119.096">Manage Services</text></g><!--entity UC19--><g class="entity" data-qualified-name="ElderNest.UC19" id="ent0025" data-source-line="29"><ellipse cx="276.832" cy="1085.536" rx="82.782" ry="18.956" fill="#F1F1F1" style="stroke:#181818;stroke-width:0.5;"/><text x="208.237" y="1090.185" fill="#000" font-size="14" textLength="137.19">Manage Availability</text></g><!--entity UC20--><g class="entity" data-qualified-name="ElderNest.UC20" id="ent0026" data-source-line="30"><ellipse cx="276.834" cy="1156.545" rx="75.324" ry="17.465" fill="#F1F1F1" style="stroke:#181818;stroke-width:0.5;"/><text x="217.078" y="1161.193" fill="#000" font-size="14" textLength="119.513">Approve Booking</text></g><!--entity UC21--><g class="entity" data-qualified-name="ElderNest.UC21" id="ent0027" data-source-line="31"><ellipse cx="276.827" cy="1226.535" rx="77.427" ry="17.885" fill="#F1F1F1" style="stroke:#181818;stroke-width:0.5;"/><text x="214.542" y="1231.184" fill="#000" font-size="14" textLength="124.571">View Investments</text></g><!--entity UC22--><g class="entity" data-qualified-name="ElderNest.UC22" id="ent0028" data-source-line="33"><ellipse cx="276.833" cy="1713.543" rx="67.213" ry="15.843" fill="#F1F1F1" style="stroke:#181818;stroke-width:0.5;"/><text x="227.201" y="1718.191" fill="#000" font-size="14" textLength="99.265">Manage Users</text></g><!--entity UC23--><g class="entity" data-qualified-name="ElderNest.UC23" id="ent0029" data-source-line="34"><ellipse cx="276.834" cy="1778.544" rx="54.624" ry="14.524" fill="#F1F1F1" style="stroke:#181818;stroke-width:0.5;"/><text x="240.33" y="1783.192" fill="#000" font-size="14" textLength="73.008">Verify KYC</text></g><!--entity UC24--><g class="entity" data-qualified-name="ElderNest.UC24" id="ent0030" data-source-line="35"><ellipse cx="276.835" cy="1843.539" rx="66.395" ry="15.679" fill="#F1F1F1" style="stroke:#181818;stroke-width:0.5;"/><text x="228.266" y="1848.187" fill="#000" font-size="14" textLength="97.139">Manage Plans</text></g><!--entity UC25--><g class="entity" data-qualified-name="ElderNest.UC25" id="ent0031" data-source-line="36"><ellipse cx="276.833" cy="1503.537" rx="76.083" ry="17.617" fill="#F1F1F1" style="stroke:#181818;stroke-width:0.5;"/><text x="216.16" y="1508.185" fill="#000" font-size="14" textLength="121.345">Manage Facilities</text></g><!--entity UC26--><g class="entity" data-qualified-name="ElderNest.UC26" id="ent0032" data-source-line="37"><ellipse cx="276.829" cy="1573.542" rx="77.259" ry="17.852" fill="#F1F1F1" style="stroke:#181818;stroke-width:0.5;"/><text x="214.745" y="1578.19" fill="#000" font-size="14" textLength="124.168">Generate Reports</text></g><!--entity UC27--><g class="entity" data-qualified-name="ElderNest.UC27" id="ent0033" data-source-line="38"><ellipse cx="276.828" cy="1644.544" rx="79.218" ry="18.244" fill="#F1F1F1" style="stroke:#181818;stroke-width:0.5;"/><text x="212.413" y="1649.192" fill="#000" font-size="14" textLength="128.83">Suspend Accounts</text></g><!--entity Investor--><g class="entity" data-qualified-name="Investor" id="ent0001" data-source-line="3"><ellipse cx="63.792" cy="510.89" rx="8" ry="8" fill="#F1F1F1" style="stroke:#181818;stroke-width:0.5;"/><path d="M63.792,518.89 L63.792,545.89 M50.792,526.89 L76.792,526.89 M63.792,545.89 L50.792,560.89 M63.792,545.89 L76.792,560.89" style="stroke:#181818;stroke-width:0.5;" fill="none"/><text x="35.29" y="575.385" fill="#000" font-size="14" textLength="57.005">Investor</text></g><!--entity FM--><g class="entity" data-qualified-name="FM" id="ent0002" data-source-line="4"><ellipse cx="63.794" cy="1227.89" rx="8" ry="8" fill="#F1F1F1" style="stroke:#181818;stroke-width:0.5;"/><path d="M63.794,1235.89 L63.794,1262.89 M50.794,1243.89 L76.794,1243.89 M63.794,1262.89 L50.794,1277.89 M63.794,1262.89 L76.794,1277.89" style="stroke:#181818;stroke-width:0.5;" fill="none"/><text x="6" y="1292.385" fill="#000" font-size="14" textLength="115.589">Facility Manager</text></g><!--entity Administrator--><g class="entity" data-qualified-name="Administrator" id="ent0003" data-source-line="5"><ellipse cx="63.791" cy="1639.89" rx="8" ry="8" fill="#F1F1F1" style="stroke:#181818;stroke-width:0.5;"/><path d="M63.791,1647.89 L63.791,1674.89 M50.791,1655.89 L76.791,1655.89 M63.791,1674.89 L50.791,1689.89 M63.791,1674.89 L76.791,1689.89" style="stroke:#181818;stroke-width:0.5;" fill="none"/><text x="15.95" y="1704.385" fill="#000" font-size="14" textLength="95.683">Administrator</text></g><!--entity PG--><g class="entity" data-qualified-name="PG" id="ent0004" data-source-line="6"><ellipse cx="568.377" cy="1899.89" rx="8" ry="8" fill="#F1F1F1" style="stroke:#181818;stroke-width:0.5;"/><path d="M568.377,1907.89 L568.377,1934.89 M555.377,1915.89 L581.377,1915.89 M568.377,1934.89 L555.377,1949.89 M568.377,1934.89 L581.377,1949.89" style="stroke:#181818;stroke-width:0.5;" fill="none"/><text x="504.27" y="1964.385" fill="#000" font-size="14" textLength="128.215">Payment Gateway</text></g><!--entity NS--><g class="entity" data-qualified-name="NS" id="ent0005" data-source-line="7"><ellipse cx="837.93" cy="2033.89" rx="8" ry="8" fill="#F1F1F1" style="stroke:#181818;stroke-width:0.5;"/><path d="M837.93,2041.89 L837.93,2068.89 M824.93,2049.89 L850.93,2049.89 M837.93,2068.89 L824.93,2083.89 M837.93,2068.89 L850.93,2083.89" style="stroke:#181818;stroke-width:0.5;" fill="none"/><text x="769.67" y="2098.385" fill="#000" font-size="14" textLength="136.521">Notification Service</text></g><!--link Investor to UC1--><g class="link" data-entity-1="ent0001" data-entity-2="ent0007" id="lnk34" data-source-line="41" data-link-type="dependency"><path d="M65.23,579.14 C68.13,645.1 83.77,779.64 160.59,854.54 C179.69,873.17 203.707,880.476 227.817,883.806" style="stroke:#181818;stroke-width:1;" fill="none" id="Investor-to-UC1"/><polygon points="232.77,884.49,224.402,879.296,227.817,883.806,223.307,887.221,232.77,884.49" fill="#181818" style="stroke:#181818;stroke-width:1;stroke-linejoin:miter;stroke-miterlimit:10;"/></g><!--link Investor to UC2--><g class="link" data-entity-1="ent0001" data-entity-2="ent0008" id="lnk35" data-source-line="42" data-link-type="dependency"><path d="M69.62,578.97 C81.18,665.12 113.09,869.95 160.59,918.54 C183.09,941.55 215.602,948.078 241.692,949.918" style="stroke:#181818;stroke-width:1;" fill="none" id="Investor-to-UC2"/><polygon points="246.68,950.27,237.984,945.647,241.692,949.918,237.421,953.627,246.68,950.27" fill="#181818" style="stroke:#181818;stroke-width:1;stroke-linejoin:miter;stroke-miterlimit:10;"/></g><!--link Investor to UC3--><g class="link" data-entity-1="ent0001" data-entity-2="ent0009" id="lnk36" data-source-line="43" data-link-type="dependency"><path d="M66.29,502.23 C70.99,404.13 89.14,147.96 151.59,96.54 C261.54,6 361.44,68.8 464.08,167.54 C491.82,194.22 548.594,460.904 563.034,530.474" style="stroke:#181818;stroke-width:1;" fill="none" id="Investor-to-UC3"/><polygon points="564.05,535.37,566.137,525.745,563.034,530.474,558.304,527.371,564.05,535.37" fill="#181818" style="stroke:#181818;stroke-width:1;stroke-linejoin:miter;stroke-miterlimit:10;"/></g><!--link Investor to UC4--><g class="link" data-entity-1="ent0001" data-entity-2="ent0010" id="lnk37" data-source-line="44" data-link-type="dependency"><path d="M68.13,579.18 C77.24,675.7 105.57,923.8 160.59,982.54 C174.25,997.12 189.011,1004.23 208.201,1008.89" style="stroke:#181818;stroke-width:1;" fill="none" id="Investor-to-UC4"/><polygon points="213.06,1010.07,205.258,1004.059,208.201,1008.89,203.37,1011.833,213.06,1010.07" fill="#181818" style="stroke:#181818;stroke-width:1;stroke-linejoin:miter;stroke-miterlimit:10;"/></g><!--link Investor to UC5--><g class="link" data-entity-1="ent0001" data-entity-2="ent0011" id="lnk38" data-source-line="45" data-link-type="dependency"><path d="M68.53,501.96 C77.99,413.45 106.09,200.09 160.59,157.54 C273.31,69.54 456.476,139.871 530.966,174.521" style="stroke:#181818;stroke-width:1;" fill="none" id="Investor-to-UC5"/><polygon points="535.5,176.63,529.027,169.207,530.966,174.521,525.653,176.461,535.5,176.63" fill="#181818" style="stroke:#181818;stroke-width:1;stroke-linejoin:miter;stroke-miterlimit:10;"/></g><!--link Investor to UC6--><g class="link" data-entity-1="ent0001" data-entity-2="ent0012" id="lnk39" data-source-line="46" data-link-type="dependency"><path d="M65.47,501.99 C68.75,436.43 84.96,303 160.59,227.54 C174.21,213.95 188.103,206.949 206.493,201.839" style="stroke:#181818;stroke-width:1;" fill="none" id="Investor-to-UC6"/><polygon points="211.31,200.5,201.568,199.056,206.493,201.839,203.709,206.764,211.31,200.5" fill="#181818" style="stroke:#181818;stroke-width:1;stroke-linejoin:miter;stroke-miterlimit:10;"/></g><!--link Investor to UC7--><g class="link" data-entity-1="ent0001" data-entity-2="ent0013" id="lnk40" data-source-line="47" data-link-type="dependency"><path d="M68.96,502.31 C76.94,447.87 99.44,348.44 160.59,292.54 C176.33,278.15 193.075,271.1 213.325,266.49" style="stroke:#181818;stroke-width:1;" fill="none" id="Investor-to-UC7"/><polygon points="218.2,265.38,208.537,263.478,213.325,266.49,210.312,271.278,218.2,265.38" fill="#181818" style="stroke:#181818;stroke-width:1;stroke-linejoin:miter;stroke-miterlimit:10;"/></g><!--link Investor to UC8--><g class="link" data-entity-1="ent0001" data-entity-2="ent0014" id="lnk41" data-source-line="48" data-link-type="dependency"><path d="M77.04,502.19 C91.26,463.52 118.32,404.66 160.59,369.54 C174.07,358.34 186.205,351.935 202.825,346.185" style="stroke:#181818;stroke-width:1;" fill="none" id="Investor-to-UC8"/><polygon points="207.55,344.55,197.737,343.712,202.825,346.185,200.352,351.273,207.55,344.55" fill="#181818" style="stroke:#181818;stroke-width:1;stroke-linejoin:miter;stroke-miterlimit:10;"/></g><!--link Investor to UC9--><g class="link" data-entity-1="ent0001" data-entity-2="ent0015" id="lnk42" data-source-line="49" data-link-type="dependency"><path d="M91.36,502.07 C108.68,479.67 133.12,452.57 160.59,435.54 C178.9,424.19 196.387,417.824 216.507,412.834" style="stroke:#181818;stroke-width:1;" fill="none" id="Investor-to-UC9"/><polygon points="221.36,411.63,211.662,409.914,216.507,412.834,213.588,417.679,221.36,411.63" fill="#181818" style="stroke:#181818;stroke-width:1;stroke-linejoin:miter;stroke-miterlimit:10;"/></g><!--link Investor to UC10--><g class="link" data-entity-1="ent0001" data-entity-2="ent0016" id="lnk43" data-source-line="50" data-link-type="dependency"><path d="M92.39,530.8 C111.49,524.11 137.53,515.11 160.59,507.54 C182.6,500.31 202.304,494.1 223.014,487.68" style="stroke:#181818;stroke-width:1;" fill="none" id="Investor-to-UC10"/><polygon points="227.79,486.2,218.009,485.044,223.014,487.68,220.378,492.685,227.79,486.2" fill="#181818" style="stroke:#181818;stroke-width:1;stroke-linejoin:miter;stroke-miterlimit:10;"/></g><!--link Investor to UC11--><g class="link" data-entity-1="ent0001" data-entity-2="ent0017" id="lnk44" data-source-line="51" data-link-type="dependency"><path d="M92.38,540.54 C122.22,540.54 165.82,540.54 205.51,540.54" style="stroke:#181818;stroke-width:1;" fill="none" id="Investor-to-UC11"/><polygon points="210.51,540.54,201.51,536.54,205.51,540.54,201.51,544.54,210.51,540.54" fill="#181818" style="stroke:#181818;stroke-width:1;stroke-linejoin:miter;stroke-miterlimit:10;"/></g><!--link Investor to UC12--><g class="link" data-entity-1="ent0001" data-entity-2="ent0018" id="lnk45" data-source-line="52" data-link-type="dependency"><path d="M92.77,550.55 C111.81,557.27 137.63,566.2 160.59,573.54 C183.64,580.91 204.657,587.19 226.007,593.37" style="stroke:#181818;stroke-width:1;" fill="none" id="Investor-to-UC12"/><polygon points="230.81,594.76,223.277,588.415,226.007,593.37,221.053,596.1,230.81,594.76" fill="#181818" style="stroke:#181818;stroke-width:1;stroke-linejoin:miter;stroke-miterlimit:10;"/></g><!--link Investor to UC13--><g class="link" data-entity-1="ent0001" data-entity-2="ent0019" id="lnk46" data-source-line="53" data-link-type="dependency"><path d="M92.45,578.51 C109.82,599.85 133.94,625.37 160.59,641.54 C179.81,653.2 198.459,659.719 219.219,664.719" style="stroke:#181818;stroke-width:1;" fill="none" id="Investor-to-UC13"/><polygon points="224.08,665.89,216.267,659.894,219.219,664.719,214.394,667.671,224.08,665.89" fill="#181818" style="stroke:#181818;stroke-width:1;stroke-linejoin:miter;stroke-miterlimit:10;"/></g><!--link Investor to UC14--><g class="link" data-entity-1="ent0001" data-entity-2="ent0020" id="lnk47" data-source-line="54" data-link-type="dependency"><path d="M82.83,579.17 C103.87,622.74 138.56,689.86 160.59,707.54 C174.4,718.63 186.88,724.82 203.8,730.14" style="stroke:#181818;stroke-width:1;" fill="none" id="Investor-to-UC14"/><polygon points="208.57,731.64,201.184,725.125,203.8,730.14,198.785,732.756,208.57,731.64" fill="#181818" style="stroke:#181818;stroke-width:1;stroke-linejoin:miter;stroke-miterlimit:10;"/></g><!--link Investor to UC15--><g class="link" data-entity-1="ent0001" data-entity-2="ent0021" id="lnk48" data-source-line="55" data-link-type="dependency"><path d="M79.73,579.18 C105.68,646.12 156.69,776.9 160.59,780.54 C173.11,792.22 184.599,798.63 200.909,804.1" style="stroke:#181818;stroke-width:1;" fill="none" id="Investor-to-UC15"/><polygon points="205.65,805.69,198.389,799.036,200.909,804.1,195.845,806.621,205.65,805.69" fill="#181818" style="stroke:#181818;stroke-width:1;stroke-linejoin:miter;stroke-miterlimit:10;"/></g><!--link UC9 to UC3--><g class="link" data-entity-1="ent0015" data-entity-2="ent0009" id="lnk49" data-source-line="57" data-link-type="dependency"><path d="M318,415.29 C334.14,420.87 352.76,427.89 369.08,435.54 C435.35,466.59 504.316,509.992 540.436,533.632" style="stroke:#181818;stroke-width:1;stroke-dasharray:7,7;" fill="none" id="UC9-to-UC3"/><polygon points="544.62,536.37,539.28,528.094,540.436,533.632,534.899,534.788,544.62,536.37" fill="#181818" style="stroke:#181818;stroke-width:1;stroke-linejoin:miter;stroke-miterlimit:10;"/><text x="400.08" y="448.607" fill="#000" font-size="13" textLength="63.007">«include»</text></g><!--link UC13 to UC3--><g class="link" data-entity-1="ent0019" data-entity-2="ent0009" id="lnk50" data-source-line="58" data-link-type="dependency"><path d="M314.49,662.03 C331.25,656.11 351.29,648.78 369.08,641.54 C429.66,616.88 494.41,586.608 532.95,568.168" style="stroke:#181818;stroke-width:1;stroke-dasharray:7,7;" fill="none" id="UC13-to-UC3"/><polygon points="537.46,566.01,527.615,566.286,532.95,568.168,531.068,573.503,537.46,566.01" fill="#181818" style="stroke:#181818;stroke-width:1;stroke-linejoin:miter;stroke-miterlimit:10;"/><text x="400.08" y="597.607" fill="#000" font-size="13" textLength="63.007">«include»</text></g><!--link UC6 to UC5--><g class="link" data-entity-1="ent0012" data-entity-2="ent0011" id="lnk51" data-source-line="59" data-link-type="dependency"><path d="M350.15,192.54 C393.95,192.54 444.68,192.54 488.72,192.54" style="stroke:#181818;stroke-width:1;stroke-dasharray:7,7;" fill="none" id="UC6-to-UC5"/><polygon points="493.72,192.54,484.72,188.54,488.72,192.54,484.72,196.54,493.72,192.54" fill="#181818" style="stroke:#181818;stroke-width:1;stroke-linejoin:miter;stroke-miterlimit:10;"/><text x="401.08" y="188.607" fill="#000" font-size="13" textLength="61.185">«extend»</text></g><!--link UC9 to PG--><g class="link" data-entity-1="ent0015" data-entity-2="ent0004" id="lnk52" data-source-line="61" data-link-type="dependency"><path d="M332.1,411.63 C346.06,416.51 359.76,424.01 369.08,435.54 C399.84,473.55 389.13,605.66 399.08,653.54 C420.87,758.38 447.89,779.69 464.08,885.54 C480.71,994.32 442.96,1778.08 494.08,1875.54 C497.02,1881.14 497.44,1882.626 501.78,1887.356" style="stroke:#181818;stroke-width:1;stroke-dasharray:7,7;" fill="none" id="UC9-to-PG"/><polygon points="505.16,1891.04,502.023,1881.704,501.78,1887.356,496.128,1887.113,505.16,1891.04" fill="#181818" style="stroke:#181818;stroke-width:1;stroke-linejoin:miter;stroke-miterlimit:10;"/><text x="400.08" y="649.607" fill="#000" font-size="13" textLength="63.007">«include»</text></g><!--link UC10 to PG--><g class="link" data-entity-1="ent0016" data-entity-2="ent0004" id="lnk53" data-source-line="62" data-link-type="dependency"><path d="M336.93,483.84 C349.35,489.13 361.1,496.71 369.08,507.54 C395.45,543.33 392.79,862.53 399.08,906.54 C418.8,1044.61 446.42,1075.19 464.08,1213.54 C473.4,1286.58 459.39,1810.59 494.08,1875.54 C497.06,1881.12 497.512,1882.593 501.862,1887.313" style="stroke:#181818;stroke-width:1;stroke-dasharray:7,7;" fill="none" id="UC10-to-PG"/><polygon points="505.25,1890.99,502.092,1881.661,501.862,1887.313,496.209,1887.083,505.25,1890.99" fill="#181818" style="stroke:#181818;stroke-width:1;stroke-linejoin:miter;stroke-miterlimit:10;"/><text x="400.08" y="902.607" fill="#000" font-size="13" textLength="63.007">«include»</text></g><!--link UC13 to PG--><g class="link" data-entity-1="ent0019" data-entity-2="ent0004" id="lnk54" data-source-line="63" data-link-type="dependency"><path d="M331.72,682.23 C346.02,686.93 359.99,694.47 369.08,706.54 C404.41,753.49 393.1,1176.08 399.08,1234.54 C428.39,1521.04 345.64,1628.74 494.08,1875.54 C497.42,1881.09 498.084,1882.666 502.704,1887.416" style="stroke:#181818;stroke-width:1;stroke-dasharray:7,7;" fill="none" id="UC13-to-PG"/><polygon points="506.19,1891,502.782,1881.759,502.704,1887.416,497.048,1887.337,506.19,1891" fill="#181818" style="stroke:#181818;stroke-width:1;stroke-linejoin:miter;stroke-miterlimit:10;"/><text x="400.08" y="1230.607" fill="#000" font-size="13" textLength="63.007">«include»</text></g><!--link UC9 to NS--><g class="link" data-entity-1="ent0015" data-entity-2="ent0005" id="lnk55" data-source-line="65" data-link-type="dependency"><path d="M333.45,411.13 C347.26,416.01 360.53,423.63 369.08,435.54 C414.19,498.37 379.24,1752.78 399.08,1827.54 C421.78,1913.08 422.3,1950.78 494.08,2002.54 C575.36,2061.15 690.111,2069.538 764.451,2068.088" style="stroke:#181818;stroke-width:1;stroke-dasharray:7,7;" fill="none" id="UC9-to-NS"/><polygon points="769.45,2067.99,760.374,2064.166,764.451,2068.088,760.53,2072.165,769.45,2067.99" fill="#181818" style="stroke:#181818;stroke-width:1;stroke-linejoin:miter;stroke-miterlimit:10;"/><text x="536.88" y="1998.607" fill="#000" font-size="13" textLength="63.007">«include»</text></g><!--link UC13 to NS--><g class="link" data-entity-1="ent0019" data-entity-2="ent0005" id="lnk56" data-source-line="66" data-link-type="dependency"><path d="M331.98,682.03 C346.29,686.73 360.2,694.31 369.08,706.54 C456.51,826.97 312.04,1924.83 399.08,2045.54 C480.29,2158.16 663.467,2120.849 764.687,2089.279" style="stroke:#181818;stroke-width:1;stroke-dasharray:7,7;" fill="none" id="UC13-to-NS"/><polygon points="769.46,2087.79,759.677,2086.651,764.687,2089.279,762.059,2094.288,769.46,2087.79" fill="#181818" style="stroke:#181818;stroke-width:1;stroke-linejoin:miter;stroke-miterlimit:10;"/><text x="536.88" y="2105.607" fill="#000" font-size="13" textLength="63.007">«include»</text></g><!--link UC3 to NS--><g class="link" data-entity-1="ent0009" data-entity-2="ent0005" id="lnk57" data-source-line="67" data-link-type="dependency"><path d="M572.24,567.75 C598.12,713.95 790.279,1799.907 829.229,2019.987" style="stroke:#181818;stroke-width:1;stroke-dasharray:7,7;" fill="none" id="UC3-to-NS"/><polygon points="830.1,2024.91,832.47,2015.351,829.229,2019.987,824.593,2016.745,830.1,2024.91" fill="#181818" style="stroke:#181818;stroke-width:1;stroke-linejoin:miter;stroke-miterlimit:10;"/><text x="675.67" y="1168.607" fill="#000" font-size="13" textLength="63.007">«include»</text></g><!--link FM to UC16--><g class="link" data-entity-1="ent0002" data-entity-2="ent0022" id="lnk58" data-source-line="69" data-link-type="dependency"><path d="M121.9,1268.09 C152.3,1273.71 184.623,1279.681 214.853,1285.271" style="stroke:#181818;stroke-width:1;" fill="none" id="FM-to-UC16"/><polygon points="219.77,1286.18,211.647,1280.61,214.853,1285.271,210.193,1288.477,219.77,1286.18" fill="#181818" style="stroke:#181818;stroke-width:1;stroke-linejoin:miter;stroke-miterlimit:10;"/></g><!--link FM to UC17--><g class="link" data-entity-1="ent0002" data-entity-2="ent0023" id="lnk59" data-source-line="70" data-link-type="dependency"><path d="M108.33,1296.05 C123.99,1308.41 142.31,1321.28 160.59,1330.54 C180.22,1340.49 198.409,1346.722 218.699,1352.132" style="stroke:#181818;stroke-width:1;" fill="none" id="FM-to-UC17"/><polygon points="223.53,1353.42,215.864,1347.236,218.699,1352.132,213.803,1354.966,223.53,1353.42" fill="#181818" style="stroke:#181818;stroke-width:1;stroke-linejoin:miter;stroke-miterlimit:10;"/></g><!--link FM to UC18--><g class="link" data-entity-1="ent0002" data-entity-2="ent0024" id="lnk60" data-source-line="71" data-link-type="dependency"><path d="M81.76,1295.87 C97.74,1327.75 124.6,1372.05 160.59,1398.54 C176.5,1410.25 191.553,1416.748 210.293,1421.968" style="stroke:#181818;stroke-width:1;" fill="none" id="FM-to-UC18"/><polygon points="215.11,1423.31,207.513,1417.042,210.293,1421.968,205.367,1424.748,215.11,1423.31" fill="#181818" style="stroke:#181818;stroke-width:1;stroke-linejoin:miter;stroke-miterlimit:10;"/></g><!--link FM to UC19--><g class="link" data-entity-1="ent0002" data-entity-2="ent0025" id="lnk61" data-source-line="72" data-link-type="dependency"><path d="M82.95,1219.1 C99.25,1188.52 125.93,1146.8 160.59,1121.54 C175.58,1110.61 189.196,1104.395 206.856,1099.025" style="stroke:#181818;stroke-width:1;" fill="none" id="FM-to-UC19"/><polygon points="211.64,1097.57,201.866,1096.361,206.856,1099.025,204.193,1104.015,211.64,1097.57" fill="#181818" style="stroke:#181818;stroke-width:1;stroke-linejoin:miter;stroke-miterlimit:10;"/></g><!--link FM to UC20--><g class="link" data-entity-1="ent0002" data-entity-2="ent0026" id="lnk62" data-source-line="73" data-link-type="dependency"><path d="M114.22,1219.2 C128.63,1209.23 144.76,1199.17 160.59,1191.54 C180.09,1182.14 197.837,1175.974 217.817,1170.354" style="stroke:#181818;stroke-width:1;" fill="none" id="FM-to-UC20"/><polygon points="222.63,1169,212.883,1167.586,217.817,1170.354,215.049,1175.288,222.63,1169" fill="#181818" style="stroke:#181818;stroke-width:1;stroke-linejoin:miter;stroke-miterlimit:10;"/></g><!--link FM to UC21--><g class="link" data-entity-1="ent0002" data-entity-2="ent0027" id="lnk63" data-source-line="74" data-link-type="dependency"><path d="M121.9,1249.15 C149.25,1245.13 177.183,1241.026 205.523,1236.866" style="stroke:#181818;stroke-width:1;" fill="none" id="FM-to-UC21"/><polygon points="210.47,1236.14,200.984,1233.49,205.523,1236.866,202.146,1241.405,210.47,1236.14" fill="#181818" style="stroke:#181818;stroke-width:1;stroke-linejoin:miter;stroke-miterlimit:10;"/></g><!--link Administrator to UC22--><g class="link" data-entity-1="ent0003" data-entity-2="ent0028" id="lnk64" data-source-line="76" data-link-type="dependency"><path d="M111.89,1679.36 C145.54,1686.37 185.875,1694.779 220.295,1701.959" style="stroke:#181818;stroke-width:1;" fill="none" id="Administrator-to-UC22"/><polygon points="225.19,1702.98,217.196,1697.226,220.295,1701.959,215.563,1705.058,225.19,1702.98" fill="#181818" style="stroke:#181818;stroke-width:1;stroke-linejoin:miter;stroke-miterlimit:10;"/></g><!--link Administrator to UC23--><g class="link" data-entity-1="ent0003" data-entity-2="ent0029" id="lnk65" data-source-line="77" data-link-type="dependency"><path d="M105.12,1708.03 C121.33,1721.8 140.84,1736.41 160.59,1746.54 C182.39,1757.72 203.707,1764.271 225.607,1769.301" style="stroke:#181818;stroke-width:1;" fill="none" id="Administrator-to-UC23"/><polygon points="230.48,1770.42,222.604,1764.507,225.607,1769.301,220.813,1772.304,230.48,1770.42" fill="#181818" style="stroke:#181818;stroke-width:1;stroke-linejoin:miter;stroke-miterlimit:10;"/></g><!--link Administrator to UC24--><g class="link" data-entity-1="ent0003" data-entity-2="ent0030" id="lnk66" data-source-line="78" data-link-type="dependency"><path d="M81.65,1708.02 C97.56,1739.99 124.39,1784.34 160.59,1810.54 C177.62,1822.86 194.293,1829.412 214.123,1834.262" style="stroke:#181818;stroke-width:1;" fill="none" id="Administrator-to-UC24"/><polygon points="218.98,1835.45,211.188,1829.426,214.123,1834.262,209.287,1837.197,218.98,1835.45" fill="#181818" style="stroke:#181818;stroke-width:1;stroke-linejoin:miter;stroke-miterlimit:10;"/></g><!--link Administrator to UC25--><g class="link" data-entity-1="ent0003" data-entity-2="ent0031" id="lnk67" data-source-line="79" data-link-type="dependency"><path d="M84.07,1630.95 C100.6,1601.6 127.04,1562.34 160.59,1538.54 C176.62,1527.16 191.607,1520.774 210.237,1515.534" style="stroke:#181818;stroke-width:1;" fill="none" id="Administrator-to-UC25"/><polygon points="215.05,1514.18,205.303,1512.766,210.237,1515.534,207.469,1520.467,215.05,1514.18" fill="#181818" style="stroke:#181818;stroke-width:1;stroke-linejoin:miter;stroke-miterlimit:10;"/></g><!--link Administrator to UC26--><g class="link" data-entity-1="ent0003" data-entity-2="ent0032" id="lnk68" data-source-line="80" data-link-type="dependency"><path d="M112.07,1635.84 C127.1,1626.13 144.11,1616.12 160.59,1608.54 C180.06,1599.59 197.612,1593.562 217.412,1587.912" style="stroke:#181818;stroke-width:1;" fill="none" id="Administrator-to-UC26"/><polygon points="222.22,1586.54,212.468,1585.163,217.412,1587.912,214.663,1592.856,222.22,1586.54" fill="#181818" style="stroke:#181818;stroke-width:1;stroke-linejoin:miter;stroke-miterlimit:10;"/></g><!--link Administrator to UC27--><g class="link" data-entity-1="ent0003" data-entity-2="ent0033" id="lnk69" data-source-line="81" data-link-type="dependency"><path d="M111.89,1663.96 C139.47,1660.69 169.855,1657.098 200.665,1653.448" style="stroke:#181818;stroke-width:1;" fill="none" id="Administrator-to-UC27"/><polygon points="205.63,1652.86,196.222,1649.947,200.665,1653.448,197.163,1657.891,205.63,1652.86" fill="#181818" style="stroke:#181818;stroke-width:1;stroke-linejoin:miter;stroke-miterlimit:10;"/></g><!--link UC23 to NS--><g class="link" data-entity-1="ent0029" data-entity-2="ent0005" id="lnk70" data-source-line="83" data-link-type="dependency"><path d="M326.2,1784.83 C342.24,1789.38 358.64,1797.18 369.08,1810.54 C457.57,1923.8 310.96,2018.99 399.08,2132.54 C472.58,2227.25 549.62,2192.46 666.67,2166.54 C713.39,2156.19 755.415,2129.923 787.805,2105.213" style="stroke:#181818;stroke-width:1;stroke-dasharray:7,7;" fill="none" id="UC23-to-NS"/><polygon points="791.78,2102.18,782.198,2104.459,787.805,2105.213,787.051,2110.819,791.78,2102.18" fill="#181818" style="stroke:#181818;stroke-width:1;stroke-linejoin:miter;stroke-miterlimit:10;"/><text x="536.88" y="2162.607" fill="#000" font-size="13" textLength="63.007">«include»</text></g><?plantuml-src VLLTRzem57tFhx3wteeaa41L8L4qqBI18X2LzkWcbzHgi2F7WQ5f_trEQWSdDdlYSixn_JY-XWAE0Wc6ECa_1Ce8XrGGHZqFfu9nz9sUePA1-lgmmYafYBYY3QOu1_w0S8LM6qKliXEXf18S6qSIV3q15MYD1LpmjJsHh3MxPO8SIOgRecWF_4nIQ2NRlUSrpM2Q5u2-5HdmhMm5_V4GgYj8SGNeOGUvBAVQE2nza_l9Sa8L4PZ4aftA0WIW7x-MYWzD_b1cibMKS7Oa1IZ5s5IySdQHdyeC0fKIJKpH7Z1FFsnHP8hU25oqvAe4iINukeNMnQJ0L6UQciAabjMQg54emSmKRF0de2MZWfFtkh5RcpQowYMCYoCh2DCItvPytQfknUyv_ChOvt0gF-nVN0PmCWRJgd5VbG8v0pANfAiuyVhJDVje5OqScXrZfovBx12eDUmqKuTcSSQamE-zOZsx5sN9cUozyOBGN2_Yw3-Ngmi6lckqGmMyK_JiVWDEZbTZdOFGSTxSd61ytxlRfWQzVLu31TuyZ1sKSZywKS_YVLsLG3EqI5DM6nF5tb_FqpycwF5nthxM0H0CWN08Z8V0P0X4Go0U0jCXCBCQ6rc8rQjlDUjRtVfMkytIoeBewQaT3psZbnT2qwBEO3xtcXntgKWnavQ1tqBQB8akNRAsiutkCg6RwR9jz_VEE9WxXBVQwB4Z8uwDU6h4iriiNyajbe-Xzx-YyS0DXsvux8OdRZXomt5ZKE0Uzny0?></g></svg>